<svg width="200" height="200" viewBox="0 0 200 200" fill="none" xmlns="http://www.w3.org/2000/svg">
<path d="M70.5458 144.526L60.3728 157.206C60.0943 157.553 60.5895 158.046 60.869 157.696L71.0429 145.014C71.3204 144.668 70.8264 144.176 70.5458 144.526Z" fill="white"/>
<path d="M75.0774 145.883V173.198C75.0774 173.29 75.1145 173.378 75.1805 173.443C75.2464 173.508 75.3359 173.544 75.4292 173.544C75.5225 173.544 75.612 173.508 75.6779 173.443C75.7439 173.378 75.7809 173.29 75.7809 173.198V145.883C75.7809 145.79 75.7439 145.702 75.6779 145.637C75.612 145.572 75.5225 145.536 75.4292 145.536C75.3359 145.536 75.2464 145.572 75.1805 145.637C75.1145 145.702 75.0774 145.79 75.0774 145.883Z" fill="white"/>
<path d="M80.1855 144.6C79.9152 144.25 79.3045 144.595 79.5779 144.95L89.3475 157.631C89.6178 157.982 90.2284 157.637 89.9551 157.282L80.1855 144.6Z" fill="white"/>
<path d="M137.882 39.0737C139.6 37.2946 141.634 35.8325 143.283 33.9863C145.037 32.0233 146.473 29.4953 146.155 26.7947C146.105 26.3568 145.4 26.3516 145.453 26.7947C145.51 27.9846 145.321 29.1734 144.895 30.2884C144.47 31.4034 143.817 32.4208 142.977 33.2782C139.933 36.812 135.899 38.5037 133.934 44.1561C132.356 48.6969 132.768 53.9936 133.257 58.7873C133.301 59.2262 134.005 59.2313 133.959 58.7873C133.218 51.5052 132.754 44.3857 137.882 39.0737Z" fill="white"/>
<path d="M147.971 39.0929C149.518 37.4573 150.622 35.4644 151.18 33.2981C151.74 31.1316 151.735 28.8615 151.169 26.697C151.141 26.6116 151.081 26.5401 151.002 26.4974C150.922 26.4548 150.828 26.4442 150.74 26.468C150.652 26.4917 150.578 26.548 150.532 26.625C150.485 26.7019 150.471 26.7937 150.491 26.8808C151.027 28.8996 151.042 31.0183 150.535 33.0442C150.028 35.0702 149.014 36.9392 147.588 38.4812C145.792 40.3589 143.76 40.9258 141.953 43.0595C138.277 47.4053 138.491 53.1652 138.87 58.8084C138.9 59.2504 139.603 59.2534 139.573 58.8084C139.233 53.7383 138.887 47.9549 142.303 43.724C144.066 41.5497 146.16 40.9298 147.971 39.0929Z" fill="white"/>
<path d="M156.751 40.928C159.678 36.7622 157.989 31.2845 156.325 26.7032C156.173 26.2866 155.494 26.4664 155.646 26.8871C156.439 28.8899 157.041 30.9611 157.444 33.0738C158.13 37.3077 157.153 40.7278 153.442 43.0007C150.776 44.6325 147.181 45.5937 145.508 50.2889C144.673 53.0527 144.427 55.9567 144.786 58.8186C144.822 59.2596 145.526 59.2637 145.49 58.8186C144.271 43.6519 152.794 46.558 156.751 40.928Z" fill="white"/>
<path d="M126.347 104.134C121.967 104.134 120.537 104.032 119.069 104.494C117.492 104.993 116.117 105.972 115.142 107.291C114.166 108.611 113.642 110.2 113.643 111.832C113.645 113.463 114.174 115.053 115.151 116.369C116.129 117.686 117.506 118.663 119.085 119.159C120.478 119.594 121.336 119.522 127.606 119.515C126.912 114.413 126.492 109.279 126.347 104.134Z" fill="#44A2FF"/>
<path d="M120.678 76.1821C118.912 76.3504 117.258 77.1062 115.986 78.3248C114.715 79.5434 113.903 81.1522 113.683 82.8862C113.465 84.6202 113.851 86.376 114.781 87.8642C115.71 89.3526 117.127 90.4848 118.797 91.0744C120.422 91.6536 122.036 91.5357 126.347 91.5275C126.496 86.3829 126.909 81.2489 127.585 76.1454C120.991 76.1454 121.216 76.1292 120.678 76.1821Z" fill="#44A2FF"/>
<path d="M159.189 105.523C158.004 105.506 156.838 105.225 155.778 104.702C154.718 104.179 153.791 103.427 153.066 102.503C152.342 101.579 151.839 100.505 151.593 99.3626C151.349 98.2201 151.368 97.0378 151.651 95.9037C151.909 94.8675 152.376 93.8935 153.027 93.0403C153.677 92.1871 154.496 91.4723 155.434 90.9392C156.751 90.2329 158.238 89.8918 159.737 89.9526C128.596 65.298 130.487 66.6484 130.029 66.685C129.54 66.7286 129.417 67.1675 129.302 67.5638C125.657 80.0613 124.958 110.391 128.977 126.864C129.104 127.38 129.221 127.904 129.4 128.407C129.44 128.587 129.55 128.746 129.706 128.848C129.863 128.95 130.054 128.99 130.239 128.955C130.516 128.897 128.534 130.409 159.955 105.534C159.697 105.534 159.442 105.532 159.189 105.523Z" fill="#DAF8FF"/>
<path d="M197.919 55.622C197.878 55.5161 197.811 55.4222 197.723 55.3492C197.635 55.2762 197.529 55.2263 197.417 55.2044C197.294 55.1475 183.661 55.1221 183.014 55.1779C182.231 55.245 182.354 56.1117 182.354 56.6675C182.354 88.8033 182.386 86.123 182.28 86.692C182.085 87.6498 181.548 88.5068 180.765 89.1072C179.983 89.7076 179.007 90.0115 178.017 89.9637C158.347 90.1242 158.012 89.5349 155.465 90.9239C154.432 91.5052 153.545 92.3062 152.867 93.2684C152.19 94.2306 151.739 95.3297 151.548 96.4856C151.357 97.6413 151.429 98.8246 151.762 99.9489C152.095 101.073 152.677 102.111 153.469 102.985C156.334 106.108 159.82 105.524 163.887 105.524C183.478 105.524 183.982 105.706 186.714 105.033C189.836 104.319 192.633 102.61 194.668 100.17C196.702 97.7303 197.861 94.6966 197.966 91.5406C197.968 91.434 198.006 55.8506 197.919 55.622Z" fill="white"/>
<path d="M26.8627 90.1395H21.5617C17.0735 90.1395 12.6905 89.5959 7.85978 93.2842C6.02308 94.6878 4.54008 96.49 3.52618 98.5505C2.51218 100.611 1.99478 102.874 2.01408 105.164C2.01408 106.951 1.99248 127.496 2.00278 127.913C2.01098 128.263 1.99138 128.637 2.32148 128.86C2.58038 129.033 1.31168 128.983 17.2787 128.983C17.6418 128.983 18.1194 129.068 18.4134 128.805C18.7074 128.541 18.6496 128.178 18.6496 127.832C18.6496 108.948 18.5176 109.238 18.9591 108.146C19.2143 107.509 19.6268 106.945 20.1592 106.504C20.6917 106.063 21.3271 105.761 22.0083 105.622C22.7438 105.479 22.9367 105.52 26.8565 105.52C25.559 100.473 25.5612 95.1861 26.8627 90.1395Z" fill="white"/>
<path d="M75.5705 128.96C70.4067 129.069 66.7365 124.153 64.5754 119.511C58.2924 106.012 59.262 84.7058 65.9257 73.5688C68.0661 69.9761 71.3526 66.6058 75.5653 66.7074C75.3149 66.6694 75.0608 66.6599 74.8082 66.679C56.2035 66.679 56.6223 66.6271 54.5716 66.8161C46.4394 67.5756 38.9208 71.4047 33.5903 77.5017C28.2599 83.5988 25.5309 91.4907 25.975 99.525C26.419 107.56 30.0016 115.113 35.9726 120.603C41.9436 126.094 49.8398 129.097 58.0077 128.983C58.3347 128.985 75.2631 129.024 75.5705 128.96Z" fill="#DAF8FF"/>
<path d="M75.5654 66.7032C62.7054 66.3984 55.8333 97.1748 63.6667 117.392C70.1468 134.117 83.1885 132.675 88.539 113.328C93.8895 93.9813 87.8045 66.9959 75.5654 66.7032Z" fill="#44A2FF"/>
<path d="M79.4242 112.196C79.478 110.591 79.2513 108.989 78.7538 107.46C76.8475 102.034 72.0869 103.401 71.4845 110.516C71.3266 112.258 71.4838 114.014 71.9488 115.702C73.9242 122.3 79.2571 119.885 79.4242 112.196Z" fill="white"/>
<path d="M78.0028 77.8545C76.2203 75.0217 72.8864 75.6192 71.7558 80.6892C71.0451 83.8797 71.4402 89.2088 73.9571 91.0276C74.271 91.2713 74.6433 91.4314 75.038 91.4928C75.4329 91.5541 75.8371 91.5147 76.212 91.3782C76.7781 91.1105 77.2814 90.7295 77.6899 90.2597C78.0984 89.7898 78.403 89.2412 78.5845 88.649C79.8368 85.6182 79.7202 80.5887 78.0028 77.8545Z" fill="white"/>
<path d="M70.5458 144.526L60.3728 157.206C60.0943 157.553 60.5895 158.046 60.869 157.696L71.0429 145.014C71.3204 144.668 70.8264 144.176 70.5458 144.526Z" fill="black"/>
<path d="M75.0774 145.883V173.198C75.0774 173.29 75.1145 173.378 75.1805 173.443C75.2464 173.508 75.3359 173.544 75.4292 173.544C75.5225 173.544 75.612 173.508 75.6779 173.443C75.7439 173.378 75.7809 173.29 75.7809 173.198V145.883C75.7809 145.79 75.7439 145.702 75.6779 145.637C75.612 145.572 75.5225 145.536 75.4292 145.536C75.3359 145.536 75.2464 145.572 75.1805 145.637C75.1145 145.702 75.0774 145.79 75.0774 145.883Z" fill="black"/>
<path d="M80.1855 144.6C79.9152 144.25 79.3045 144.595 79.5779 144.95L89.3475 157.631C89.6178 157.982 90.2284 157.637 89.9551 157.282L80.1855 144.6Z" fill="black"/>
<path d="M137.882 39.0737C139.6 37.2946 141.634 35.8325 143.283 33.9863C145.037 32.0233 146.473 29.4953 146.155 26.7947C146.105 26.3568 145.4 26.3516 145.453 26.7947C145.51 27.9846 145.321 29.1734 144.895 30.2884C144.47 31.4034 143.817 32.4208 142.977 33.2782C139.933 36.812 135.899 38.5037 133.934 44.1561C132.356 48.6969 132.768 53.9936 133.257 58.7873C133.301 59.2262 134.005 59.2313 133.959 58.7873C133.218 51.5052 132.754 44.3857 137.882 39.0737Z" fill="black"/>
<path d="M147.971 39.0929C149.518 37.4573 150.622 35.4644 151.18 33.2981C151.74 31.1316 151.735 28.8615 151.169 26.697C151.141 26.6116 151.081 26.5401 151.002 26.4974C150.922 26.4548 150.828 26.4442 150.74 26.468C150.652 26.4917 150.578 26.548 150.532 26.625C150.485 26.7019 150.471 26.7937 150.491 26.8808C151.027 28.8996 151.042 31.0183 150.535 33.0442C150.028 35.0702 149.014 36.9392 147.588 38.4812C145.792 40.3589 143.76 40.9258 141.953 43.0595C138.277 47.4053 138.491 53.1652 138.87 58.8084C138.9 59.2504 139.603 59.2534 139.573 58.8084C139.233 53.7383 138.887 47.9549 142.303 43.724C144.066 41.5497 146.16 40.9298 147.971 39.0929Z" fill="black"/>
<path d="M156.751 40.928C159.678 36.7622 157.989 31.2845 156.325 26.7032C156.173 26.2866 155.494 26.4664 155.646 26.8871C156.439 28.8899 157.041 30.9611 157.444 33.0738C158.13 37.3077 157.153 40.7278 153.442 43.0007C150.776 44.6325 147.181 45.5937 145.508 50.2889C144.673 53.0527 144.427 55.9567 144.786 58.8186C144.822 59.2596 145.526 59.2637 145.49 58.8186C144.271 43.6519 152.794 46.558 156.751 40.928Z" fill="black"/>
<path d="M197.968 56.6179C197.968 55.9879 198.11 55.3803 197.417 55.2046C197.266 55.1344 183.58 55.1294 183.014 55.1782C182.231 55.2452 182.355 56.1119 182.355 56.6677C182.355 88.8035 182.387 86.1231 182.28 86.6921C182.165 87.3049 181.903 87.8818 181.516 88.3753C181.13 88.8687 180.63 89.2645 180.057 89.53C178.365 90.3428 177.606 89.782 159.736 89.9527C137.152 72.0701 131.941 67.8697 130.606 66.9257C130.018 66.5102 129.632 66.6515 129.383 67.2783C129.175 67.9119 129.003 68.5564 128.868 69.2088C128.324 71.4919 127.912 73.8116 127.584 76.1425C120.698 76.1425 119.924 75.9768 117.915 76.9644C116.554 77.6444 115.426 78.7014 114.669 80.0053C113.91 81.3092 113.557 82.8029 113.651 84.3026C113.743 85.8021 114.281 87.242 115.195 88.4447C116.109 89.6475 117.36 90.5605 118.795 91.0714C120.433 91.6546 122.067 91.5327 126.346 91.5245C126.224 95.3225 126.185 99.2079 126.346 104.131C121.967 104.131 120.537 104.029 119.069 104.491C117.493 104.99 116.118 105.97 115.143 107.289C114.168 108.608 113.644 110.197 113.646 111.829C113.647 113.46 114.176 115.049 115.152 116.366C116.13 117.683 117.507 118.66 119.085 119.156C120.588 119.625 121.826 119.519 127.606 119.512C127.999 122.514 128.596 125.486 129.395 128.408C129.757 129.424 130.487 128.842 130.942 128.495C132.58 127.234 138.428 122.578 159.955 105.533C160.058 105.533 182.728 105.515 182.832 105.513C186.062 105.556 189.221 104.577 191.844 102.72C194.467 100.863 196.415 98.2251 197.403 95.1955C198.181 92.5974 197.98 93.8452 197.968 56.6179ZM119.9 90.67C118.516 90.3645 117.257 89.6589 116.283 88.6437C115.309 87.6285 114.666 86.3501 114.434 84.9722C114.203 83.5943 114.395 82.1798 114.985 80.91C115.575 79.6403 116.538 78.5731 117.748 77.8453C119.792 76.6321 120.657 76.8292 127.494 76.8292C126.905 81.2582 126.524 86.4026 126.37 90.8275C121.384 90.8437 120.881 90.8854 119.9 90.67ZM120.284 118.732C118.753 118.486 117.346 117.752 116.279 116.644C115.21 115.536 114.54 114.115 114.368 112.596C114.196 111.078 114.535 109.546 115.329 108.234C116.124 106.923 117.333 105.903 118.771 105.33C120.484 104.659 122.124 104.823 126.37 104.823C126.561 109.767 126.88 114.162 127.512 118.821C121.453 118.825 121 118.852 120.285 118.732H120.284ZM149.041 113.291C129.036 129.128 130.177 128.355 130.081 128.254C129.985 128.152 129.511 126.112 129.472 125.941C125.509 108.817 126.619 78.8726 130.005 67.6421C130.039 67.5303 130.29 67.5405 130.455 67.6553C131.801 68.6073 137.199 73.0333 158.694 89.9944C156.833 90.1434 155.087 90.9367 153.764 92.2335C152.44 93.5304 151.626 95.247 151.465 97.0789C151.304 98.9107 151.808 100.739 152.886 102.241C153.964 103.742 155.546 104.819 157.353 105.28C157.846 105.391 158.348 105.467 158.852 105.505C158.882 105.506 156.038 107.753 149.042 113.291H149.041ZM197.252 91.9065C196.958 98.5506 191.626 104.827 181.755 104.827C181.755 104.827 159.584 104.857 158.867 104.816C157.635 104.752 156.441 104.373 155.405 103.715C149.573 100.006 151.964 90.6801 159.334 90.6558C160.819 90.6507 176.025 90.6558 177.557 90.6558C178.879 90.7679 180.198 90.3928 181.256 89.6031C181.74 89.2355 182.143 88.7765 182.444 88.2531C182.745 87.7297 182.937 87.1524 183.01 86.5549C183.083 86.0002 183.06 88.3626 183.06 55.87C183.163 55.8416 182.291 55.8629 197.267 55.8629C197.367 55.8771 197.257 91.8049 197.253 91.9065H197.252Z" fill="black"/>
<path d="M88.8267 83.4538C86.9699 76.0925 82.8634 66.6747 74.8082 66.6747C56.2035 66.6747 56.6223 66.6229 54.5716 66.8119C48.0717 67.4026 41.9172 69.9628 36.9552 74.1403C31.9931 78.3177 28.4672 83.9072 26.8627 90.1395C17.4407 90.1395 17.7966 90.0714 16.1791 90.172C12.3218 90.4188 8.70618 92.1088 6.07268 94.896C3.43928 97.6832 1.98728 101.357 2.01408 105.164C2.01408 106.951 1.99248 127.496 2.00278 127.913C2.01098 128.263 1.99138 128.637 2.32148 128.86C2.70628 129.011 3.12638 129.054 3.53458 128.983C14.2553 128.983 17.1343 129.02 17.976 128.959C18.5877 128.915 18.6125 128.575 18.6404 128.12C18.7146 126.894 18.6589 123.063 18.6496 110.232C18.5817 109.549 18.6777 108.86 18.93 108.221C19.1823 107.58 19.5838 107.009 20.102 106.55C21.474 105.35 22.4993 105.521 26.8513 105.519C28.606 112.313 32.6356 118.325 38.2888 122.582C43.942 126.84 50.888 129.095 58.0035 128.982C62.7579 129.012 75.8181 128.964 75.9181 128.957C87.7601 128.13 93.6161 102.501 88.8267 83.4538ZM22.0723 104.912C21.3855 105.019 20.7301 105.271 20.1508 105.65C19.5715 106.029 19.0817 106.526 18.7146 107.108C17.8079 108.523 17.9503 109.71 17.9503 111.234V128.292H2.71758V108.149C2.63888 106.402 2.69298 104.654 2.87958 102.917C3.32358 100.046 4.64878 97.3781 6.67718 95.2712C8.70558 93.1643 11.3399 91.7193 14.2264 91.1302C16.0213 90.7593 16.927 90.8335 26.6904 90.8335C25.6227 95.4387 25.6202 100.221 26.6832 104.828C25.146 104.754 23.6055 104.782 22.0723 104.912ZM48.1194 126.864C44.2156 125.634 40.5978 123.656 37.4749 121.041C34.3518 118.427 31.7856 115.229 29.9243 111.632C19.9184 92.2935 33.1592 67.3676 58.2305 67.3676C74.1945 67.3676 72.3542 67.3056 71.9694 67.4875C65.3233 70.6688 62.0895 81.3384 61.0146 88.6215C59.7654 97.1331 60.2348 107.207 62.9745 115.422C64.5919 120.299 67.5132 126.25 72.2583 128.289C56.0767 128.291 53.6072 128.583 48.1194 126.864ZM88.7978 109.057C87.6631 115.182 84.7697 123.823 79.4522 127.081C75.7861 129.328 71.3031 128.597 67.5112 123.257C59.5354 112.029 58.7875 87.7497 66.1702 74.544C72.379 63.4304 82.0392 65.1902 87.104 80.0714C90.1728 89.1773 90.4493 100.161 88.7978 109.057Z" fill="black"/>
<path d="M79.4149 111.207C79.3721 109.934 79.1496 108.673 78.7537 107.46C77.5086 103.917 75.2465 103.504 73.6631 104.877C71.3566 106.879 70.9481 112.375 71.9477 115.699C73.9849 122.475 79.7471 119.777 79.4149 111.207ZM76.9176 118.081C76.6629 118.406 76.3066 118.64 75.9039 118.745C75.5011 118.852 75.074 118.825 74.6885 118.668C73.3402 117.978 72.6027 115.771 72.3324 114.271C71.8743 111.785 72.1392 109.222 73.0968 106.878C74.4306 104.046 76.8031 104.022 78.075 107.647C79.547 111.835 78.3989 116.516 76.9176 118.081Z" fill="black"/>
<path d="M77.8861 77.6778C76.7091 75.9616 75.169 75.8774 74.0271 76.614C70.9944 78.5698 70.4168 87.0794 73.3556 90.4618C73.7077 90.9692 74.2422 91.326 74.8511 91.4601C75.46 91.5942 76.0979 91.4956 76.6359 91.1842C79.8903 89.3553 80.2689 81.1517 77.8861 77.6778ZM76.9175 90.0899C76.6627 90.415 76.3064 90.6486 75.9036 90.7545C75.5008 90.8604 75.0737 90.8329 74.6883 90.6762C73.3401 89.9873 72.6026 87.7784 72.3323 86.2797C71.876 83.7933 72.1409 81.2306 73.0967 78.8858C74.4305 76.0551 76.803 76.0328 78.0748 79.6561C79.5468 83.8473 78.3987 88.5282 76.9175 90.0899Z" fill="black"/>
</svg>
