<svg width="200" height="200" viewBox="0 0 200 200" fill="none" xmlns="http://www.w3.org/2000/svg">
<path d="M162.735 160.694C162.677 160.594 117.951 95.7299 117.718 95.4319C117.956 95.8319 117.484 96.5439 117.198 96.9079C69.319 157.93 66.548 161.527 66.54 161.535C65.975 162.135 65.212 161.952 63.656 161.912H23.694C23.224 161.912 22.625 161.89 22.414 161.361C22.3992 161.319 22.3888 161.277 22.383 161.233C22.322 162.273 22.359 165.542 22.359 176.62C22.359 177.581 22.215 178.475 23.403 178.49C24.797 178.507 160.45 178.49 160.45 178.49C162.925 178.49 162.876 178.701 162.889 176.605C162.898 174.988 162.889 171.519 162.889 163.97C162.886 162.017 163.059 161.251 162.735 160.694Z" fill="#DAF8FF"/>
<path d="M25.9479 145.245C25.4479 140.808 21.5319 138.375 17.1729 137.923C12.9449 137.485 8.86191 138.752 6.60991 142.352C4.29891 146.047 4.27691 151.022 7.75491 153.771C9.65196 155.178 11.9018 156.033 14.2549 156.239C21.0689 156.684 26.5829 150.916 25.9479 145.245Z" fill="white"/>
<path d="M15.1118 158.909V177.725C15.1203 177.821 15.1643 177.909 15.2351 177.974C15.3058 178.039 15.3983 178.075 15.4943 178.075C15.5903 178.075 15.6828 178.039 15.7536 177.974C15.8244 177.909 15.8683 177.821 15.8768 177.725V158.909C15.8724 158.811 15.8301 158.718 15.7587 158.65C15.6873 158.582 15.5923 158.544 15.4938 158.545C15.3955 158.545 15.301 158.583 15.2299 158.65C15.1587 158.718 15.1164 158.811 15.1118 158.909Z" fill="white"/>
<path d="M180.128 116.426C178.928 108.908 170.697 100.726 163.45 98.3459C157.096 96.2609 149.989 97.8579 144.069 101.069C137.719 104.513 133.733 111.824 132.881 117.427L144.6 134.409C151.068 135.874 161.852 137.762 168.136 135.645C174.791 133.4 181.5 125.066 180.128 116.426Z" fill="white"/>
<path d="M155.363 137.768V147.12C155.368 147.218 155.411 147.31 155.482 147.377C155.553 147.445 155.647 147.482 155.745 147.483C155.843 147.484 155.938 147.447 156.01 147.379C156.081 147.311 156.123 147.218 156.128 147.12V137.768C156.122 137.67 156.079 137.578 156.008 137.511C155.937 137.443 155.843 137.405 155.745 137.405C155.647 137.406 155.553 137.444 155.482 137.511C155.411 137.578 155.368 137.67 155.363 137.768Z" fill="white"/>
<path d="M194.756 147.278C194.22 144.719 192.924 142.381 191.037 140.571C189.151 138.761 186.762 137.562 184.183 137.132C174.358 135.801 166.04 145.067 166.242 152.18C166.436 159.059 177.381 165.848 186.419 162.153C192.076 159.84 196.035 153.518 194.756 147.278Z" fill="white"/>
<path d="M180.241 165.185V177.725C180.245 177.823 180.288 177.916 180.359 177.984C180.431 178.052 180.526 178.089 180.624 178.088C180.722 178.087 180.816 178.05 180.887 177.982C180.958 177.915 181 177.823 181.006 177.725V165.185C181 165.087 180.958 164.995 180.887 164.928C180.816 164.861 180.722 164.823 180.624 164.822C180.526 164.821 180.431 164.859 180.359 164.926C180.288 164.994 180.245 165.087 180.241 165.185Z" fill="white"/>
<path d="M153.632 82.9329C151.421 82.7447 149.264 82.1522 147.267 81.1849C149.634 78.8509 151.667 76.8719 153.191 73.6439C153.437 73.1199 154.015 72.2519 153.34 71.8149C152.665 71.3779 152.162 72.0939 151.669 72.4409C150.261 73.3581 148.681 73.9781 147.026 74.2629C141.854 75.3239 135.75 74.2279 131.197 72.2749C129.61 71.5068 127.934 70.9378 126.208 70.5809C124.744 70.2761 123.233 70.2818 121.771 70.5975C120.31 70.9133 118.931 71.532 117.724 72.4139C116.757 73.1889 116.724 73.2999 116.739 74.3329C116.78 78.2849 116.774 67.2969 116.774 92.6379C116.775 92.7403 116.816 92.8382 116.888 92.9106C116.96 92.983 117.058 93.0241 117.161 93.0249C117.263 93.0246 117.362 92.9837 117.434 92.9112C117.507 92.8387 117.548 92.7404 117.548 92.6379V86.8599C118.598 86.8769 124.531 85.4069 130.087 86.8279C133.544 87.7119 138.855 90.3609 145.748 88.8099C148.862 88.1106 151.73 86.5832 154.048 84.3889C154.7 83.7769 154.5 83.1149 153.632 82.9329Z" fill="#44A2FF"/>
<path d="M141.988 49.1219L151.925 32.1759C151.956 32.1109 151.969 32.0384 151.961 31.9666C151.954 31.8949 151.926 31.8267 151.882 31.7698C151.837 31.7129 151.778 31.6697 151.71 31.6449C151.642 31.6202 151.569 31.615 151.498 31.6299C151.403 31.6514 151.319 31.7087 151.265 31.7899L141.328 48.7359C141.296 48.8008 141.283 48.8734 141.291 48.9454C141.298 49.0174 141.326 49.0858 141.37 49.1428C141.415 49.1998 141.475 49.243 141.543 49.2676C141.611 49.2922 141.684 49.2972 141.755 49.2819C141.85 49.2604 141.934 49.2031 141.988 49.1219Z" fill="#44A2FF"/>
<path d="M158.334 46.7059C158.742 46.4349 158.36 45.7729 157.948 46.0459L147.688 52.8459C147.28 53.1159 147.663 53.7799 148.075 53.5059L158.334 46.7059Z" fill="#44A2FF"/>
<path d="M135.266 46.3759L136.366 33.6089C136.409 33.1189 135.643 33.1209 135.601 33.6089L134.501 46.3759C134.458 46.8669 135.224 46.8639 135.266 46.3759Z" fill="#44A2FF"/>
<path d="M122.58 134.7C122.045 133.937 121.358 133.292 120.562 132.807C119.766 132.322 118.878 132.007 117.954 131.882C117.031 131.757 116.091 131.824 115.195 132.08C114.298 132.335 113.465 132.774 112.746 133.367C111.784 134.16 111.061 135.203 110.656 136.382C110.128 137.872 110.137 139.499 110.681 140.983C111.225 142.467 112.271 143.714 113.637 144.509C115.002 145.304 116.603 145.598 118.162 145.338C119.721 145.079 121.141 144.284 122.176 143.089C123.19 141.947 123.784 140.492 123.857 138.966C123.931 137.44 123.48 135.935 122.58 134.7Z" fill="white"/>
<path d="M121.687 138.236H117.447V134C117.447 133.898 117.407 133.801 117.335 133.729C117.263 133.657 117.165 133.617 117.064 133.617C116.962 133.617 116.865 133.657 116.793 133.729C116.721 133.801 116.681 133.898 116.681 134V138.24H112.441C112.343 138.244 112.25 138.287 112.182 138.358C112.115 138.429 112.077 138.524 112.078 138.622C112.077 138.72 112.114 138.815 112.182 138.887C112.25 138.958 112.343 139.001 112.441 139.005H116.681V143.245C116.681 143.347 116.721 143.444 116.793 143.516C116.865 143.588 116.962 143.628 117.064 143.628C117.165 143.628 117.263 143.588 117.335 143.516C117.407 143.444 117.447 143.347 117.447 143.245V139H121.687C121.788 139 121.885 138.96 121.957 138.888C122.029 138.816 122.069 138.719 122.069 138.618C122.069 138.517 122.029 138.419 121.957 138.348C121.885 138.276 121.788 138.236 121.687 138.236Z" fill="#DAF8FF"/>
<path d="M134.577 177.453C134.577 161.799 134.546 162.445 134.601 162.233C134.65 162.058 134.759 161.906 134.909 161.804C135.058 161.702 135.239 161.656 135.42 161.675C135.32 161.649 98.8639 161.649 98.7449 161.669C98.848 161.661 98.9515 161.676 99.0489 161.71C99.1463 161.745 99.2355 161.799 99.3109 161.87C99.3864 161.941 99.4467 162.026 99.488 162.121C99.5293 162.216 99.5507 162.318 99.5509 162.422C99.5699 162.614 99.5509 172.391 99.5509 176.973C99.5509 177.745 99.6649 178.05 99.0399 178.49C103.719 178.49 132.522 178.567 135.127 178.49C134.937 178.398 134.782 178.247 134.683 178.061C134.584 177.875 134.547 177.662 134.577 177.453Z" fill="white"/>
<path d="M146.32 168.629C146.249 168.282 145.928 168.117 145.654 167.946C135.354 161.532 135.734 161.664 135.42 161.675C135.24 161.656 135.058 161.702 134.909 161.804C134.759 161.906 134.65 162.058 134.601 162.233C134.545 162.448 134.577 161.812 134.577 177.453C134.546 177.662 134.582 177.876 134.681 178.063C134.78 178.25 134.936 178.401 135.127 178.493C135.427 178.711 144.758 184.503 145.002 184.649C145.137 184.765 145.305 184.837 145.482 184.855C145.66 184.873 145.838 184.836 145.994 184.749C146.363 184.514 146.348 184.119 146.348 183.73C146.348 167.556 146.367 168.862 146.32 168.629Z" fill="white"/>
<path d="M99.551 175.262C99.551 171.862 99.569 162.603 99.551 162.422C99.5506 162.291 99.5163 162.162 99.4515 162.048C99.3867 161.934 99.2935 161.839 99.181 161.772C99.0687 161.704 98.9408 161.667 98.8098 161.663C98.6787 161.659 98.5489 161.69 98.433 161.751C98.333 161.795 89.101 167.534 88.67 167.812C87.999 168.191 87.777 168.412 87.779 169.067C87.779 169.556 87.761 183.561 87.779 184.023C87.7692 184.204 87.8203 184.384 87.9243 184.533C88.0283 184.682 88.1792 184.792 88.353 184.846C88.787 184.964 88.209 185.217 98.076 179.068C99.837 177.971 99.551 178.629 99.551 175.262Z" fill="white"/>
<path d="M116.925 95.136C114.779 94.971 106.632 95.083 75.1648 95.083C74.8028 95.033 74.4348 95.043 74.0778 95.116C73.7958 95.228 73.6318 95.524 73.4528 95.752C20.7308 162.969 22.6828 160.469 22.5668 160.645C22.1588 161.271 22.3508 161.912 23.6938 161.912H65.4548C65.7068 161.935 65.9603 161.889 66.1878 161.778C66.4152 161.667 66.6079 161.496 66.7448 161.283C67.0708 160.861 117.009 97.146 117.198 96.905C117.9 96.013 118.235 95.237 116.925 95.136Z" fill="white"/>
<path d="M75.9409 81.943C75.3119 82.481 58.7999 96.59 58.5659 96.78C58.7519 96.439 73.8659 68.992 73.8729 68.98C74.1109 68.548 73.4509 68.162 73.2129 68.594C72.6689 69.581 57.9129 96.337 57.4469 97.194C57.3919 96.654 54.6169 68.807 54.6149 68.794C54.5669 68.308 53.8009 68.304 53.8499 68.794L56.6939 97.494C56.2669 97.094 36.5319 78.381 36.5199 78.37C36.1629 78.031 35.6199 78.57 35.9789 78.911C35.9789 78.911 55.9709 97.928 56.8249 98.693C57.0619 98.906 57.2249 98.962 57.5689 98.666L76.4819 82.484C76.8569 82.164 76.3139 81.625 75.9409 81.943Z" fill="white"/>
<path d="M94.0379 61.7371C92.098 63.8592 89.6297 65.4285 86.8849 66.2846C84.1401 67.1407 81.2173 67.253 78.4149 66.6101C77.4984 68.3129 77.0063 70.2117 76.9803 72.1453C76.9544 74.0789 77.3954 75.9903 78.2659 77.7171C79.1234 79.3689 80.3595 80.7944 81.8732 81.8773C83.3868 82.9602 85.1352 83.6696 86.9754 83.9478C88.8156 84.2259 90.6955 84.0648 92.4616 83.4776C94.2277 82.8905 95.8298 81.8939 97.1372 80.5693C98.4445 79.2447 99.42 77.6296 99.984 75.856C100.548 74.0824 100.684 72.2005 100.382 70.3641C100.08 68.5277 99.3477 66.7888 98.2451 65.2895C97.1425 63.7901 95.7008 62.5728 94.0379 61.7371Z" fill="white"/>
<path d="M27.6048 44.1679C24.2871 43.5068 20.847 43.8659 17.7373 45.198C14.6277 46.53 11.9943 48.7726 10.184 51.6303C8.37361 54.4881 7.4711 57.8271 7.59527 61.2077C7.71945 64.5884 8.86448 67.8522 10.8796 70.5694C12.8948 73.2867 15.6855 75.33 18.8845 76.4303C22.0835 77.5306 25.5407 77.6364 28.801 76.7337C32.0612 75.831 34.9717 73.9622 37.1492 71.3732C39.3267 68.7843 40.6692 65.5966 40.9998 62.2299C37.5063 60.4816 34.4733 57.9356 32.1463 54.7978C29.8192 51.66 28.2635 48.0185 27.6048 44.1679Z" fill="white"/>
<path d="M95.3288 41.359C93.2725 38.4561 90.3231 36.3057 86.9305 35.2357C83.5379 34.1658 79.8884 34.235 76.5388 35.433C76.9055 37.367 77.0357 39.3385 76.9268 41.304C76.7436 44.7155 75.8601 48.0529 74.3311 51.1082C72.8022 54.1635 70.6606 56.8713 68.0398 59.063C69.1588 60.9473 70.6468 62.5862 72.4146 63.8814C74.1824 65.1767 76.1936 66.1016 78.3275 66.6006C80.4614 67.0997 82.6742 67.1627 84.833 66.7859C86.9919 66.409 89.0524 65.6 90.891 64.4075C92.7297 63.2149 94.3085 61.6633 95.5329 59.8458C96.7573 58.0282 97.6021 55.9821 98.0165 53.8301C98.4309 51.6781 98.4064 49.4646 97.9446 47.3223C97.4828 45.18 96.593 43.1531 95.3288 41.363V41.359Z" fill="white"/>
<path d="M76.8329 37.465C76.3746 33.0095 74.7207 28.7607 72.0462 25.168C69.3717 21.5752 65.776 18.772 61.6393 17.0548C57.5026 15.3376 52.9787 14.7703 48.5461 15.4128C44.1135 16.0554 39.9369 17.8839 36.4581 20.705C32.9792 23.5261 30.3274 27.2349 28.7832 31.4392C27.2389 35.6435 26.8595 40.187 27.6852 44.5892C28.5109 48.9914 30.5109 53.0886 33.4738 56.4475C36.4366 59.8065 40.2522 62.3023 44.5169 63.671C48.4488 64.9265 52.6313 65.1839 56.6875 64.42C60.7437 63.6561 64.5461 61.8949 67.752 59.2952C70.9579 56.6954 73.4665 53.3388 75.0518 49.5279C76.637 45.7169 77.2491 41.5714 76.8329 37.465Z" fill="white"/>
<path d="M67.565 131.829C67.565 108.929 67.88 108.996 66.515 106.671C65.8099 105.461 64.7785 104.474 63.5388 103.823C62.2992 103.172 60.9013 102.883 59.505 102.989C58.1088 103.095 56.7706 103.591 55.643 104.422C54.5154 105.252 53.6439 106.382 53.128 107.684C52.7297 108.753 52.5416 109.889 52.574 111.029C52.547 113.983 52.574 131.917 52.574 132.129C52.584 132.578 52.574 132.973 52.943 133.202C53.288 133.38 53.508 133.335 54.443 133.332C66.836 133.295 66.743 133.397 67.11 133.246C67.7 133.005 67.565 132.268 67.565 131.829Z" fill="white"/>
<path d="M25.9479 145.245C25.4479 140.808 21.5319 138.375 17.1729 137.923C12.9449 137.485 8.86191 138.752 6.60991 142.352C4.29891 146.047 4.27691 151.022 7.75491 153.771C9.65196 155.178 11.9018 156.033 14.2549 156.239C21.0689 156.684 26.5829 150.916 25.9479 145.245ZM9.6359 154.079C8.79327 153.674 8.04116 153.103 7.42475 152.4C6.80835 151.697 6.34036 150.877 6.04891 149.989C5.53192 147.962 5.73956 145.819 6.63591 143.929C8.33591 140.141 11.7669 138.544 15.9139 138.613C19.8139 138.678 23.8139 140.375 24.9329 144.061C26.9919 150.84 18.4809 158.739 9.6359 154.079Z" fill="black"/>
<path d="M15.1118 158.909V177.725C15.1203 177.821 15.1643 177.909 15.2351 177.974C15.3058 178.039 15.3983 178.075 15.4943 178.075C15.5903 178.075 15.6828 178.039 15.7536 177.974C15.8244 177.909 15.8683 177.821 15.8768 177.725V158.909C15.8724 158.811 15.8301 158.718 15.7587 158.65C15.6873 158.582 15.5923 158.544 15.4938 158.545C15.3955 158.545 15.301 158.583 15.2299 158.65C15.1587 158.718 15.1164 158.811 15.1118 158.909Z" fill="black"/>
<path d="M173.99 105.416C167.3 98.3829 159.604 95.6159 150.063 98.5509C145.991 99.8029 141.905 101.829 139.048 104.966C135.876 108.467 133.741 112.782 132.881 117.427L133.513 118.344C133.816 115.928 134.533 113.583 135.633 111.411C138.539 105.495 142.014 102.734 146.557 100.698C153 97.8119 158.346 97.6599 162.62 98.8909C170.02 101.023 178.227 109.326 179.39 116.63C180.517 123.699 175.851 130.97 169.427 134.276C163.311 137.424 150.677 135.06 143.961 133.486L144.598 134.409C150.667 135.784 158.759 137.148 164.951 136.341C167.096 136.13 169.164 135.423 170.989 134.276C176.183 131.111 180.039 125.417 180.303 119.385C180.538 113.991 177.739 109.356 173.99 105.416Z" fill="black"/>
<path d="M155.363 137.768V147.12C155.368 147.218 155.411 147.309 155.482 147.377C155.553 147.444 155.647 147.482 155.745 147.483C155.843 147.484 155.938 147.446 156.01 147.379C156.081 147.311 156.123 147.218 156.128 147.12V137.768C156.122 137.67 156.079 137.578 156.008 137.51C155.937 137.443 155.843 137.405 155.745 137.405C155.647 137.405 155.553 137.443 155.482 137.511C155.411 137.578 155.368 137.67 155.363 137.768Z" fill="black"/>
<path d="M169.686 143.436C168.194 145.496 166.162 149.353 166.242 152.18C166.436 159.059 177.381 165.848 186.419 162.153C192.076 159.84 196.035 153.518 194.756 147.278C194.22 144.719 192.924 142.381 191.037 140.571C189.151 138.761 186.762 137.562 184.183 137.132C181.425 136.803 178.628 137.213 176.081 138.321C173.533 139.429 171.326 141.194 169.686 143.436ZM193.52 145.742C195.657 151.524 192.687 157.703 187.81 160.613C180.393 165.038 169.783 160.661 167.397 154.148C166.313 151.188 167.762 148.226 169.197 145.667C169.885 144.393 170.743 143.22 171.749 142.179C174.534 139.391 178.301 137.806 182.241 137.765C184.713 137.773 187.123 138.544 189.141 139.971C191.159 141.399 192.689 143.414 193.52 145.742Z" fill="black"/>
<path d="M180.241 165.185V177.725C180.245 177.823 180.288 177.916 180.359 177.984C180.431 178.051 180.526 178.089 180.624 178.088C180.722 178.087 180.816 178.049 180.887 177.982C180.958 177.914 181 177.823 181.006 177.725V165.185C181 165.087 180.958 164.995 180.887 164.928C180.816 164.86 180.722 164.822 180.624 164.822C180.526 164.821 180.431 164.858 180.359 164.926C180.288 164.994 180.245 165.086 180.241 165.185Z" fill="black"/>
<path d="M154.407 83.5268C154.086 82.3438 152.058 83.4898 147.267 81.1848C149.633 78.8518 151.667 76.8708 153.191 73.6438C153.437 73.1198 154.015 72.2518 153.34 71.8138C152.665 71.3778 152.162 72.0938 151.669 72.4408C150.261 73.3581 148.681 73.9781 147.026 74.2628C141.854 75.3228 135.75 74.2278 131.197 72.2748C129.61 71.5067 127.934 70.9377 126.208 70.5808C124.744 70.2759 123.233 70.2815 121.771 70.5972C120.31 70.913 118.931 71.5318 117.724 72.4138C116.757 73.1888 116.724 73.2998 116.739 74.3328C116.831 83.1958 116.783 92.6378 116.783 92.6378C116.791 92.7334 116.835 92.8224 116.906 92.8872C116.977 92.952 117.069 92.9879 117.165 92.9879C117.261 92.9879 117.354 92.952 117.425 92.8872C117.495 92.8224 117.539 92.7334 117.548 92.6378V86.8598C118.596 86.8758 124.548 85.4098 130.087 86.8278C133.544 87.7118 138.855 90.3608 145.748 88.8098C148.862 88.1106 151.73 86.5831 154.048 84.3888C154.186 84.2961 154.293 84.165 154.357 84.0118C154.421 83.8585 154.438 83.6899 154.407 83.5268ZM153.587 83.7748C151.559 85.7281 149.072 87.1382 146.355 87.8748C140.243 89.5448 135.572 87.6828 131.814 86.5278C124.24 84.2008 117.935 86.3278 117.552 86.1138C117.452 86.0588 117.572 78.6528 117.529 75.2818C117.466 74.7157 117.481 74.1436 117.575 73.5818C118.263 72.8833 119.081 72.3252 119.982 71.9388C122.298 70.9388 125.641 70.7518 129.438 72.3478C130.943 73.0188 132.483 73.6093 134.051 74.1168C137.253 75.1103 140.601 75.55 143.951 75.4168C149.436 75.1428 151.304 73.4598 152.877 72.4698C151.363 76.3128 148.468 78.9138 146.339 81.0328C146.298 81.0742 146.267 81.1245 146.249 81.1798C146.219 81.263 146.22 81.3537 146.251 81.4365C146.281 81.5192 146.34 81.5886 146.416 81.6328C148.633 82.8009 151.066 83.504 153.565 83.6988C153.7 83.7138 153.683 83.7068 153.587 83.7748Z" fill="black"/>
<path d="M141.988 49.1218L151.925 32.1758C151.957 32.1109 151.97 32.0382 151.962 31.9663C151.955 31.8943 151.927 31.8259 151.883 31.7689C151.838 31.7119 151.778 31.6686 151.71 31.644C151.642 31.6194 151.569 31.6145 151.498 31.6298C151.403 31.6512 151.319 31.7085 151.265 31.7898L141.328 48.7358C141.296 48.8008 141.284 48.8733 141.291 48.945C141.299 49.0168 141.327 49.085 141.371 49.1419C141.416 49.1988 141.475 49.242 141.543 49.2667C141.611 49.2915 141.684 49.2967 141.755 49.2818C141.85 49.2604 141.934 49.2031 141.988 49.1218Z" fill="black"/>
<path d="M158.334 46.7059C158.742 46.4349 158.36 45.7729 157.948 46.0459L147.688 52.8459C147.28 53.1159 147.663 53.7799 148.075 53.5059L158.334 46.7059Z" fill="black"/>
<path d="M135.266 46.3758L136.366 33.6088C136.409 33.1178 135.643 33.1208 135.601 33.6088L134.501 46.3758C134.458 46.8658 135.224 46.8638 135.266 46.3758Z" fill="black"/>
<path d="M110.717 141.088C111.1 142.07 111.706 142.95 112.487 143.658C113.269 144.366 114.204 144.883 115.219 145.167C116.235 145.452 117.302 145.496 118.338 145.297C119.373 145.098 120.348 144.661 121.186 144.021C122.307 143.164 123.134 141.979 123.551 140.631C123.968 139.283 123.955 137.838 123.514 136.498C123.072 135.158 122.226 133.988 121.09 133.15C119.955 132.312 118.587 131.848 117.177 131.822C115.766 131.797 114.382 132.211 113.217 133.007C111.959 133.882 111.03 135.153 110.577 136.617C110.124 138.081 110.173 139.655 110.717 141.088ZM111.844 135.576C112.507 134.432 113.528 133.538 114.748 133.03C115.968 132.522 117.322 132.428 118.601 132.763C119.88 133.098 121.013 133.843 121.828 134.884C122.643 135.925 123.095 137.204 123.113 138.526C123.133 139.742 122.786 140.937 122.117 141.953C121.447 142.968 120.486 143.758 119.36 144.219C118.234 144.68 116.996 144.791 115.806 144.537C114.616 144.283 113.531 143.675 112.692 142.794C111.795 141.841 111.228 140.625 111.076 139.325C110.923 138.025 111.192 136.711 111.844 135.576Z" fill="black"/>
<path d="M121.687 138.236H117.447V134C117.447 133.898 117.407 133.801 117.335 133.729C117.263 133.657 117.165 133.617 117.064 133.617C116.962 133.617 116.865 133.657 116.793 133.729C116.721 133.801 116.681 133.898 116.681 134V138.24H112.441C112.343 138.244 112.25 138.287 112.182 138.358C112.115 138.429 112.077 138.524 112.078 138.622C112.077 138.72 112.114 138.815 112.182 138.887C112.25 138.958 112.343 139.001 112.441 139.005H116.681V143.245C116.681 143.347 116.721 143.444 116.793 143.516C116.865 143.588 116.962 143.628 117.064 143.628C117.165 143.628 117.263 143.588 117.335 143.516C117.407 143.444 117.447 143.347 117.447 143.245V139H121.687C121.788 139 121.885 138.96 121.957 138.888C122.029 138.816 122.069 138.719 122.069 138.618C122.069 138.517 122.029 138.419 121.957 138.348C121.885 138.276 121.788 138.236 121.687 138.236Z" fill="black"/>
<path d="M75.9409 81.943L58.5849 96.78L73.8729 68.98C74.1109 68.548 73.4509 68.162 73.2129 68.594L57.4599 97.18L54.6149 68.78C54.5679 68.294 53.8009 68.29 53.8499 68.78C55.8209 88.653 56.4719 95.343 56.6979 97.49L36.5199 78.356C36.1629 78.017 35.6199 78.556 35.9789 78.897C52.2609 94.346 55.9429 97.868 56.8079 98.647C57.2309 99.028 57.3509 98.837 57.7549 98.494C60.2389 96.387 76.4199 82.537 76.4819 82.484C76.8569 82.163 76.3139 81.625 75.9409 81.943Z" fill="black"/>
<path d="M94.0429 61.7269C96.4962 59.0445 97.9806 55.6178 98.2592 51.9934C98.5378 48.369 97.5946 44.7557 95.5801 41.7299C93.5656 38.704 90.5958 36.44 87.1445 35.2989C83.6932 34.1577 79.9591 34.2053 76.5379 35.4339C75.2719 29.0471 71.5509 23.412 66.1744 19.7395C60.798 16.067 54.1953 14.6504 47.7856 15.7941C41.3758 16.9378 35.6706 20.5505 31.896 25.8558C28.1215 31.1611 26.5789 37.7354 27.5999 44.1659C24.2829 43.5064 20.8439 43.8666 17.7355 45.1992C14.6271 46.5317 11.995 48.7742 10.1856 51.6314C8.37621 54.4886 7.47425 57.8267 7.59846 61.2064C7.72267 64.5861 8.86721 67.849 10.8815 70.5657C12.8957 73.2824 15.6853 75.3256 18.8831 76.4264C22.0809 77.5272 25.5371 77.6341 28.7968 76.7329C32.0565 75.8317 34.9669 73.9646 37.1451 71.3775C39.3233 68.7904 40.6672 65.6045 40.9999 62.2389C45.3198 64.4024 50.1777 65.2563 54.9764 64.6956C59.775 64.1349 64.3052 62.184 68.0099 59.0829C69.1409 60.9765 70.6451 62.6203 72.4313 63.9143C74.2175 65.2083 76.2482 66.1254 78.3999 66.6099C77.4981 68.3179 77.0156 70.2159 76.9923 72.1472C76.969 74.0785 77.4056 75.9877 78.2659 77.7169C79.1252 79.3666 80.3623 80.7898 81.8762 81.8705C83.3902 82.9512 85.1381 83.6587 86.9775 83.9352C88.8169 84.2118 90.6957 84.0497 92.4605 83.4621C94.2253 82.8744 95.8262 81.8779 97.1326 80.5539C98.4391 79.2298 99.414 77.6157 99.9779 75.8431C100.542 74.0706 100.679 72.1899 100.378 70.3543C100.076 68.5188 99.3455 66.7805 98.2446 65.2812C97.1437 63.7818 95.704 62.564 94.0429 61.7269ZM32.8929 74.0869C30.6762 75.4919 28.1475 76.3293 25.5304 76.5253C22.9132 76.7213 20.288 76.2698 17.8867 75.2107C15.4855 74.1516 13.3819 72.5174 11.7619 70.4525C10.142 68.3877 9.05538 65.9557 8.59817 63.3713C8.14096 60.787 8.3272 58.1298 9.14042 55.6344C9.95365 53.1391 11.3688 50.8825 13.261 49.0638C15.1532 47.2451 17.4641 45.9203 19.9897 45.2065C22.5152 44.4927 25.1777 44.4117 27.7419 44.9709C28.4694 48.5289 29.9678 51.8843 32.1315 54.801C34.2953 57.7176 37.0718 60.1247 40.2659 61.8529C40.0578 64.3212 39.2845 66.7085 38.006 68.8301C36.7275 70.9517 34.978 72.7507 32.8929 74.0879V74.0869ZM35.3079 57.2569C30.7302 52.7997 28.1105 46.7065 28.0253 40.3178C27.94 33.9291 30.3962 27.7682 34.8534 23.1904C39.3107 18.6126 45.4038 15.993 51.7925 15.9077C58.1813 15.8225 64.3422 18.2787 68.9199 22.7359C73.4976 27.1931 76.1171 33.2863 76.2022 39.6749C76.2874 46.0635 73.8312 52.2243 69.3739 56.8019C64.9167 61.3795 58.8236 63.9991 52.435 64.0842C46.0463 64.1693 39.8856 61.7131 35.3079 57.2559V57.2569ZM68.5999 58.5769C72.6657 54.9926 75.4363 50.168 76.4829 44.8499C77.0669 41.9999 77.1289 39.0669 76.6679 36.1949C79.4411 35.1776 82.4471 34.9727 85.3327 35.6043C88.2183 36.236 90.8637 37.6779 92.9584 39.7607C95.053 41.8436 96.5098 44.4808 97.1577 47.3628C97.8056 50.2448 97.6176 53.2519 96.616 56.0308C95.6143 58.8097 93.8405 61.2451 91.5029 63.0509C89.1652 64.8568 86.3608 65.9581 83.419 66.2256C80.4772 66.493 77.5202 65.9155 74.8952 64.5608C72.2702 63.2062 70.0863 61.1306 68.5999 58.5779V58.5769ZM79.6799 78.5769C78.5121 76.8471 77.8477 74.8269 77.7609 72.7416C77.674 70.6563 78.168 68.5878 79.1879 66.7669C79.5539 66.8339 79.9239 66.8849 80.2969 66.9219C82.7001 67.1877 85.1323 66.9116 87.4147 66.1138C89.6971 65.3161 91.7717 64.0169 93.4859 62.3119C95.0107 63.0397 96.3481 64.108 97.3948 65.4343C98.4415 66.7607 99.1697 68.3097 99.5232 69.9619C99.8767 71.6141 99.846 73.3255 99.4336 74.964C99.0212 76.6025 98.2381 78.1245 97.1445 79.4125C96.051 80.7005 94.6763 81.7202 93.1264 82.393C91.5765 83.0658 89.8928 83.3737 88.2051 83.293C86.5174 83.2122 84.8708 82.745 83.3922 81.9274C81.9136 81.1097 80.6425 79.9634 79.6769 78.5769H79.6799Z" fill="black"/>
<path d="M160.575 157.563C132.843 117.374 119.768 98.31 117.944 95.789C117.644 95.368 117.603 95.083 116.86 95.083C72.0349 95.083 74.2139 95.061 74.0779 95.116C73.8149 95.216 74.4689 94.448 65.7409 105.576C64.9038 104.599 63.8285 103.856 62.6195 103.417C61.4104 102.978 60.1084 102.859 58.8399 103.072C57.5713 103.284 56.3789 103.82 55.3782 104.628C54.3775 105.436 53.6024 106.489 53.1279 107.684C52.3579 109.564 52.5679 110.838 52.5919 122.417C45.1589 131.892 23.5539 159.364 22.6679 160.497C22.4719 160.72 22.3679 161.01 22.3789 161.307C22.3239 162.429 22.3589 165.807 22.3589 176.62C22.3589 177.581 22.2149 178.475 23.4029 178.49C24.7799 178.507 80.5119 178.49 87.7719 178.49C87.7719 181.367 87.7719 183.834 87.7789 184.023C87.8039 184.623 88.2389 185.114 89.0109 184.695C89.8109 184.262 98.8109 178.648 99.0449 178.495C137.954 178.495 133.887 178.542 135.133 178.502C135.533 178.776 144.76 184.508 145.002 184.654C145.137 184.77 145.305 184.842 145.482 184.86C145.66 184.878 145.838 184.841 145.994 184.754C146.454 184.461 146.357 184.447 146.349 178.498H160.449C161.085 178.498 162.349 178.786 162.761 178.134C162.911 177.743 162.953 177.32 162.885 176.907C162.885 176.312 162.885 162.855 162.917 162.294C163.028 160.565 162.774 160.749 160.575 157.563ZM53.3859 109.769C53.5463 108.349 54.1486 107.015 55.1078 105.955C56.067 104.895 57.3346 104.164 58.7319 103.863C59.726 103.664 60.7521 103.692 61.734 103.944C62.7159 104.196 63.6284 104.667 64.4036 105.32C65.1788 105.973 65.7967 106.793 66.2116 107.718C66.6265 108.643 66.8275 109.65 66.7999 110.663V132.201C66.7999 132.272 66.8439 132.527 66.7999 132.571C66.7559 132.615 66.3999 132.571 66.3209 132.571C53.0659 132.571 53.4209 132.64 53.3549 132.54C53.2889 132.44 53.3549 132.54 53.3549 113.732C53.3529 112.416 53.2599 111.079 53.3859 109.769ZM24.2069 159.769L52.5939 123.649C52.5939 124.924 52.5939 126.313 52.5879 127.83C52.5719 132.53 52.4599 132.908 52.9469 133.208C53.3049 133.393 52.1819 133.338 65.9599 133.338C66.5449 133.338 67.2429 133.448 67.4889 132.882C67.5909 132.542 67.6169 132.184 67.5649 131.833C67.5649 119.333 67.6589 113.68 67.5219 110.741C67.6119 109.125 67.1519 107.526 66.2169 106.205C74.7289 95.352 74.2409 95.912 74.3409 95.856C74.4059 95.818 116.972 95.856 117.008 95.865C116.653 96.347 66.0579 161.116 65.5819 161.156C65.4819 161.165 23.2249 161.222 23.1239 161.156C23.1349 161.155 24.0669 159.945 24.2069 159.765V159.769ZM98.7669 177.742C98.7019 177.842 99.3109 177.399 88.8669 183.91C88.4449 184.172 88.5479 184.229 88.5369 183.648C88.5369 183.56 88.5219 168.848 88.5769 168.783C88.5969 168.758 98.7769 162.425 98.7769 162.425C98.7769 162.425 98.8249 177.648 98.7669 177.738V177.742ZM99.5469 177.729C99.5549 177.658 99.5709 162.635 99.5469 162.429H134.572C134.553 162.929 134.572 177.614 134.579 177.642C133.256 177.651 127.166 177.725 99.5469 177.725V177.729ZM145.583 183.858C145.578 183.942 145.578 184.026 145.583 184.11C145.556 184.127 135.391 177.803 135.351 177.71C135.337 177.68 135.344 162.481 135.342 162.44C135.642 162.524 145.561 168.74 145.582 168.84C145.603 168.94 145.583 181.414 145.583 183.854V183.858ZM162.126 162.692C162.118 162.898 162.126 171.518 162.126 177.454C162.088 177.564 162.008 177.654 161.904 177.705C161.8 177.756 161.679 177.765 161.569 177.729C161.469 177.748 162.393 177.729 146.353 177.729C146.353 167.696 146.387 168.935 146.325 168.629C146.254 168.283 145.933 168.118 145.659 167.947C137.574 162.911 136.076 161.911 135.645 161.719C135.504 161.671 135.356 161.652 135.208 161.662C132.667 161.642 101.221 161.662 98.8869 161.669C98.3869 161.623 97.8349 162.118 97.2259 162.497C95.2809 163.709 88.3889 167.957 88.1309 168.178C88.0022 168.285 87.9028 168.422 87.8421 168.578C87.7814 168.734 87.7614 168.902 87.7839 169.068C87.7839 169.339 87.7839 173.759 87.7779 177.726C21.2049 177.726 23.6489 177.752 23.5469 177.726C23.0469 177.6 23.1289 177.201 23.1289 176.759C23.1289 164.448 23.1369 162.422 23.1199 161.905C23.3099 161.924 64.8699 161.911 65.4599 161.916C65.7119 161.939 65.9654 161.893 66.1929 161.782C66.4203 161.671 66.613 161.5 66.7499 161.287C67.0659 160.877 117.411 96.687 117.55 96.461C119.103 98.804 161.291 159.733 162.061 161.043C162.194 161.581 162.216 162.141 162.126 162.688V162.692Z" fill="black"/>
</svg>
