<svg width="200" height="200" viewBox="0 0 200 200" fill="none" xmlns="http://www.w3.org/2000/svg">
<path d="M5.36988 86.479L10.3259 86.954L18.1919 87.708L20.0069 87.882C20.5019 87.929 20.4979 87.156 20.0069 87.109L15.0509 86.634L7.18488 85.881L5.36988 85.707C4.87488 85.659 4.87788 86.432 5.36988 86.479Z" fill="#44A2FF"/>
<path d="M21.8158 64.5089L14.4918 61.7909L12.7918 61.1589C12.3248 60.9859 12.1238 61.7329 12.5868 61.9039L17.2218 63.6239L24.5458 66.3429L26.2458 66.9729C26.7128 67.1469 26.9148 66.4009 26.4518 66.2289L21.8158 64.5089Z" fill="#44A2FF"/>
<path d="M80.4419 24.2199C80.5019 24.7079 81.2749 24.7139 81.2139 24.2199L80.6909 19.9669L79.8559 13.1869L79.6639 11.6329C79.6039 11.1459 78.8309 11.1399 78.8919 11.6329L79.4159 15.8869L80.2499 22.6659L80.4419 24.2209V24.2199Z" fill="#44A2FF"/>
<path d="M147.745 39.0699L152.459 31.0589L153.117 29.9389C153.143 29.8952 153.159 29.8468 153.166 29.7967C153.173 29.7465 153.17 29.6954 153.157 29.6464C153.144 29.5974 153.122 29.5515 153.091 29.5112C153.06 29.471 153.022 29.4372 152.978 29.4119C152.889 29.3605 152.784 29.3463 152.685 29.3724C152.586 29.3984 152.502 29.4626 152.45 29.5509C150.877 32.2197 149.305 34.8897 147.736 37.5609L147.078 38.6809C147.033 38.7688 147.023 38.8709 147.051 38.9659C147.079 39.0609 147.142 39.1414 147.228 39.1909C147.313 39.2408 147.414 39.2561 147.51 39.2338C147.607 39.2115 147.69 39.1532 147.745 39.0709V39.0699Z" fill="#44A2FF"/>
<path d="M194.63 86.4079L189.612 86.8969L181.602 87.6759L179.748 87.8559C179.258 87.9039 179.248 88.6759 179.748 88.6289L184.766 88.1409L192.777 87.3609L194.63 87.1809C195.121 87.1329 195.126 86.3599 194.63 86.4079Z" fill="#44A2FF"/>
<path d="M164.725 92.637C164.276 92.7095 163.816 92.6647 163.389 92.507C163.109 92.45 162.828 92.4 162.547 92.346C162.307 92.301 162.068 92.253 161.828 92.21C160.547 91.9818 159.261 91.7871 157.971 91.626C155.771 91.346 153.565 91.126 151.357 90.918C150.002 90.792 148.646 90.686 147.29 90.579C146.724 90.535 146.159 90.488 145.59 90.446C140.45 90.073 135.299 89.819 130.153 89.614C128.547 89.5473 126.94 89.4903 125.333 89.443L124.008 89.402C123.386 89.383 122.764 89.368 122.141 89.351C121.415 89.331 120.688 89.31 119.962 89.292C117.624 89.2333 115.287 89.1856 112.949 89.149L111.396 89.126C110.801 89.118 110.207 89.114 109.612 89.106L109.657 89.149L112.382 91.463L117.075 95.449L117.96 96.2C121.631 96.118 125.301 96.01 128.97 95.878C136.753 95.586 144.547 95.186 152.305 94.478C154.465 94.278 156.622 94.045 158.77 93.741C159.845 93.589 160.918 93.4183 161.988 93.229C162.519 93.1344 163.05 93.0344 163.579 92.929C164.017 92.882 164.446 92.7645 164.847 92.581C164.808 92.6 164.768 92.623 164.725 92.637Z" fill="white"/>
<path d="M76.654 89.2739C74.3636 89.3288 72.0736 89.3965 69.784 89.4769C68.4282 89.5231 67.0725 89.5727 65.717 89.6259C63.912 89.6999 62.107 89.7819 60.302 89.8719C59.956 89.8899 59.61 89.9019 59.265 89.9209C59.155 89.9209 59.045 89.9329 58.936 89.9389C57.1942 90.0309 55.4529 90.1309 53.712 90.2389L53.057 90.2789C51.8859 90.3543 50.7152 90.436 49.545 90.5239L48.203 90.6239C47.35 90.6909 46.497 90.7619 45.643 90.8369C45.41 90.8569 45.176 90.8759 44.943 90.8969C43.814 90.9989 42.686 91.1099 41.557 91.2289C41.14 91.2739 40.723 91.3239 40.306 91.3709C39.484 91.4649 38.664 91.5649 37.845 91.6709C37.327 91.7399 36.809 91.8079 36.292 91.8849C35.462 92.0079 34.634 92.1449 33.808 92.2929L33.574 92.3329C32.916 92.4559 31.753 92.9649 31.157 92.4429C31.0881 92.4112 31.0326 92.3564 31 92.2879C31.0736 92.4127 31.1751 92.5189 31.2966 92.598C31.418 92.6771 31.5561 92.727 31.7 92.7439C32.183 92.8539 32.669 92.9559 33.156 93.0499C34.09 93.2289 35.029 93.3819 35.97 93.5179C37.87 93.7929 39.77 94.0179 41.67 94.2179C45.505 94.6229 49.352 94.9179 53.199 95.1669C60.949 95.6739 68.711 95.9669 76.474 96.1599C77.569 96.1869 78.665 96.2129 79.761 96.2299L80.22 96.2369L81.113 95.4789L86.6 90.8189C87.283 90.2389 87.959 89.6429 88.649 89.0659C84.649 89.1119 80.65 89.1809 76.654 89.2739Z" fill="white"/>
<path d="M156.926 155.538C156.469 154.949 156.012 154.361 155.555 153.774L133.884 125.892L127.872 118.157C126.005 115.757 124.051 113.393 122.246 110.941H132.115C132.584 110.941 133.293 111.086 133.691 110.766C134.661 109.985 133.096 109.053 132.582 108.617L119.546 97.545L117.963 96.2L117.078 95.449L112.385 91.463L109.66 89.149L109.615 89.106L108.467 89.093C102.286 89.026 96.1048 89.016 89.9228 89.062H89.7228C89.3628 89.062 89.0028 89.072 88.6428 89.075C87.9528 89.652 87.2768 90.248 86.5938 90.828L81.1068 95.488L80.2138 96.246L75.7138 100.07L70.1568 104.789C68.4038 106.278 66.6028 107.725 64.8738 109.241C64.5978 109.484 64.2458 109.741 64.2418 110.146C64.2427 110.306 64.2919 110.463 64.3828 110.595C64.4737 110.727 64.6023 110.829 64.7518 110.887C65.328 111 65.9188 111.018 66.5008 110.94H75.9698C67.2368 122.179 58.4998 133.419 49.7618 144.66C47.595 147.447 45.422 150.229 43.2428 153.006C42.7203 153.667 42.2046 154.334 41.6958 155.006C41.4068 155.389 40.8478 155.897 40.9798 156.44C41.1118 156.983 41.5938 157.04 42.0588 157.03C43.0488 157.008 44.0418 157.03 45.0328 157.03H91.1268V146.861C91.1318 146.762 91.1748 146.668 91.2467 146.6C91.3186 146.532 91.4141 146.494 91.5133 146.494C91.6125 146.494 91.708 146.532 91.7799 146.6C91.8518 146.668 91.8948 146.762 91.8998 146.861V157.033H104.294V145.321C104.248 145.02 104.3 144.712 104.443 144.443C104.465 144.414 104.489 144.386 104.515 144.361L104.523 144.352C104.542 144.332 104.562 144.314 104.584 144.298C104.692 144.204 104.826 144.143 104.969 144.125C105.487 144.07 106.009 144.06 106.529 144.096H106.694C107.922 144.114 109.151 144.108 110.38 144.108V133.363C110.38 133.26 110.421 133.162 110.493 133.09C110.565 133.017 110.664 132.976 110.766 132.976C110.869 132.976 110.967 133.017 111.04 133.09C111.112 133.162 111.153 133.26 111.153 133.363V144.112H125.378C125.943 144.112 126.526 144.07 127.089 144.118C127.208 144.128 127.324 144.166 127.426 144.229C127.528 144.292 127.614 144.378 127.677 144.48L127.694 144.509C127.772 144.634 127.814 144.777 127.817 144.924C127.865 145.863 127.865 146.804 127.817 147.743V147.951C127.79 150.978 127.786 154.006 127.804 157.033H145.404C148.299 157.033 151.193 157.036 154.088 157.041C154.831 157.041 155.577 157.059 156.32 157.033C156.72 157.02 157.096 156.948 157.235 156.514C157.273 156.338 157.264 156.156 157.21 155.985C157.156 155.814 157.058 155.66 156.926 155.538ZM102.2 133.272C101.829 134.27 101.319 135.211 100.684 136.066L100.59 136.196C99.5236 137.596 98.1515 138.734 96.5783 139.522C95.0051 140.311 93.2725 140.729 91.5128 140.746C90.9101 140.743 90.3084 140.696 89.7128 140.603C88.3722 140.39 87.0821 139.932 85.9068 139.253C85.8368 139.213 85.7648 139.176 85.6948 139.135L85.6428 139.102C84.1975 138.25 82.9691 137.075 82.0538 135.669C82.0358 135.641 82.0158 135.614 81.9968 135.586C81.9428 135.503 81.8968 135.417 81.8418 135.332C81.1318 134.202 80.6308 132.953 80.3628 131.645C80.2228 130.931 80.1528 130.206 80.1528 129.479C80.1268 128.112 80.3539 126.753 80.8228 125.469C81.1938 124.471 81.7038 123.53 82.3388 122.675C82.3708 122.632 82.4008 122.588 82.4328 122.546C82.5138 122.439 82.5978 122.336 82.6818 122.233C83.7534 120.923 85.1 119.864 86.6264 119.133C88.1527 118.401 89.8213 118.015 91.5138 118C92.1168 118.003 92.7178 118.051 93.3138 118.144C94.6538 118.357 95.9438 118.814 97.1188 119.493C97.1888 119.533 97.2618 119.57 97.3318 119.611C97.3488 119.622 97.3658 119.634 97.3838 119.644C97.8608 119.927 98.3158 120.245 98.7458 120.596C99.6098 121.306 100.36 122.143 100.973 123.079C100.991 123.106 101.011 123.132 101.029 123.16C101.083 123.244 101.129 123.33 101.185 123.415C101.895 124.545 102.396 125.793 102.663 127.101C102.803 127.815 102.874 128.54 102.874 129.268C102.898 130.633 102.669 131.99 102.2 133.272Z" fill="#DAF8FF"/>
<path d="M165.1 84.845C164.407 84.6701 163.682 84.6649 162.987 84.83C164.103 81.98 163.849 78.779 161.149 76.83C159.93 76.0128 158.51 75.5458 157.043 75.4799C155.577 75.4139 154.121 75.7515 152.833 76.456C153.785 74.2459 154.105 71.815 153.757 69.4339C153.252 67.1749 151.895 65.1977 149.969 63.914C145.945 61.143 140.642 62.2039 136.569 64.2689C134.12 65.5374 131.892 67.192 129.969 69.1689C128.433 61.0652 124.736 53.5269 119.269 47.351C116.389 44.0993 113.106 41.2281 109.5 38.807C105.567 36.0536 101.255 33.8844 96.6999 32.367C87.8789 29.567 78.4319 30.832 70.0879 34.577C62.0695 38.1814 55.3322 44.1321 50.7649 51.644C45.9103 59.8169 43.186 69.0782 42.8419 78.578C42.8036 79.5308 42.7953 80.4846 42.8169 81.438C41.3234 80.4808 39.567 80.0168 37.7956 80.1114C36.0241 80.2059 34.3271 80.8543 32.9439 81.9649C31.5486 83.2078 30.596 84.8712 30.2303 86.7036C29.8646 88.536 30.1056 90.4377 30.9169 92.121C30.9359 92.164 30.9519 92.207 30.9719 92.25L30.9909 92.292C31.0233 92.3608 31.0789 92.416 31.1479 92.4479C31.7479 92.9679 32.9069 92.4599 33.5649 92.3379C33.6429 92.3229 33.7209 92.3109 33.7989 92.2969C34.6239 92.1469 35.4519 92.011 36.2829 91.889C36.5569 91.8479 36.8309 91.8029 37.1059 91.7649C37.3489 91.7309 37.5929 91.708 37.8359 91.675C38.6553 91.5669 39.4756 91.4669 40.2969 91.375C40.7139 91.3279 41.1309 91.275 41.5479 91.233C42.6759 91.114 43.8049 91.003 44.9339 90.901L45.0589 90.889C45.2509 90.872 45.4429 90.858 45.6339 90.841C46.4869 90.766 47.3399 90.695 48.1939 90.6279L49.5359 90.528C50.7063 90.4426 51.877 90.3613 53.0479 90.2839L53.7029 90.2429C55.4429 90.1329 57.1839 90.033 58.9269 89.943L59.2559 89.925L59.3959 89.917C59.6959 89.901 59.9959 89.8909 60.2959 89.8759C64.092 89.6852 67.8898 89.5326 71.6889 89.4179C73.3419 89.368 74.9949 89.3209 76.6479 89.278C80.6479 89.1819 84.6449 89.115 88.6389 89.078C88.9989 89.078 89.3589 89.067 89.7189 89.064H89.9189C96.1002 89.017 102.282 89.027 108.463 89.094L109.611 89.108C110.206 89.116 110.8 89.1199 111.395 89.1279L112.948 89.151C115.286 89.1889 117.624 89.2369 119.961 89.2939C120.687 89.312 121.414 89.3329 122.14 89.3529C122.763 89.3699 123.385 89.3849 124.007 89.403L125.332 89.445C132.09 89.652 138.847 89.952 145.589 90.445C146.155 90.4869 146.72 90.534 147.289 90.578C148.273 90.656 149.258 90.7229 150.242 90.8099C150.613 90.8429 150.984 90.8829 151.356 90.917C153.564 91.117 155.77 91.345 157.97 91.625C159.26 91.789 160.547 91.978 161.827 92.209C162.067 92.2519 162.306 92.299 162.546 92.345C162.827 92.399 163.108 92.4449 163.388 92.5049C163.815 92.6627 164.275 92.7074 164.724 92.635C164.767 92.622 164.807 92.6 164.849 92.582L164.907 92.5569C165.542 92.1661 166.077 91.6331 166.471 91C167.07 90.2436 167.451 89.3374 167.571 88.3799C167.646 87.5933 167.439 86.8055 166.986 86.1578C166.533 85.5101 165.865 85.0447 165.1 84.845Z" fill="white"/>
<path d="M127.819 147.743C127.819 147.418 127.819 147.092 127.826 146.767C127.835 146.152 127.843 145.538 127.818 144.924C127.815 144.777 127.772 144.633 127.694 144.509L127.677 144.48C127.614 144.378 127.528 144.292 127.426 144.229C127.324 144.167 127.208 144.128 127.089 144.118C126.526 144.07 125.943 144.112 125.378 144.112H111.153V152.246C111.148 152.345 111.105 152.438 111.033 152.506C110.961 152.574 110.866 152.612 110.767 152.613C110.668 152.613 110.572 152.575 110.5 152.506C110.428 152.438 110.385 152.345 110.38 152.246V144.112C109.151 144.112 107.922 144.118 106.694 144.1H106.529C106.009 144.064 105.487 144.074 104.969 144.129C104.826 144.147 104.692 144.207 104.584 144.302C104.562 144.318 104.542 144.336 104.523 144.356L104.515 144.365C104.352 144.591 104.274 144.867 104.294 145.145V163.845C104.294 164.46 104.281 165.074 104.276 165.689C104.276 165.989 104.276 166.282 104.284 166.579C104.265 166.816 104.308 167.054 104.409 167.27C104.709 167.762 105.349 167.643 105.836 167.643H118.983C121.466 167.643 123.953 167.692 126.436 167.66C126.899 167.653 127.466 167.711 127.725 167.234C127.817 166.996 127.849 166.739 127.818 166.486V161.753C127.818 160.182 127.813 158.61 127.804 157.04C127.791 154.012 127.785 150.984 127.818 147.958L127.819 147.743Z" fill="#44A2FF"/>
<path d="M100.9 187.3C100.901 187.281 100.901 187.263 100.9 187.245L100.884 187.204C100.808 186.96 100.698 186.728 100.556 186.515L99.98 185.515L98.891 183.625L96.745 179.901C95.3035 177.401 93.8632 174.901 92.424 172.401C91.0674 170.041 89.7187 167.676 88.378 165.307C88.2865 165.102 88.1539 164.918 87.9885 164.766C87.823 164.614 87.6282 164.498 87.416 164.425C87.1857 164.372 86.945 164.391 86.7253 164.477C86.5057 164.564 86.3173 164.715 86.185 164.911C85.863 165.381 85.572 165.871 85.314 166.379L84.243 168.237L75.627 183.187C74.927 184.394 74.133 185.57 73.527 186.827C73.3903 187.042 73.32 187.293 73.325 187.548C73.3299 187.803 73.41 188.051 73.555 188.261C73.973 188.774 74.616 188.701 75.212 188.701H92.372C93.785 188.701 95.199 188.696 96.613 188.701C97.313 188.701 98.013 188.719 98.713 188.72C99.287 188.804 99.873 188.738 100.413 188.528C100.597 188.406 100.742 188.232 100.83 188.029C100.917 187.826 100.943 187.602 100.905 187.384C100.905 187.356 100.903 187.328 100.9 187.3Z" fill="#44A2FF"/>
<path d="M102.661 127.1C102.394 125.792 101.893 124.544 101.183 123.414C101.131 123.329 101.083 123.243 101.027 123.159C101.009 123.131 100.989 123.105 100.971 123.078C100.036 121.688 98.8116 120.516 97.3819 119.643C97.3639 119.633 97.3469 119.621 97.3299 119.61C97.2599 119.569 97.1869 119.532 97.1169 119.492C95.942 118.812 94.6522 118.355 93.3119 118.143C92.7163 118.05 92.1146 118.002 91.5119 117.999C89.752 118.016 88.0192 118.434 86.4459 119.223C84.8726 120.012 83.5003 121.15 82.4339 122.55C82.4019 122.592 82.3719 122.636 82.3399 122.679C81.7053 123.534 81.1949 124.475 80.8239 125.473C80.355 126.757 80.1278 128.116 80.1539 129.483C80.1539 130.21 80.2239 130.935 80.3639 131.649C80.6319 132.956 81.1329 134.205 81.8429 135.336C81.8949 135.421 81.9429 135.507 81.9979 135.59C82.0169 135.618 82.0369 135.645 82.0549 135.673C82.9702 137.079 84.1986 138.254 85.6439 139.106L85.6959 139.139C85.7659 139.18 85.8379 139.217 85.9079 139.257C88.3054 140.593 91.0996 141.033 93.7919 140.5C96.3821 139.999 98.706 138.583 100.34 136.512C100.425 136.412 100.509 136.306 100.589 136.2L100.683 136.07C102.111 134.091 102.877 131.71 102.87 129.27C102.871 128.541 102.801 127.815 102.661 127.1Z" fill="#44A2FF"/>
<path d="M111.153 133.363C111.153 133.26 111.112 133.162 111.04 133.09C110.967 133.017 110.869 132.976 110.766 132.976C110.664 132.976 110.566 133.017 110.493 133.09C110.421 133.162 110.38 133.26 110.38 133.363V152.246C110.385 152.345 110.428 152.438 110.5 152.506C110.572 152.575 110.668 152.613 110.767 152.613C110.866 152.613 110.961 152.575 111.033 152.506C111.105 152.438 111.148 152.345 111.153 152.246V133.363Z" fill="#44A2FF"/>
<path d="M99.1998 173.194V160.533C99.1947 160.434 99.1518 160.34 99.0799 160.272C99.0079 160.204 98.9125 160.166 98.8133 160.166C98.714 160.166 98.6186 160.204 98.5466 160.272C98.4747 160.34 98.4318 160.434 98.4268 160.533V173.194C98.4324 173.293 98.4754 173.386 98.5471 173.454C98.6188 173.522 98.7138 173.56 98.8128 173.561C98.912 173.561 99.0073 173.523 99.0793 173.454C99.1513 173.386 99.1944 173.293 99.1998 173.194Z" fill="#44A2FF"/>
<path d="M91.9 146.861C91.9 146.758 91.8592 146.66 91.7868 146.588C91.7143 146.515 91.616 146.474 91.5135 146.474C91.4109 146.474 91.3126 146.515 91.2402 146.588C91.1677 146.66 91.127 146.758 91.127 146.861V158.661C91.1328 158.76 91.1759 158.852 91.2476 158.921C91.3192 158.989 91.4141 159.027 91.513 159.028C91.6121 159.028 91.7075 158.99 91.7795 158.921C91.8515 158.853 91.8946 158.76 91.9 158.661V146.861Z" fill="#44A2FF"/>
<path d="M5.36988 86.479L20.0069 87.879C20.5019 87.926 20.4979 87.153 20.0069 87.106L5.36988 85.707C4.87488 85.659 4.87788 86.432 5.36988 86.479Z" fill="black"/>
<path d="M12.7909 61.1589C12.3239 60.9859 12.1229 61.7329 12.5859 61.9039L26.2459 66.9739C26.7129 67.1469 26.9149 66.4009 26.4519 66.2289L12.7909 61.1589Z" fill="black"/>
<path d="M80.4419 24.2199C80.5019 24.7079 81.2749 24.7139 81.2139 24.2199L79.6639 11.6329C79.6039 11.1459 78.8309 11.1399 78.8919 11.6329L80.4419 24.2209V24.2199Z" fill="black"/>
<path d="M147.745 39.0699L153.117 29.9399C153.143 29.8962 153.16 29.8477 153.167 29.7974C153.173 29.7471 153.17 29.6959 153.157 29.6469C153.13 29.5485 153.065 29.4644 152.978 29.4119C152.889 29.3605 152.784 29.3463 152.685 29.3724C152.586 29.3984 152.502 29.4626 152.45 29.5509L147.078 38.6809C147.033 38.7688 147.023 38.8709 147.051 38.9659C147.079 39.0609 147.142 39.1414 147.228 39.1909C147.313 39.2408 147.414 39.2561 147.51 39.2338C147.607 39.2115 147.69 39.1532 147.745 39.0709V39.0699Z" fill="black"/>
<path d="M194.63 86.4079L179.748 87.8569C179.258 87.9039 179.248 88.6769 179.748 88.6289L194.63 87.1809C195.121 87.1329 195.126 86.3599 194.63 86.4079Z" fill="black"/>
<path d="M162.985 84.83C165.746 77.782 158.77 73.392 152.831 76.46C153.783 74.25 154.102 71.82 153.755 69.438C153.25 67.1789 151.893 65.2017 149.967 63.918C145.943 61.147 140.64 62.208 136.567 64.273C134.118 65.5415 131.89 67.196 129.967 69.173C128.431 61.0692 124.734 53.531 119.267 47.355C113.138 40.5252 105.372 35.3676 96.7 32.368C81.354 27.503 61.1 34.668 50.763 51.644C45.4189 60.6532 42.6683 70.964 42.815 81.438C41.3214 80.4807 39.565 80.0166 37.7936 80.1112C36.0221 80.2057 34.3251 80.8542 32.942 81.965C31.5467 83.2078 30.5941 84.8713 30.2284 86.7037C29.8626 88.5361 30.1037 90.4378 30.915 92.121C30.9817 92.2824 31.0878 92.4247 31.2235 92.5347C31.3592 92.6447 31.5202 92.7191 31.692 92.751C42.161 95.141 69.463 96.093 80.214 96.251L81.107 95.493C69.042 95.265 54.273 94.759 42.168 93.512C39.983 93.287 35.785 92.812 33.624 92.336C38.598 91.436 46.186 90.759 51.248 90.408C51.848 90.367 71.048 89.438 71.688 89.418C73.341 89.366 89.895 89.066 89.981 89.065C96.123 89.02 124.892 89.434 125.334 89.447C134.811 89.737 153.182 90.568 162.534 92.347C162.101 92.454 160.504 92.714 160.059 92.784C149.353 94.47 128.015 95.221 117.081 95.455L117.966 96.206C129.366 95.952 152.398 95.217 163.585 92.937C165.023 92.644 165.323 92.547 166.474 91.005C169.1 87.485 166.679 84.046 162.985 84.83ZM165.562 90.916C165.313 91.2893 164.992 91.6086 164.617 91.855C164.181 92.043 163.36 91.716 162.9 91.628C139.8 87.2 58 87.1 33.463 91.578C33.129 91.639 31.931 92.078 31.633 91.844C30.8752 90.3002 30.6464 88.5499 30.982 86.8632C31.3176 85.1765 32.1989 83.6471 33.49 82.511C34.8519 81.4483 36.5301 80.8716 38.2575 80.8727C39.985 80.8738 41.6624 81.4526 43.023 82.517C43.0817 82.551 43.1483 82.569 43.2161 82.5691C43.2839 82.5693 43.3506 82.5516 43.4094 82.5179C43.4683 82.4842 43.5172 82.4356 43.5514 82.377C43.5855 82.3184 43.6037 82.2518 43.604 82.184C43.4447 77.2809 43.9708 72.3796 45.167 67.622C48.329 54.34 55.534 43.222 67.483 36.729C75.236 32.519 84.483 30.429 93.216 32.252C97.8149 33.3107 102.206 35.1275 106.208 37.628C119.441 45.55 127.274 57.35 129.344 70.079C129.363 70.1433 129.398 70.2017 129.446 70.2487C129.494 70.2956 129.553 70.3294 129.618 70.347C129.683 70.3642 129.751 70.3644 129.816 70.3474C129.881 70.3304 129.941 70.2968 129.989 70.25C133.169 66.872 137.289 64.074 141.915 63.227C144.123 62.757 146.423 63.007 148.479 63.94C149.49 64.4293 150.394 65.1154 151.136 65.9582C151.879 66.8009 152.446 67.7833 152.805 68.848C153.693 71.661 152.753 74.631 151.705 77.26C151.581 77.568 152.005 77.88 152.272 77.696C157.834 73.839 165.481 78.096 161.984 85.219C161.846 85.499 162.078 85.9 162.42 85.786C165.11 84.886 166.768 86.241 166.82 87.967C166.766 89.0686 166.32 90.1147 165.562 90.916Z" fill="black"/>
<path d="M109.61 89.1058L108.41 89.0928L133.224 110.168H121.48C121.412 110.169 121.346 110.187 121.288 110.222C121.23 110.256 121.181 110.305 121.148 110.363C121.114 110.422 121.096 110.488 121.096 110.556C121.096 110.623 121.113 110.69 121.146 110.749C121.421 111.13 118.846 107.793 156.457 156.183C156.303 156.183 129.402 156.261 127.796 156.261V157.033C158.626 157.033 156.541 157.076 156.791 156.982C156.907 156.931 157.009 156.853 157.089 156.755C157.169 156.657 157.224 156.541 157.251 156.417C157.278 156.294 157.274 156.165 157.242 156.043C157.209 155.921 157.148 155.808 157.064 155.714C147.895 143.914 123.341 112.414 122.247 110.943C125.83 110.949 129.416 110.992 132.998 110.943C133.51 110.935 134.053 110.685 133.987 110.074C133.939 109.618 135.2 110.839 109.61 89.1058Z" fill="black"/>
<path d="M41.8308 156.261C41.6978 156.099 40.5248 157.794 77.0308 110.827C77.082 110.77 77.1162 110.7 77.1297 110.625C77.1431 110.549 77.1351 110.472 77.1067 110.401C77.0783 110.329 77.0306 110.268 76.9689 110.222C76.9072 110.177 76.8341 110.15 76.7578 110.144H65.0728C65.0728 110.144 65.8038 109.472 65.9508 109.356C66.4778 108.935 64.1428 110.903 90.0008 88.9819H88.6818C88.5818 89.0649 67.5608 107.092 65.4818 108.749C65.0658 109.08 64.2488 109.541 64.2438 110.149C64.2438 110.735 64.7508 110.936 65.2438 110.942C66.2348 110.956 75.3318 110.942 75.9708 110.942C38.6918 158.853 41.2888 155.49 41.1088 155.8C41.0386 155.904 40.9937 156.023 40.9779 156.147C40.962 156.272 40.9756 156.398 41.0175 156.516C41.0595 156.634 41.1286 156.741 41.2193 156.828C41.31 156.914 41.4198 156.979 41.5398 157.015C41.6728 157.051 37.1318 157.036 104.297 157.036V156.264C78.6048 156.261 41.9128 156.361 41.8308 156.261Z" fill="black"/>
<path d="M127.818 166.094C127.818 163.075 127.834 145.687 127.818 144.924C127.8 144.107 127.175 144.113 126.404 144.112C103.82 144.101 105.031 144.043 104.739 144.191C104.12 144.507 104.285 145.334 104.285 145.911C104.285 148.5 104.279 165.891 104.285 166.662C104.297 167.743 104.542 167.636 105.532 167.636C120.899 167.636 125.471 167.736 126.932 167.604C127.942 167.513 127.818 167.113 127.818 166.094ZM127.026 166.864H105.066C105.066 166.864 105.084 144.935 105.087 144.895C105.135 144.887 127.044 144.852 127.045 144.924C127.065 145.85 127.026 166.864 127.026 166.864Z" fill="black"/>
<path d="M92.4149 172.4C87.9759 164.69 88.1569 164.6 87.4069 164.424C86.3239 164.165 85.8829 165.375 85.3069 166.378C84.9499 166.997 74.1259 185.569 73.5199 186.826C73.3832 187.041 73.3129 187.292 73.3179 187.547C73.3229 187.802 73.4029 188.05 73.5479 188.26C73.9659 188.773 74.6089 188.71 75.2049 188.71C102.075 188.71 99.9789 188.79 100.411 188.528C100.6 188.401 100.748 188.221 100.837 188.011C100.926 187.801 100.951 187.569 100.911 187.345C100.865 186.954 101.322 187.871 92.4149 172.4ZM99.1439 185.624C100.344 187.706 100.096 187.167 100.144 187.447C100.251 188.047 99.5229 187.94 99.1439 187.947C99.1049 187.947 100.263 187.93 75.3929 187.93C74.0629 187.93 73.7679 187.964 74.3989 186.818C74.5599 186.526 86.4119 165.956 86.7109 165.489C86.9309 165.145 87.2399 165.051 87.5159 165.403C87.6859 165.616 86.7779 164.166 99.1439 185.623V185.624Z" fill="black"/>
<path d="M82.6848 122.233C81.2246 124.042 80.3548 126.255 80.1929 128.574C80.031 130.893 80.5847 133.205 81.7794 135.199C82.9741 137.193 84.7521 138.773 86.8731 139.724C88.9942 140.675 91.356 140.952 93.6396 140.518C95.9232 140.083 98.0184 138.958 99.6422 137.295C101.266 135.632 102.34 133.51 102.719 131.216C103.098 128.923 102.764 126.569 101.763 124.471C100.761 122.374 99.139 120.634 97.1168 119.488C94.774 118.169 92.0404 117.722 89.3993 118.224C86.7583 118.726 84.3799 120.146 82.6848 122.233ZM91.5138 118.768C93.7005 118.769 95.8334 119.446 97.6199 120.707C99.4065 121.968 100.759 123.751 101.493 125.811C102.041 127.35 102.226 128.996 102.034 130.619C101.841 132.242 101.275 133.799 100.381 135.167C99.4873 136.535 98.2889 137.678 96.8799 138.506C95.471 139.335 93.8895 139.826 92.2592 139.942C90.6289 140.058 88.9938 139.795 87.4819 139.174C85.9699 138.554 84.6219 137.592 83.5434 136.364C82.4648 135.136 81.6848 133.675 81.2644 132.095C80.844 130.516 80.7945 128.861 81.1198 127.259C81.6203 124.868 82.925 122.722 84.8164 121.177C86.7078 119.632 89.0716 118.781 91.5138 118.768Z" fill="black"/>
<path d="M111.153 133.363C111.153 133.26 111.112 133.162 111.04 133.09C110.967 133.017 110.869 132.976 110.766 132.976C110.664 132.976 110.566 133.017 110.493 133.09C110.421 133.162 110.38 133.26 110.38 133.363V152.246C110.385 152.345 110.428 152.438 110.5 152.506C110.572 152.575 110.668 152.613 110.767 152.613C110.866 152.613 110.961 152.575 111.033 152.506C111.105 152.438 111.148 152.345 111.153 152.246V133.363Z" fill="black"/>
<path d="M99.1998 173.194V160.533C99.1947 160.434 99.1518 160.34 99.0799 160.272C99.0079 160.204 98.9125 160.166 98.8133 160.166C98.714 160.166 98.6186 160.204 98.5466 160.272C98.4747 160.34 98.4318 160.434 98.4268 160.533V173.194C98.4324 173.293 98.4754 173.386 98.5471 173.454C98.6188 173.522 98.7138 173.56 98.8128 173.561C98.912 173.561 99.0073 173.523 99.0793 173.454C99.1513 173.386 99.1944 173.293 99.1998 173.194Z" fill="black"/>
<path d="M91.9 146.861C91.9 146.758 91.8592 146.66 91.7868 146.588C91.7143 146.515 91.616 146.474 91.5135 146.474C91.4109 146.474 91.3126 146.515 91.2402 146.588C91.1677 146.66 91.127 146.758 91.127 146.861V158.661C91.1328 158.76 91.1759 158.852 91.2476 158.921C91.3192 158.989 91.4141 159.027 91.513 159.028C91.6121 159.028 91.7075 158.99 91.7795 158.921C91.8515 158.853 91.8946 158.76 91.9 158.661V146.861Z" fill="black"/>
</svg>
