<svg width="113" height="82" viewBox="0 0 113 82" fill="none" xmlns="http://www.w3.org/2000/svg">
<path fill-rule="evenodd" clip-rule="evenodd" d="M94.5214 37.5349C91.8109 38.1008 89.7186 38.0503 89.7186 38.0503C89.7186 38.0503 82.2695 38.0881 77.0863 33.7452C76.4765 33.2339 75.8639 32.7466 75.3044 32.2205L57.5112 72.4714C56.9825 73.6843 51.6594 82.8945 38.9068 81.9196C38.3249 81.8749 35.2116 81.5213 30.9822 79.4073C30.3752 79.7344 29.7486 80.0354 29.0996 80.3101C26.5653 81.3832 23.7821 81.9196 20.7527 81.9196C17.6394 81.9196 14.8141 81.3595 12.2798 80.2394C9.74555 79.1196 7.56092 77.6118 5.72314 75.7167C3.88535 73.8215 2.47274 71.6807 1.48252 69.2947C0.495091 66.9084 0 64.4491 0 61.9164C0 59.2897 0.523085 56.7834 1.57485 54.3971C2.62381 52.0108 4.08675 49.8877 5.9637 48.0277C7.84064 46.1678 10.0504 44.6922 12.5931 43.6008C15.1386 42.5094 17.9163 41.9638 20.9289 41.9638C24.0422 41.9638 26.8647 42.5372 29.399 43.6842C31.9333 44.8309 34.1095 46.3662 35.9277 48.29C37.7459 50.2138 39.1473 52.3639 40.1376 54.7401C41.125 57.116 41.6201 59.552 41.6201 62.0474C41.6201 64.6572 41.1054 67.1512 40.076 69.5292C39.4298 71.0213 38.6186 72.4128 37.6396 73.7042C39.7627 74.6374 43.0467 74.6909 44.8649 73.9499C47.1698 73.0119 49.016 70.057 50.0482 68.3961L71.4023 20.5484V0H79.6122V20.7519C79.6122 25.2293 82.608 27.7768 83.6458 28.7032C85.243 30.1276 87.7997 30.8109 89.6682 30.8109C91.5368 30.8109 94.0963 30.1276 95.6907 28.7032C96.7285 27.7768 100.144 25.2293 100.144 20.7519V0H108.773V38.0361L100.197 38.0503V35.4564C98.3257 36.5283 96.3117 37.1581 94.5522 37.528V37.5266L94.5214 37.5349ZM94.5438 37.6564L113 82H103.847L101.187 75.6936H80.2472L77.5842 82H68.4344L86.7899 37.8799C88.4822 38.1366 89.7186 38.131 89.7186 38.131C89.7186 38.131 92.0543 38.1789 94.5438 37.6564ZM90.7172 49.0647L83.0444 68.0519H98.3872L90.7172 49.0647ZM30.7724 69.955C31.3011 69.0978 32.1235 67.6651 32.448 66.7079C32.9822 65.1333 33.2508 63.5363 33.2508 61.9164C33.2508 60.2194 32.9682 58.5783 32.4004 56.9936C31.8354 55.4087 31.0157 54.7936 29.9388 53.5676C28.8619 52.3414 27.5528 51.3656 26.0143 50.6399C24.4758 49.914 22.7415 49.5512 20.8142 49.5512C18.8002 49.5512 17.024 49.9285 15.4827 50.6828C13.9414 51.4371 12.6435 52.4458 11.5889 53.709C10.5344 54.9719 9.73438 55.5956 9.18892 57.1601C8.64346 58.7246 8.36931 60.3267 8.36931 61.9667C8.36931 63.664 8.65464 65.3007 9.21968 66.8771C9.78473 68.4534 10.1819 69.0688 11.2477 70.303C12.3134 71.5376 13.6169 72.5178 15.1554 73.2435C16.6967 73.9691 18.4533 74.3322 20.4226 74.3322C21.7513 74.3322 22.1457 74.5623 23.273 74.2323L17.8995 69.436L23.287 63.879L32.7249 71.9022L30.7724 69.955ZM20.9177 18.1754L38.4676 0H42.0173V20.7519C42.0173 21.9811 42.2439 25.0895 42.2551 25.2778C42.3613 27.3282 43.3348 30.0581 47.7293 30.0581C52.6272 30.0581 53.2174 27.2868 53.1727 25.2778C53.1699 25.1179 53.2062 21.673 53.2062 20.7519V0H60.8875L61.307 22.8738C61.307 24.1273 61.2455 25.2956 61.1196 26.3793C60.9966 27.463 60.8007 28.4616 60.5294 29.3756C60.1266 30.6551 59.5672 31.8367 58.8595 32.9205C58.1518 34.0039 57.2231 34.8739 56.244 35.7207C53.7405 37.8912 49.4971 38.1883 47.788 38.1883C46.1236 38.1883 40.932 37.814 38.3893 35.7991C37.4075 35.0208 36.5375 34.1346 35.841 33.0769C35.1445 32.0195 34.599 30.8621 34.1878 29.6107C33.8773 28.6692 33.648 27.2442 33.5137 26.1212C33.3766 24.9984 33.3095 24.1663 33.3095 22.8348V16.788L20.9177 29.2387L8.7861 17.1831V37.9314H0V0H2.94827L20.9177 18.1754Z" fill="white"/>
</svg>
