<svg width="145" height="99" viewBox="0 0 145 99" fill="none" xmlns="http://www.w3.org/2000/svg">
<path fill-rule="evenodd" clip-rule="evenodd" d="M121.239 45.391C117.762 46.072 115.078 46.0111 115.078 46.0111C115.078 46.0111 105.524 46.0567 98.8752 40.8308C98.0931 40.2156 97.3073 39.6292 96.5897 38.9962L73.7671 87.4307C73.089 88.8903 66.2613 99.973 49.904 98.7999C49.1578 98.7461 45.1644 98.3206 39.7395 95.7768C38.9609 96.1703 38.1572 96.5326 37.3249 96.8631C34.0742 98.1544 30.5043 98.7999 26.6186 98.7999C22.6253 98.7999 19.0015 98.1259 15.7508 96.7781C12.5002 95.4306 9.69807 93.6163 7.34082 91.3358C4.98357 89.0554 3.17167 86.4793 1.90156 83.6081C0.635031 80.7367 0 77.7773 0 74.7297C0 71.569 0.670938 68.553 2.01999 65.6816C3.36545 62.8101 5.2419 60.2553 7.64938 58.0172C10.0569 55.7791 12.8913 54.0036 16.1527 52.6902C19.4177 51.3769 22.9805 50.7204 26.8446 50.7204C30.8379 50.7204 34.4581 51.4104 37.7088 52.7906C40.9594 54.1705 43.7508 56.0179 46.0829 58.3328C48.4151 60.6478 50.2126 63.235 51.4827 66.0943C52.7492 68.9533 53.3843 71.8846 53.3843 74.8873C53.3843 78.0278 52.7241 81.0288 51.4038 83.8903C50.5749 85.6858 49.5345 87.3603 48.2787 88.9141C51.0019 90.0371 55.2141 90.1015 57.5462 89.2098C60.5027 88.0811 62.8707 84.5254 64.1946 82.5268L91.5846 24.9509V0.224609H102.115V25.1957C102.115 30.5835 105.958 33.6489 107.289 34.7637C109.338 36.4777 112.617 37.3 115.014 37.3C117.41 37.3 120.693 36.4777 122.738 34.7637C124.069 33.6489 128.45 30.5835 128.45 25.1957V0.224609H139.519V45.9941L128.518 46.0111V42.8899C126.118 44.1797 123.535 44.9376 121.278 45.3828V45.381L121.239 45.391ZM121.267 45.5372L144.94 98.8966H133.201L129.789 91.3081H102.93L99.5139 98.8966H87.7778L111.322 45.8062C113.492 46.115 115.078 46.1083 115.078 46.1083C115.078 46.1083 118.074 46.1659 121.267 45.5372ZM116.359 59.2651L106.517 82.1126H126.197L116.359 59.2651ZM39.4704 84.4027C40.1485 83.3712 41.2034 81.6472 41.6196 80.4954C42.3049 78.6007 42.6493 76.6789 42.6493 74.7297C42.6493 72.6877 42.2869 70.7129 41.5586 68.806C40.8338 66.8988 39.7826 66.1587 38.4012 64.6835C37.0199 63.2079 35.3408 62.0337 33.3674 61.1605C31.3941 60.287 29.1696 59.8504 26.6975 59.8504C24.1142 59.8504 21.8359 60.3044 19.859 61.2121C17.8821 62.1198 16.2173 63.3335 14.8646 64.8536C13.512 66.3733 12.4859 67.1237 11.7862 69.0064C11.0866 70.889 10.735 72.8168 10.735 74.7902C10.735 76.8326 11.1009 78.8021 11.8257 80.699C12.5504 82.5958 13.0599 83.3363 14.4269 84.8215C15.7939 86.307 17.4659 87.4866 19.4392 88.3598C21.4161 89.2329 23.6693 89.6699 26.1952 89.6699C27.8994 89.6699 28.4054 89.9467 29.8513 89.5496L22.9589 83.7782L29.8692 77.0913L41.9748 86.7458L39.4704 84.4027ZM26.8303 22.0954L49.3407 0.224609H53.8938V25.1957C53.8938 26.6748 54.1844 30.4152 54.1987 30.6419C54.3351 33.1091 55.5837 36.3941 61.2203 36.3941C67.5027 36.3941 68.2597 33.0593 68.2023 30.6419C68.1987 30.4494 68.2454 26.3041 68.2454 25.1957V0.224609H78.0977L78.6359 27.749C78.6359 29.2574 78.557 30.6632 78.3955 31.9673C78.2377 33.2714 77.9865 34.473 77.6385 35.5728C77.1218 37.1124 76.4042 38.5343 75.4965 39.8384C74.5887 41.1421 73.3976 42.1889 72.1418 43.208C68.9306 45.8197 63.4878 46.1773 61.2956 46.1773C59.1608 46.1773 52.5017 45.7268 49.2403 43.3023C47.9809 42.3658 46.8651 41.2994 45.9717 40.0266C45.0783 38.7542 44.3787 37.3615 43.8513 35.8557C43.453 34.7228 43.1588 33.0081 42.9866 31.6567C42.8108 30.3056 42.7247 29.3043 42.7247 27.7021V20.4259L26.8303 35.4081L11.2696 20.9013V45.8681H0V0.224609H3.78161L26.8303 22.0954Z" fill="white"/>
</svg>
