<svg width="221" height="35" viewBox="0 0 221 35" fill="none" xmlns="http://www.w3.org/2000/svg">
<path d="M23.637 28.0839L23.9325 34.1892H0L17.1368 3.66273H10.0457C6.20472 3.66273 2.3637 7.02064 1.18185 7.63117H0.886387V1.52588H24.8189L7.68203 32.0523H15.0686C18.6142 32.3576 22.7506 28.6944 23.637 28.0839Z" fill="white"/>
<path d="M48.456 31.4431C48.1605 33.2747 46.6832 34.4957 44.615 34.4957C42.2513 34.4957 40.774 33.2747 40.4785 31.1378C39.2966 32.9694 37.2284 34.801 33.9783 34.801C29.2509 34.801 26.8872 31.4431 26.8872 27.7799C26.8872 22.8957 31.9101 19.8431 37.5239 20.7589C38.4103 20.7589 39.5921 21.0641 40.4785 21.3694V18.622C40.4785 15.2641 39.2966 13.4325 37.5239 13.4325C34.8647 13.4325 29.5464 18.0115 28.66 18.9273H28.3645V13.1272C31.9101 11.9062 35.4556 11.2957 37.8193 11.2957C43.1377 11.2957 45.7968 14.3483 45.7968 18.622V28.6957C45.5014 31.1378 46.3878 32.0536 48.456 31.4431ZM39.8876 29.6115V22.2852C39.5921 22.2852 39.2966 22.2852 39.0012 22.2852C34.2738 21.3694 31.9101 23.8115 31.9101 26.8641C31.9101 29.6115 33.6829 31.4431 36.0466 31.4431C37.8193 31.4431 39.0012 30.8326 39.8876 29.6115Z" fill="white"/>
<path d="M67.9565 28.3896L68.252 34.1897H49.6378L61.4563 13.4317H58.2062C54.9561 13.4317 51.4106 16.7896 50.5242 17.4001H50.2287V11.6001H68.8429L57.0244 32.3581H60.2745C63.82 32.3581 67.3656 29.0002 67.9565 28.3896Z" fill="white"/>
<path d="M90.4117 27.7799C89.2298 31.1378 85.9797 34.4957 80.9569 34.4957C75.6385 34.4957 70.3202 30.5273 70.3202 22.8957C70.3202 15.5694 74.7521 11.2957 80.9569 11.2957C87.457 11.2957 90.7071 16.4851 90.7071 22.2852H76.2294C76.5249 27.1694 78.8886 30.8326 83.3206 30.8326C85.9797 30.8326 88.048 29.9168 90.4117 27.7799ZM76.5249 21.0641L85.3888 20.1483C85.3888 16.4852 84.2069 13.1272 81.2523 13.1272C77.7068 12.822 76.2295 16.7904 76.5249 21.0641Z" fill="white"/>
<path d="M93.3662 33.8847C93.6617 32.969 94.5481 30.2216 94.5481 27.1689V7.93728C94.5481 5.1899 93.6617 2.13725 93.3662 1.52672V1.22146L99.8664 0.305664V27.1689C99.8664 29.9163 100.753 32.969 101.048 33.8847V34.19L93.3662 33.8847Z" fill="white"/>
<path d="M123.504 27.7799C122.322 31.1378 119.072 34.4957 114.049 34.4957C108.73 34.4957 103.412 30.5273 103.412 22.8957C103.412 15.5694 107.844 11.2957 114.049 11.2957C120.549 11.2957 123.799 16.4851 123.799 22.2852H109.321C109.617 27.1694 111.981 30.8326 116.412 30.8326C118.776 30.8326 120.844 29.9168 123.504 27.7799ZM109.321 21.0641L118.185 20.1483C118.185 16.4852 117.003 13.1272 114.049 13.1272C110.503 12.822 109.321 16.7904 109.321 21.0641Z" fill="white"/>
<path d="M148.322 33.8848L140.936 34.1901V33.8848C140.936 32.969 142.118 30.2216 142.118 27.169V19.5374C142.118 16.1795 140.049 14.6532 137.981 14.6532C136.504 14.6532 134.731 15.2637 133.254 16.79V27.169C133.254 29.9164 134.14 32.969 134.14 33.8848V34.1901H126.754V33.8848C127.049 32.969 127.935 30.2216 127.935 27.169V18.3163C127.935 15.569 127.049 12.5163 126.754 11.6005V11.2953H133.254V15.2637C134.731 12.8216 137.095 10.99 140.345 10.99C144.186 10.99 147.436 13.4321 147.436 18.6216V27.169C147.14 30.2216 148.027 33.2743 148.322 33.8848Z" fill="white"/>
<path d="M151.277 3.66317C151.277 1.52632 152.754 0 154.823 0C156.891 0 158.368 1.52632 158.368 3.66317C158.368 5.80002 156.595 7.32634 154.823 7.32634C153.05 7.32634 151.277 5.80002 151.277 3.66317ZM151.277 33.8843C151.277 32.9686 152.459 30.2212 152.459 27.1685V18.3159C152.459 15.5685 151.573 12.5158 151.277 11.6V11.2948H157.777V27.1685C157.777 29.9159 158.664 32.9686 158.959 33.8843V34.1896L151.277 33.8843Z" fill="white"/>
<path d="M196.187 33.8848L188.801 34.1901V33.8848C189.096 32.969 189.983 30.2216 189.983 27.169V19.5374C189.983 16.1795 187.914 14.9584 185.846 14.9584C184.664 14.9584 183.187 15.569 182.005 16.4847C182.005 17.0953 182.301 18.0111 182.301 18.6216V27.169C182.301 29.9164 183.187 32.969 183.483 33.8848V34.1901H176.096V33.8848C176.391 32.969 177.278 30.2216 177.278 27.169V19.5374C177.278 16.1795 175.21 14.9584 173.141 14.9584C171.959 14.9584 170.778 15.569 169.596 16.4847V27.169C169.596 29.9164 170.482 32.969 170.482 33.8848V34.1901H163.096V33.8848C163.391 32.969 164.277 30.2216 164.277 27.169V18.3163C164.277 15.569 163.391 12.5163 163.096 11.6005V11.2953H169.596V14.9584C171.369 12.5163 173.437 10.99 176.096 10.99C178.755 10.99 181.414 12.211 182.301 15.2637C184.073 12.5163 186.142 10.99 189.392 10.99C192.937 10.99 196.187 13.4321 196.187 18.6216V27.169C195.006 30.2216 195.892 33.2743 196.187 33.8848Z" fill="white"/>
<path d="M198.256 22.59C198.256 14.9584 203.279 10.99 209.483 10.99C215.393 10.99 220.711 14.9584 220.711 22.59C220.711 30.2216 215.688 34.4953 209.483 34.4953C203.574 34.4953 198.256 30.2216 198.256 22.59ZM214.506 22.59C214.506 17.4005 212.733 12.8216 209.483 12.8216C205.938 12.8216 204.46 17.7058 204.46 22.59C204.46 27.7795 205.938 32.6638 209.483 32.6638C213.029 32.6638 214.506 27.7795 214.506 22.59Z" fill="white"/>
</svg>
