<svg width="22" height="22" viewBox="0 0 22 22" fill="none" xmlns="http://www.w3.org/2000/svg">
<g clip-path="url(#clip0_2027_4049)">
<path d="M11 0C4.92479 0 0 4.92479 0 11C0 17.0752 4.92479 22 11 22C17.0752 22 22 17.0752 22 11C22 4.92479 17.0752 0 11 0ZM8.30729 15.5593H6.07979V8.39094H8.30729V15.5593ZM7.17979 7.51094C6.47625 7.51094 6.02135 7.0125 6.02135 6.39604C6.02135 5.76698 6.49 5.28344 7.20844 5.28344C7.92687 5.28344 8.36687 5.76698 8.38062 6.39604C8.38062 7.0125 7.92687 7.51094 7.17979 7.51094ZM16.4427 15.5593H14.2152V11.5867C14.2152 10.662 13.8921 10.0341 13.0866 10.0341C12.4712 10.0341 12.1057 10.4592 11.9442 10.8682C11.8846 11.0137 11.8697 11.22 11.8697 11.4251V15.5581H9.64104V10.6769C9.64104 9.78198 9.6124 9.03375 9.5826 8.38979H11.5179L11.6199 9.38552H11.6646C11.9579 8.91802 12.6764 8.22823 13.8783 8.22823C15.3439 8.22823 16.4427 9.21021 16.4427 11.3208V15.5593Z" fill="#0B0B0B"/>
</g>
<defs>
<clipPath id="clip0_2027_4049">
<rect width="22" height="22" fill="white"/>
</clipPath>
</defs>
</svg>
