<svg width="200" height="200" viewBox="0 0 200 200" fill="none" xmlns="http://www.w3.org/2000/svg">
<path d="M56.433 43.1001C56.266 42.9761 57.054 43.0151 49.245 43.0151L56.532 49.6241C56.532 42.6941 56.57 43.2601 56.433 43.1001Z" fill="#DAF8FF"/>
<path d="M47.337 42.7801H44.573C44.4272 42.7816 44.2877 42.8401 44.1844 42.943C44.0811 43.046 44.0221 43.1852 44.02 43.3311C44.02 43.3311 44.034 54.4881 44.038 54.9751C44.0393 55.121 44.0979 55.2607 44.2011 55.3639C44.3043 55.4672 44.444 55.5257 44.59 55.5271C47.985 55.5481 55.747 55.5141 56.233 55.5101C56.3791 55.5082 56.5187 55.4494 56.622 55.3461C56.7253 55.2428 56.7842 55.1032 56.786 54.9571C56.793 53.7481 56.786 52.5381 56.78 51.3291L47.337 42.7791V42.7801ZM45.137 54.4251L45.121 43.8871L48.538 43.8821L55.672 50.3301V54.4101C36.98 54.4101 51.583 54.4151 45.142 54.4251H45.137Z" fill="#44A2FF"/>
<path d="M45.126 103.694L51.147 103.685L52.365 102.579L44.573 102.59C44.4177 102.606 44.2725 102.675 44.161 102.784C43.945 103.008 44.047 102.526 44.031 110.148C44.398 109.814 44.762 109.48 45.131 109.148L45.126 103.694Z" fill="#44A2FF"/>
<path d="M56.452 102.931C56.339 102.76 56.346 102.822 53.743 102.818L44.243 111.443C44.251 111.875 44.274 114.786 44.274 114.786C44.2751 114.868 44.3083 114.947 44.3667 115.005C44.425 115.063 44.5038 115.096 44.586 115.096C47.981 115.118 56.229 115.079 56.229 115.079C56.3097 115.077 56.3863 115.043 56.4424 114.985C56.4985 114.927 56.5296 114.849 56.529 114.768C56.617 103.307 56.605 103.1 56.452 102.931Z" fill="#DAF8FF"/>
<path d="M115.127 87.7001C122.582 72.5141 116.108 52.8571 104.636 49.5891C96.641 47.3121 89.828 53.2361 86.63 60.8731C83.02 69.4901 83.241 80.6101 88.082 89.1151C95.083 101.417 108.68 100.833 115.127 87.7001ZM85.734 73.5401C85.734 65.1931 90.502 58.4271 96.385 58.4271C102.268 58.4271 107.036 65.1931 107.036 73.5401C107.036 81.8871 102.267 88.6541 96.385 88.6541C90.503 88.6541 85.734 81.8871 85.734 73.5401Z" fill="#44A2FF"/>
<path d="M110.259 44.7139C108.2 43.6359 105.932 43.016 103.611 42.8967C101.289 42.7775 98.9698 43.1616 96.811 44.0229C86.86 48.0229 81.676 60.3799 81.122 71.1919C80.547 82.4199 84.408 95.4189 93.844 101.526C101.737 106.634 111.98 104.556 118.498 94.7259C129.353 78.3689 124.778 52.2639 110.259 44.7139ZM119.175 77.4639C118.275 86.2639 113.325 96.2189 104.855 98.5789C96.385 100.939 89.1 94.8569 85.676 86.7659C81.843 77.6999 82.106 66.1659 87.176 57.3259C92.263 48.4609 100.735 46.0459 107.506 49.5559C115.612 53.7559 119.435 64.4349 119.393 73.5399C119.383 74.851 119.311 76.1608 119.175 77.4649V77.4639Z" fill="#44A2FF"/>
<path d="M114.388 91.1571C123.57 77.3571 119.458 55.7571 107.504 49.5571C100.732 46.0461 92.26 48.4621 87.174 57.3271C82.113 66.1501 81.837 77.6861 85.674 86.7661C91.778 101.2 106.321 103.285 114.388 91.1561V91.1571ZM94.218 51.2571C100.369 47.2211 108.396 48.8051 113.536 56.6361C122.297 69.9851 118.284 90.6051 107.052 96.5191C100.872 99.7721 92.952 97.6761 88.082 89.1191C80.656 76.0671 84.35 57.7291 94.218 51.2531V51.2571Z" fill="black"/>
<path d="M178.314 119.541C178.396 110.596 178.554 114.883 178.374 103.921C178.379 96.7365 175.627 89.8238 170.686 84.6079C165.745 79.3921 158.991 76.2707 151.817 75.8871C144.642 75.5042 137.594 77.8889 132.126 82.5495C126.657 87.2101 123.186 93.7913 122.427 100.936C121.983 105.094 122.627 105.221 122.441 113.696C125.515 114.011 128.62 113.651 131.541 112.642C139.995 108.991 145.341 101.133 145.679 100.882C145.735 100.832 145.807 100.806 145.882 100.808C145.957 100.811 146.027 100.843 146.079 100.897C146.091 100.91 161.436 116.242 163.888 118.707C163.937 118.756 163.968 118.819 163.977 118.887C163.985 118.955 163.972 119.025 163.937 119.084C161.1 123.069 157.75 126.664 153.975 129.775C178.793 129.775 178.243 129.755 178.343 129.782C178.407 129.78 178.469 129.801 178.517 129.842C178.566 129.883 178.598 129.94 178.607 130.003C178.7 130.469 178.246 126.829 178.314 119.541ZM171.922 105.072C170.212 109.683 167.904 114.048 165.056 118.057C164.981 118.183 164.86 118.274 164.719 118.311C164.577 118.349 164.427 118.329 164.3 118.257C164.174 118.182 164.083 118.061 164.045 117.92C164.008 117.779 164.028 117.628 164.1 117.501C166.901 113.576 169.172 109.299 170.855 104.781C171.1 104.117 172.17 104.405 171.922 105.072ZM150.191 95.3471C149.263 97.0282 148.219 98.6428 147.067 100.179C146.991 100.304 146.87 100.394 146.729 100.431C146.588 100.469 146.438 100.45 146.311 100.379C146.248 100.343 146.193 100.294 146.148 100.237C146.104 100.179 146.072 100.113 146.053 100.043C146.035 99.9725 146.03 99.8992 146.04 99.8271C146.05 99.7551 146.074 99.6857 146.111 99.6231C147.263 98.0864 148.307 96.4715 149.235 94.7901C149.58 94.1661 150.534 94.7241 150.191 95.3471Z" fill="white"/>
<path d="M143.883 136.295C142.757 136.773 141.595 137.162 140.408 137.46C133.372 139.288 126.011 139.488 118.886 138.045C116.519 146.474 114.848 148.68 114.333 156.389C113.883 163.124 117.319 169.709 123.745 171.257C126.955 171.974 130.316 171.502 133.204 169.927C139.647 166.546 142.928 159.502 145.832 153.227C146.801 151.132 147.758 149.032 148.705 146.927C147.041 143.409 145.434 139.864 143.883 136.295ZM119.914 149.078L120.389 146.088C120.428 145.947 120.522 145.827 120.649 145.755C120.777 145.683 120.928 145.664 121.069 145.702C121.208 145.744 121.325 145.839 121.397 145.965C121.469 146.091 121.489 146.24 121.455 146.381L120.98 149.372C120.941 149.513 120.847 149.633 120.72 149.706C120.592 149.778 120.441 149.797 120.3 149.758C120.161 149.716 120.043 149.622 119.971 149.495C119.899 149.369 119.879 149.219 119.914 149.078Z" fill="#DAF8FF"/>
<path d="M150.583 64.2421C150.578 64.2112 150.57 64.181 150.558 64.1521C150.562 64.1939 150.557 64.2361 150.544 64.276C150.53 64.3158 150.509 64.3525 150.481 64.3836C150.453 64.4147 150.418 64.4396 150.38 64.4568C150.342 64.4739 150.3 64.4829 150.258 64.4831H140.658C140.617 64.4832 140.577 64.4749 140.539 64.4587C140.502 64.4426 140.468 64.419 140.44 64.3893C140.412 64.3596 140.39 64.3245 140.376 64.2861C140.362 64.2477 140.356 64.2069 140.358 64.1661C140.358 64.1891 140.341 64.2101 140.334 64.2421C140.191 65.34 140.405 66.4547 140.944 67.4218C141.482 68.389 142.318 69.1572 143.327 69.6131C144.165 69.9928 145.09 70.1417 146.005 70.0443C146.92 69.9468 147.792 69.6067 148.532 69.0591C149.271 68.5114 149.851 67.7761 150.211 66.9292C150.571 66.0824 150.699 65.1547 150.58 64.2421H150.583Z" fill="white"/>
<path d="M184.436 153.848C183.783 149.213 183.466 148.603 181.813 142.898C180.143 137.136 179.387 133.816 178.605 129.998C178.596 129.935 178.564 129.878 178.515 129.837C178.467 129.796 178.405 129.774 178.341 129.777C178.241 129.75 178.822 129.77 153.973 129.77C150.914 132.381 147.521 134.574 143.883 136.29C146.576 142.521 152.077 154.482 155.623 160.649C157.353 163.704 159.695 166.368 162.502 168.477C165.276 170.526 168.64 171.618 172.088 171.589C175.207 171.494 178.186 170.276 180.478 168.159C182.769 166.042 184.219 163.168 184.561 160.067C184.79 157.997 184.748 155.907 184.436 153.848ZM157.29 152.463C157.227 152.5 157.158 152.524 157.086 152.534C157.014 152.544 156.941 152.539 156.87 152.521C156.8 152.502 156.734 152.47 156.676 152.426C156.619 152.381 156.57 152.326 156.534 152.263L154.698 148.347C154.626 148.22 154.606 148.07 154.644 147.928C154.681 147.787 154.772 147.666 154.898 147.591C155.025 147.519 155.176 147.499 155.317 147.536C155.458 147.574 155.579 147.665 155.654 147.791C156.266 149.097 156.878 150.403 157.491 151.708C157.561 151.836 157.58 151.985 157.542 152.126C157.505 152.267 157.414 152.388 157.29 152.463Z" fill="#DAF8FF"/>
<path d="M147.1 59.992C146.026 59.6335 144.865 59.6376 143.794 60.0036C142.723 60.3697 141.802 61.0774 141.172 62.018C140.755 62.6424 140.479 63.3501 140.363 64.092C140.344 64.345 140.481 64.476 140.646 64.486H150.265C150.432 64.491 150.581 64.362 150.565 64.093C150.414 63.1594 150.011 62.2846 149.401 61.5622C148.791 60.8398 147.995 60.297 147.1 59.992Z" fill="black"/>
<path d="M132.134 63.4819C131.992 63.4888 131.858 63.5499 131.76 63.6526C131.661 63.7553 131.606 63.8917 131.605 64.0339C131.606 64.1763 131.661 64.313 131.759 64.4159C131.858 64.5188 131.992 64.58 132.134 64.5869H138.177C138.319 64.5803 138.454 64.5191 138.552 64.4162C138.651 64.3132 138.706 64.1764 138.706 64.0339C138.705 63.8917 138.65 63.755 138.552 63.6523C138.453 63.5496 138.319 63.4886 138.177 63.4819H132.134Z" fill="black"/>
<path d="M105.854 105.617C105.853 105.535 105.82 105.456 105.761 105.398C105.703 105.34 105.625 105.307 105.543 105.306H98.694C98.6118 105.307 98.5333 105.34 98.4752 105.398C98.4171 105.456 98.384 105.535 98.383 105.617V108.341C100.606 109.183 101.565 110.062 103.802 110.179C104.995 110.121 105.221 108.946 105.232 107.95C105.234 107.866 105.268 107.787 105.327 107.728C105.388 107.671 105.468 107.639 105.552 107.64C105.662 107.658 105.77 107.686 105.875 107.722C105.886 106.213 105.856 105.93 105.854 105.617Z" fill="black"/>
<path d="M98.383 130.244V137.5C98.3629 138.246 98.5633 138.981 98.9591 139.613C99.3549 140.245 99.9285 140.747 100.608 141.055C101.283 141.355 102.032 141.448 102.759 141.323C103.487 141.197 104.161 140.857 104.696 140.348C105.051 140.009 105.335 139.604 105.533 139.155C105.966 138.18 105.855 137.607 105.854 133.948C103.24 132.979 100.736 131.738 98.383 130.244Z" fill="black"/>
<path d="M149.237 94.789C148.309 96.4704 147.265 98.0853 146.113 99.622C146.039 99.7488 146.019 99.8996 146.056 100.041C146.094 100.183 146.186 100.304 146.313 100.378C146.44 100.449 146.59 100.468 146.731 100.43C146.872 100.393 146.993 100.303 147.069 100.178C148.221 98.6417 149.265 97.0271 150.193 95.346C150.534 94.724 149.58 94.165 149.237 94.789Z" fill="black"/>
<path d="M164.3 118.255C164.427 118.326 164.577 118.345 164.718 118.307C164.859 118.27 164.98 118.18 165.056 118.055C167.904 114.046 170.212 109.681 171.922 105.07C172.17 104.403 171.103 104.115 170.857 104.777C169.174 109.297 166.902 113.575 164.1 117.5C164.027 117.627 164.006 117.777 164.044 117.919C164.081 118.06 164.174 118.181 164.3 118.255Z" fill="black"/>
<path d="M163.886 118.707C163.296 118.113 146.086 100.907 146.077 100.897C146.025 100.843 145.955 100.811 145.88 100.808C145.805 100.806 145.733 100.832 145.677 100.882C145.335 101.134 139.959 109.006 131.539 112.642C128.82 113.592 125.934 113.965 123.063 113.737C119.628 113.493 116.004 113.211 112.901 111.67C109.619 110.04 109.054 108.499 105.627 107.65C105.546 107.63 105.461 107.643 105.389 107.685C105.317 107.727 105.265 107.796 105.243 107.876C105.194 108.068 105.378 110.102 103.803 110.176C101.153 110.038 99.961 108.686 97.293 107.994C95.172 107.444 93.738 109.808 94.426 111.767C94.588 112.141 94.81 112.485 95.083 112.788C95.337 113.106 95.843 113.735 95.219 113.957C94.7925 114.041 94.3749 114.166 93.972 114.329C92.654 115.122 92.045 117.153 93.724 119.553C93.772 119.62 93.812 119.691 93.846 119.766C93.735 119.966 93.046 120.486 92.725 120.851C92.2243 121.41 91.9559 122.139 91.9745 122.889C91.9931 123.64 92.2973 124.354 92.825 124.888C95.3051 128.24 98.637 130.868 102.475 132.498C115.224 138.175 126.475 140.97 140.41 137.457C144.927 136.318 148.754 133.843 152.463 130.979C156.855 127.602 160.722 123.591 163.937 119.079C163.97 119.02 163.983 118.952 163.973 118.885C163.964 118.818 163.934 118.755 163.886 118.707ZM133.33 135.688C133.311 135.618 133.305 135.545 133.315 135.473C133.324 135.401 133.347 135.332 133.383 135.269C133.419 135.206 133.466 135.15 133.524 135.106C133.581 135.061 133.646 135.028 133.716 135.009C135.26 134.799 136.769 134.388 138.206 133.786C138.347 133.747 138.498 133.766 138.626 133.838C138.689 133.874 138.745 133.922 138.789 133.979C138.834 134.036 138.867 134.102 138.886 134.172C138.92 134.313 138.9 134.462 138.828 134.588C138.756 134.714 138.639 134.808 138.5 134.851C137.063 135.454 135.554 135.865 134.01 136.074C133.869 136.11 133.719 136.09 133.592 136.018C133.466 135.946 133.372 135.828 133.33 135.688ZM96.844 120.764L98.223 121.918C98.77 122.375 97.984 123.152 97.442 122.699L96.063 121.545C95.516 121.088 96.3 120.311 96.844 120.764ZM99.269 116.498L97.919 115.311C97.384 114.841 98.169 114.062 98.701 114.53L100.051 115.717C100.586 116.187 99.8 116.966 99.269 116.5V116.498Z" fill="white"/>
<path d="M194.853 179.262C190.665 175.979 185.495 174.199 180.174 174.207C174.852 174.216 169.688 176.013 165.511 179.31C165.285 179.483 165.478 179.85 165.731 179.841H194.7C194.767 179.838 194.831 179.813 194.883 179.772C194.935 179.73 194.973 179.673 194.99 179.608C195.007 179.543 195.002 179.475 194.977 179.413C194.953 179.351 194.909 179.298 194.853 179.262Z" fill="black"/>
<path d="M134.454 179.262C130.266 175.979 125.096 174.199 119.775 174.207C114.453 174.216 109.289 176.013 105.112 179.31C105.071 179.34 105.04 179.382 105.023 179.43C105.007 179.478 105.005 179.53 105.019 179.579C105.028 179.611 105.043 179.641 105.064 179.668C105.086 179.721 105.123 179.765 105.171 179.796C105.219 179.827 105.275 179.843 105.332 179.841H134.3C134.35 179.839 134.399 179.825 134.442 179.8C134.485 179.775 134.522 179.741 134.549 179.699C134.577 179.657 134.593 179.609 134.598 179.559C134.603 179.51 134.596 179.459 134.578 179.413C134.554 179.351 134.51 179.298 134.454 179.262Z" fill="black"/>
<path d="M55.245 74.2441C55.42 74.1011 55.498 74.1301 56.445 74.1301C55.8787 73.0365 55.0265 72.117 53.979 71.4695C52.9316 70.822 51.7281 70.4706 50.4968 70.4529C49.2654 70.4351 48.0524 70.7516 46.9867 71.3687C45.921 71.9858 45.0426 72.8803 44.445 73.9571H45.757C46.3019 73.1926 47.0268 72.5744 47.8677 72.1571C48.7086 71.7398 49.6394 71.5363 50.5777 71.5647C51.516 71.5931 52.4328 71.8525 53.2469 72.3198C54.0611 72.7872 54.7473 73.4481 55.245 74.2441Z" fill="#44A2FF"/>
<path d="M51.115 83.007C50.1143 83.1301 49.0987 82.9875 48.1706 82.5936C47.2424 82.1997 46.4343 81.5684 45.8275 80.7632C45.2207 79.9579 44.8366 79.0071 44.7138 78.0063C44.591 77.0056 44.7339 75.9901 45.128 75.062H43.953C43.5974 76.0843 43.4897 77.1764 43.6389 78.2485C43.7881 79.3205 44.1899 80.3417 44.8111 81.2281C45.4323 82.1144 46.2553 82.8404 47.2121 83.3464C48.1689 83.8523 49.2323 84.1237 50.3145 84.1382C51.3968 84.1526 52.467 83.9097 53.437 83.4295C54.407 82.9492 55.249 82.2454 55.8937 81.376C56.5383 80.5065 56.9672 79.4964 57.145 78.4287C57.3227 77.361 57.2442 76.2664 56.916 75.235H55.741C56.0613 76.0474 56.1913 76.9223 56.1209 77.7927C56.0506 78.6631 55.7818 79.5058 55.3351 80.2562C54.8885 81.0065 54.2759 81.6446 53.5444 82.1215C52.8129 82.5983 51.9818 82.9012 51.115 83.007Z" fill="#44A2FF"/>
<path d="M75.374 136.318C75.3737 136.236 75.3409 136.157 75.2826 136.098C75.2244 136.04 75.1454 136.007 75.063 136.007C73.484 135.997 71.904 136.021 70.324 136.014C70.2411 136.015 70.1621 136.049 70.104 136.108L70.093 136.123C70.0414 136.177 70.0127 136.249 70.013 136.323C70.03 137.902 70.008 139.482 70.02 141.062C70.021 141.144 70.0541 141.223 70.1122 141.281C70.1703 141.339 70.2488 141.372 70.331 141.373C71.911 141.383 73.491 141.373 75.07 141.366C75.1521 141.365 75.2304 141.332 75.2885 141.274C75.3465 141.216 75.3797 141.137 75.381 141.055C75.394 139.476 75.391 137.897 75.374 136.318Z" fill="#DAF8FF"/>
<path d="M35.773 80.7851C34.888 79.1851 28.338 67.1441 28.017 66.5551L28 66.5301C27.9693 66.4896 27.9292 66.4573 27.8832 66.4359C27.8371 66.4145 27.7865 66.4047 27.7358 66.4074C27.6851 66.4101 27.6359 66.4251 27.5923 66.4512C27.5488 66.4773 27.5123 66.5137 27.486 66.5571C23.507 72.8871 19.686 79.3151 18.82 80.8171C18.793 80.8646 18.7789 80.9182 18.7791 80.9728C18.7792 81.0274 18.7935 81.081 18.8207 81.1284C18.8478 81.1757 18.8869 81.2152 18.9339 81.2428C18.981 81.2705 19.0344 81.2854 19.089 81.2861C24.5627 81.2856 30.0363 81.2749 35.51 81.2541C35.5639 81.2523 35.6165 81.2366 35.6626 81.2086C35.7087 81.1806 35.7468 81.1411 35.7732 81.0941C35.7996 81.0471 35.8135 80.994 35.8134 80.9401C35.8134 80.8861 35.7995 80.8331 35.773 80.7861V80.7851Z" fill="#44A2FF"/>
<path d="M52.87 132.569C51.5687 132.046 50.1345 131.95 48.7752 132.296C47.416 132.643 46.2023 133.413 45.31 134.495C44.4253 135.569 43.9027 136.895 43.8169 138.284C43.7311 139.673 44.0865 141.054 44.8323 142.228C45.578 143.403 46.676 144.312 47.9694 144.826C49.2628 145.339 50.6853 145.43 52.0337 145.087C53.3822 144.743 54.5876 143.982 55.4776 142.913C56.3677 141.843 56.8969 140.52 56.9897 139.131C57.0824 137.743 56.734 136.361 55.9941 135.182C55.2542 134.003 54.1608 133.089 52.87 132.569Z" fill="#DAF8FF"/>
<path d="M32.3 115C32.4478 114.997 32.5886 114.936 32.6913 114.83C32.794 114.724 32.8504 114.581 32.848 114.433C32.848 114.197 33.125 114.855 27.812 105.06C27.806 105.048 27.795 105.043 27.788 105.032L27.773 105.013C27.7184 104.941 27.6471 104.884 27.5652 104.845C27.4833 104.807 27.3933 104.79 27.3031 104.794C27.2128 104.799 27.1251 104.826 27.0475 104.872C26.97 104.918 26.9049 104.983 26.858 105.06C24.376 109.006 21.901 113.16 21.311 114.189C21.2389 114.316 21.2196 114.466 21.2574 114.607C21.2952 114.749 21.387 114.869 21.513 114.943C21.597 114.993 21.691 115.019 21.788 115.021C24.074 115.034 32.2 115 32.3 115ZM27.3 106.43L31.37 113.897L22.758 113.914C24.2543 111.408 25.7684 108.913 27.3 106.428V106.43Z" fill="#44A2FF"/>
<path d="M76.708 112.636C75.551 110.545 72.957 105.754 72.796 105.46L72.774 105.433C72.7276 105.372 72.6603 105.33 72.5851 105.316C72.5098 105.301 72.4318 105.315 72.366 105.354C72.3224 105.38 72.286 105.416 72.26 105.46C70.767 107.834 69.287 110.221 67.889 112.652C67.862 112.699 67.8478 112.753 67.8479 112.808C67.848 112.862 67.8624 112.916 67.8895 112.963C67.9167 113.01 67.9558 113.05 68.0029 113.077C68.05 113.105 68.1034 113.12 68.158 113.12C70.57 113.136 76.439 113.104 76.439 113.104C76.4934 113.103 76.5467 113.088 76.5936 113.061C76.6404 113.033 76.6792 112.993 76.706 112.946C76.7331 112.899 76.7476 112.846 76.7479 112.791C76.7483 112.737 76.7345 112.683 76.708 112.636Z" fill="#DAF8FF"/>
<path d="M78.462 55.8419C72.619 45.2779 73.362 46.3569 73.15 46.1089C73.1192 46.0685 73.079 46.0361 73.0329 46.0148C72.9868 45.9934 72.9361 45.9836 72.8854 45.9863C72.8346 45.9889 72.7853 46.004 72.7416 46.03C72.698 46.0561 72.6614 46.0925 72.635 46.1359C69.92 50.4559 67.313 54.8419 66.725 55.8639C66.6983 55.9112 66.6843 55.9646 66.6845 56.019C66.6847 56.0733 66.699 56.1266 66.726 56.1737C66.753 56.2209 66.7919 56.2601 66.8387 56.2877C66.8855 56.3152 66.9387 56.3301 66.993 56.3309C66.993 56.3309 77.726 56.3139 78.193 56.3089C78.2473 56.308 78.3004 56.2931 78.3472 56.2655C78.394 56.238 78.4328 56.1987 78.4599 56.1517C78.487 56.1046 78.5015 56.0514 78.5018 55.9971C78.5022 55.9428 78.4885 55.8893 78.462 55.8419Z" fill="#DAF8FF"/>
<path d="M28.418 58.5439V59.6489H65.961L64.741 58.5439H28.418Z" fill="#DAF8FF"/>
<path d="M81.25 58.5439H66.385L67.605 59.6489H81.25C81.3895 59.6387 81.5199 59.576 81.6152 59.4735C81.7104 59.371 81.7633 59.2363 81.7633 59.0964C81.7633 58.9566 81.7104 58.8219 81.6152 58.7194C81.5199 58.6169 81.3895 58.5542 81.25 58.5439Z" fill="#DAF8FF"/>
<path d="M14.026 58.5439C13.8835 58.55 13.7489 58.6109 13.6503 58.7138C13.5516 58.8168 13.4965 58.9539 13.4965 59.0964C13.4965 59.239 13.5516 59.3761 13.6503 59.4791C13.7489 59.582 13.8835 59.6429 14.026 59.6489H27.313V58.5439H14.026Z" fill="#DAF8FF"/>
<path d="M28.073 86.9089V88.0089H68.4L69.617 86.9089H28.073Z" fill="#DAF8FF"/>
<path d="M81.25 86.9089H71.26L70.043 88.0089H81.25C81.386 87.9947 81.5118 87.9306 81.6033 87.8291C81.6948 87.7275 81.7455 87.5956 81.7455 87.4589C81.7455 87.3222 81.6948 87.1904 81.6033 87.0888C81.5118 86.9872 81.386 86.9232 81.25 86.9089Z" fill="#DAF8FF"/>
<path d="M14.026 86.9089C13.89 86.9232 13.7642 86.9872 13.6727 87.0888C13.5812 87.1904 13.5305 87.3222 13.5305 87.4589C13.5305 87.5956 13.5812 87.7275 13.6727 87.8291C13.7642 87.9306 13.89 87.9947 14.026 88.0089H26.968V86.9089H14.026Z" fill="#DAF8FF"/>
<path d="M81.25 119.364C81.3965 119.364 81.5371 119.306 81.6407 119.202C81.7443 119.099 81.8025 118.958 81.8025 118.812C81.8025 118.665 81.7443 118.524 81.6407 118.421C81.5371 118.317 81.3965 118.259 81.25 118.259H36.742L35.526 119.364C39.157 119.364 74.994 119.471 81.25 119.364Z" fill="#DAF8FF"/>
<path d="M35.1 118.259H14.026C13.8795 118.259 13.7389 118.317 13.6353 118.421C13.5317 118.524 13.4735 118.665 13.4735 118.812C13.4735 118.958 13.5317 119.099 13.6353 119.202C13.7389 119.306 13.8795 119.364 14.026 119.364H33.884L35.1 118.259Z" fill="#DAF8FF"/>
<path d="M81.25 152.9H14.026C13.8899 152.914 13.7637 152.978 13.6722 153.079C13.5807 153.181 13.5303 153.313 13.531 153.45C13.531 153.587 13.5816 153.718 13.673 153.82C13.7644 153.921 13.8901 153.986 14.026 154H81.25C81.3863 153.986 81.5127 153.923 81.6045 153.821C81.6962 153.719 81.7467 153.587 81.746 153.45C81.7465 153.313 81.6959 153.181 81.6042 153.079C81.5125 152.977 81.3862 152.914 81.25 152.9Z" fill="#DAF8FF"/>
<path d="M33.874 133.575C33.897 134.875 32.385 135.619 31.14 136.002C29.1833 136.543 27.1362 136.676 25.126 136.392C23.466 136.163 20.733 135.399 20.591 133.723V146.323C20.592 146.405 20.625 146.483 20.6829 146.541C20.7409 146.599 20.8191 146.632 20.901 146.633H33.577C33.659 146.632 33.7373 146.599 33.7954 146.541C33.8535 146.483 33.8867 146.405 33.888 146.323C33.944 138.451 33.939 135.475 33.919 134.331C33.906 133.575 33.887 133.614 33.874 133.575Z" fill="#DAF8FF"/>
<path d="M24.174 20.3079C23.648 19.8309 22.864 20.6079 23.392 21.0879C29.771 26.8679 70.19 63.4789 72.3 65.3999C72.826 65.8759 73.61 65.0999 73.082 64.6189L24.174 20.3079Z" fill="black"/>
<path d="M73.583 84.8C74.111 84.321 73.327 83.541 72.802 84.018L23.392 128.894C22.865 129.373 23.648 130.152 24.174 129.675L73.583 84.8Z" fill="black"/>
<path d="M32.7 132.716C31.9815 132.203 31.158 131.855 30.289 131.699C28.0186 131.156 25.6443 131.23 23.412 131.913C22.468 132.206 20.385 133.183 21.587 134.394C22.2231 134.931 22.9801 135.306 23.793 135.486C26.186 136.094 28.697 136.055 31.07 135.373C31.9121 135.204 32.6609 134.728 33.17 134.036C33.2635 133.796 33.2674 133.531 33.1811 133.288C33.0948 133.046 32.924 132.843 32.7 132.716Z" fill="#DAF8FF"/>
<path d="M33.187 48.333C32.942 47.418 32.287 45.94 31.172 46.016H22.834C22.6879 46.0178 22.5483 46.0767 22.445 46.18C22.3417 46.2833 22.2828 46.4229 22.281 46.569V54.958C22.2831 55.1039 22.342 55.2433 22.4453 55.3464C22.5486 55.4495 22.6881 55.5082 22.834 55.51H27.313V54.41H23.386V47.122H29.728C29.2251 48.27 28.9649 49.5096 28.9639 50.7629C28.9629 52.0162 29.221 53.2562 29.722 54.405H28.422V55.505C31.144 55.505 31.493 55.566 31.951 55.285C32.4564 54.8934 32.8284 54.3552 33.016 53.744C33.5892 51.9938 33.6485 50.1159 33.187 48.333ZM32.171 52.7C31.861 54.193 31.21 54.448 31.327 54.38C31.3027 54.3952 31.276 54.406 31.248 54.412L31.222 54.406C31.109 54.406 30.958 54.259 30.889 54.172C30.4809 53.5281 30.2292 52.7976 30.154 52.039C30.0116 51.0055 30.0454 49.9552 30.254 48.933C30.541 47.6 30.944 47.264 31.106 47.158C31.151 47.1311 31.2037 47.1201 31.2557 47.1266C31.3077 47.1331 31.356 47.1569 31.393 47.194C31.726 47.517 31.956 47.933 32.052 48.387C32.4457 49.793 32.4866 51.2744 32.171 52.7Z" fill="#44A2FF"/>
<path d="M121.069 145.7C120.928 145.662 120.777 145.681 120.649 145.753C120.522 145.825 120.428 145.945 120.389 146.086L119.914 149.076C119.879 149.217 119.899 149.367 119.971 149.493C120.043 149.62 120.161 149.714 120.3 149.756C120.37 149.776 120.443 149.781 120.515 149.772C120.587 149.764 120.657 149.74 120.72 149.705C120.784 149.669 120.839 149.621 120.884 149.563C120.928 149.506 120.961 149.44 120.98 149.37C121.138 148.37 121.296 147.373 121.455 146.379C121.49 146.238 121.469 146.089 121.398 145.963C121.326 145.836 121.208 145.742 121.069 145.7Z" fill="black"/>
<path d="M154.9 147.593C154.774 147.668 154.683 147.789 154.646 147.93C154.608 148.072 154.628 148.222 154.7 148.349L156.536 152.265C156.591 152.36 156.672 152.436 156.77 152.484C156.868 152.532 156.978 152.55 157.086 152.535C157.195 152.521 157.296 152.474 157.378 152.402C157.459 152.329 157.518 152.234 157.545 152.128C157.582 151.987 157.563 151.837 157.492 151.71L155.655 147.793C155.581 147.667 155.46 147.574 155.319 147.537C155.177 147.5 155.027 147.52 154.9 147.593Z" fill="black"/>
<path d="M20.406 160.155V171.9C20.4127 172.042 20.4738 172.177 20.5768 172.275C20.6797 172.374 20.8166 172.429 20.959 172.429C21.1013 172.428 21.2379 172.373 21.3406 172.275C21.4433 172.176 21.5043 172.042 21.511 171.9V160.155C21.5046 160.013 21.4437 159.878 21.341 159.78C21.2382 159.681 21.1015 159.626 20.959 159.625C20.8165 159.626 20.6796 159.681 20.5767 159.78C20.4738 159.878 20.4127 160.013 20.406 160.155Z" fill="#DAF8FF"/>
<path d="M76.005 160.155V171.9C76.0117 172.042 76.0728 172.177 76.1758 172.275C76.2787 172.374 76.4156 172.429 76.558 172.429C76.7003 172.428 76.8369 172.373 76.9396 172.275C77.0423 172.176 77.1033 172.042 77.11 171.9V160.155C77.1036 160.013 77.0427 159.878 76.94 159.78C76.8372 159.681 76.7005 159.626 76.558 159.625C76.4155 159.626 76.2786 159.681 76.1757 159.78C76.0728 159.878 76.0117 160.013 76.005 160.155Z" fill="#DAF8FF"/>
<path d="M28.418 53.9079C28.4119 53.7654 28.3511 53.6308 28.2481 53.5322C28.1452 53.4335 28.0081 53.3784 27.8655 53.3784C27.7229 53.3784 27.5858 53.4335 27.4829 53.5322C27.3799 53.6308 27.3191 53.7654 27.313 53.9079V63.4249C27.3191 63.5674 27.3799 63.702 27.4829 63.8007C27.5858 63.8993 27.7229 63.9544 27.8655 63.9544C28.0081 63.9544 28.1452 63.8993 28.2481 63.8007C28.3511 63.702 28.4119 63.5674 28.418 63.4249C28.48 59.8619 28.478 57.3599 28.418 53.9079Z" fill="black"/>
<path d="M28.073 85.7331C28.0669 85.5906 28.0061 85.456 27.9031 85.3574C27.8002 85.2587 27.6631 85.2036 27.5205 85.2036C27.3779 85.2036 27.2408 85.2587 27.1379 85.3574C27.0349 85.456 26.974 85.5906 26.968 85.7331V95.9231C26.974 96.0656 27.0349 96.2002 27.1379 96.2988C27.2408 96.3975 27.3779 96.4526 27.5205 96.4526C27.6631 96.4526 27.8002 96.3975 27.9031 96.2988C28.0061 96.2002 28.0669 96.0656 28.073 95.9231V85.7331Z" fill="black"/>
<path d="M15.261 74.1299H5.53401C5.39154 74.1359 5.25692 74.1968 5.15826 74.2998C5.0596 74.4027 5.00452 74.5398 5.00452 74.6824C5.00452 74.825 5.0596 74.9621 5.15826 75.065C5.25692 75.168 5.39154 75.2288 5.53401 75.2349H15.261C15.4035 75.2288 15.5381 75.168 15.6368 75.065C15.7354 74.9621 15.7905 74.825 15.7905 74.6824C15.7905 74.5398 15.7354 74.4027 15.6368 74.2998C15.5381 74.1968 15.4035 74.1359 15.261 74.1299Z" fill="black"/>
<path d="M48.239 75.062C48.3815 75.056 48.5161 74.9951 48.6147 74.8922C48.7134 74.7892 48.7685 74.6521 48.7685 74.5095C48.7685 74.3669 48.7134 74.2299 48.6147 74.1269C48.5161 74.0239 48.3815 73.9631 48.239 73.957H38.4C38.2575 73.9631 38.1229 74.0239 38.0243 74.1269C37.9256 74.2299 37.8705 74.3669 37.8705 74.5095C37.8705 74.6521 37.9256 74.7892 38.0243 74.8922C38.1229 74.9951 38.2575 75.056 38.4 75.062H48.239Z" fill="black"/>
<path d="M65.408 74.1301C54.659 73.9431 55.448 74.0801 55.245 74.2441C55.1566 74.3147 55.0918 74.4106 55.0593 74.5189C55.0268 74.6273 55.0281 74.743 55.0631 74.8506C55.0981 74.9582 55.1651 75.0526 55.2551 75.1211C55.3452 75.1896 55.454 75.229 55.567 75.2341H65.408C65.5463 75.2223 65.6751 75.1591 65.769 75.0568C65.8629 74.9546 65.915 74.8209 65.915 74.6821C65.915 74.5433 65.8629 74.4096 65.769 74.3074C65.6751 74.2051 65.5463 74.1419 65.408 74.1301Z" fill="black"/>
<path d="M68.459 74.1299C68.3165 74.1359 68.1819 74.1968 68.0832 74.2998C67.9846 74.4027 67.9295 74.5398 67.9295 74.6824C67.9295 74.825 67.9846 74.9621 68.0832 75.065C68.1819 75.168 68.3165 75.2288 68.459 75.2349H78.3C78.4425 75.2288 78.5771 75.168 78.6757 75.065C78.7744 74.9621 78.8295 74.825 78.8295 74.6824C78.8295 74.5398 78.7744 74.4027 78.6757 74.2998C78.5771 74.1968 78.4425 74.1359 78.3 74.1299H68.459Z" fill="black"/>
<path d="M99.336 74.1301H95.067V68.8151C95.0528 68.6791 94.9887 68.5532 94.8871 68.4617C94.7856 68.3702 94.6537 68.3196 94.517 68.3196C94.3803 68.3196 94.2484 68.3702 94.1469 68.4617C94.0453 68.5532 93.9812 68.6791 93.967 68.8151V74.1301H89.5C89.3575 74.1361 89.2229 74.197 89.1243 74.2999C89.0256 74.4029 88.9705 74.54 88.9705 74.6826C88.9705 74.8252 89.0256 74.9622 89.1243 75.0652C89.2229 75.1681 89.3575 75.229 89.5 75.2351H93.966V80.0351C93.9802 80.171 94.0443 80.2969 94.1459 80.3884C94.2474 80.4799 94.3793 80.5305 94.516 80.5305C94.6527 80.5305 94.7846 80.4799 94.8861 80.3884C94.9877 80.2969 95.0518 80.171 95.066 80.0351V75.2351H99.335C99.4282 75.2385 99.5208 75.2184 99.6042 75.1766C99.6876 75.1348 99.7591 75.0727 99.8121 74.9959C99.8651 74.9192 99.898 74.8303 99.9076 74.7375C99.9172 74.6447 99.9032 74.551 99.867 74.465C99.8231 74.3616 99.7486 74.2741 99.6535 74.2142C99.5584 74.1544 99.4473 74.125 99.335 74.1301H99.336Z" fill="black"/>
<path d="M104.73 98.4539C117.03 95.0259 123.768 74.4479 115.913 58.6129C114.102 54.7328 111.117 51.5208 107.379 49.4319C105.658 48.531 103.762 48.0112 101.822 47.9077C99.8822 47.8041 97.9425 48.1194 96.135 48.8319C87.758 52.1689 83.448 62.4699 82.984 71.4569C82.5 80.7999 85.729 91.6159 93.6 96.6999C95.2257 97.7626 97.0583 98.4685 98.9769 98.7708C100.895 99.0732 102.856 98.9652 104.73 98.4539ZM86.505 60.7479C89.705 53.1079 96.518 47.1869 104.511 49.4639C116.018 52.7419 122.434 72.4339 115.002 87.5739C110.494 96.7569 102.738 99.4739 96.429 96.9309C88.589 93.7739 84.529 83.7879 84.086 75.3159C83.7892 70.3399 84.616 65.361 86.505 60.7479Z" fill="black"/>
<path d="M32.176 114.873C32.3238 114.87 32.4646 114.809 32.5673 114.703C32.6701 114.596 32.7264 114.454 32.724 114.306C32.724 114.07 33.001 114.729 27.688 104.933C27.682 104.921 27.672 104.916 27.664 104.905L27.649 104.886C27.5945 104.814 27.5231 104.756 27.4412 104.718C27.3593 104.68 27.2693 104.663 27.1791 104.667C27.0889 104.672 27.0011 104.698 26.9236 104.745C26.846 104.791 26.7809 104.856 26.734 104.933C24.253 108.88 21.783 113.027 21.187 114.063C21.1391 114.147 21.1141 114.242 21.1142 114.339C21.1144 114.436 21.1398 114.531 21.188 114.615C21.2362 114.699 21.3055 114.769 21.3889 114.818C21.4724 114.866 21.5672 114.893 21.664 114.894C23.935 114.909 32.076 114.874 32.176 114.873ZM27.176 106.303L31.246 113.779H22.635C23.794 111.81 26.838 106.838 27.177 106.3L27.176 106.303Z" fill="black"/>
<path d="M132.009 64.4629H138.052C138.199 64.4629 138.339 64.4047 138.443 64.301C138.547 64.1973 138.605 64.0566 138.605 63.9099C138.605 63.7633 138.547 63.6226 138.443 63.5189C138.339 63.4152 138.199 63.3569 138.052 63.3569H132.009C131.862 63.3569 131.722 63.4152 131.618 63.5189C131.514 63.6226 131.456 63.7633 131.456 63.9099C131.456 64.0566 131.514 64.1973 131.618 64.301C131.722 64.4047 131.862 64.4629 132.009 64.4629Z" fill="black"/>
<path d="M146.186 100.253C146.313 100.324 146.463 100.343 146.604 100.305C146.745 100.268 146.866 100.178 146.942 100.053C148.094 98.5167 149.138 96.9022 150.066 95.221C150.409 94.598 149.456 94.04 149.112 94.663C148.184 96.3445 147.14 97.9594 145.988 99.496C145.914 99.6228 145.894 99.7735 145.931 99.9154C145.968 100.057 146.06 100.179 146.186 100.253Z" fill="black"/>
<path d="M164.175 118.13C164.302 118.201 164.452 118.219 164.593 118.182C164.734 118.145 164.855 118.054 164.931 117.93C167.779 113.921 170.087 109.555 171.797 104.945C172.045 104.278 170.978 103.99 170.732 104.652C169.049 109.17 166.778 113.447 163.977 117.372C163.903 117.499 163.883 117.65 163.92 117.792C163.957 117.934 164.049 118.055 164.175 118.13Z" fill="black"/>
<path d="M133.885 135.949C135.429 135.74 136.938 135.329 138.375 134.727C138.514 134.685 138.632 134.591 138.704 134.464C138.776 134.337 138.796 134.188 138.761 134.047C138.732 133.942 138.672 133.847 138.59 133.776C138.507 133.704 138.405 133.659 138.297 133.645C138.225 133.636 138.152 133.642 138.082 133.661C136.645 134.263 135.135 134.674 133.591 134.884C133.486 134.913 133.392 134.973 133.321 135.055C133.25 135.138 133.205 135.239 133.192 135.347C133.179 135.455 133.198 135.565 133.247 135.662C133.296 135.759 133.373 135.839 133.468 135.893C133.594 135.965 133.744 135.985 133.885 135.949Z" fill="black"/>
<path d="M81.125 152.773H13.9C13.7639 152.787 13.6377 152.851 13.5462 152.952C13.4547 153.054 13.4043 153.186 13.405 153.323C13.4045 153.46 13.455 153.592 13.5464 153.693C13.6379 153.795 13.764 153.859 13.9 153.873H81.125C81.2613 153.86 81.3877 153.796 81.4795 153.694C81.5712 153.592 81.6217 153.46 81.621 153.323C81.6214 153.186 81.5709 153.054 81.4792 152.952C81.3875 152.851 81.2612 152.787 81.125 152.773Z" fill="black"/>
<path d="M120.944 145.577C120.803 145.539 120.652 145.558 120.525 145.63C120.397 145.702 120.303 145.822 120.264 145.963L119.789 148.953C119.754 149.094 119.774 149.244 119.846 149.37C119.918 149.497 120.036 149.591 120.175 149.633C120.245 149.653 120.318 149.658 120.39 149.649C120.462 149.64 120.532 149.617 120.595 149.582C120.659 149.546 120.714 149.498 120.759 149.44C120.803 149.383 120.836 149.317 120.855 149.247C121.013 148.247 121.171 147.25 121.33 146.256C121.365 146.115 121.344 145.966 121.273 145.839C121.201 145.713 121.083 145.619 120.944 145.577Z" fill="black"/>
<path d="M155.527 147.666C155.453 147.539 155.332 147.447 155.19 147.41C155.049 147.372 154.898 147.392 154.771 147.466C154.645 147.541 154.554 147.662 154.517 147.803C154.479 147.944 154.499 148.095 154.571 148.222L156.407 152.138C156.462 152.233 156.543 152.309 156.641 152.357C156.739 152.405 156.849 152.423 156.958 152.408C157.066 152.394 157.167 152.347 157.249 152.274C157.33 152.202 157.389 152.107 157.416 152.001C157.454 151.86 157.435 151.71 157.363 151.583C156.752 150.277 156.14 148.971 155.527 147.666Z" fill="black"/>
<path d="M98.576 114.405C98.044 113.937 97.259 114.716 97.794 115.186L99.144 116.373C99.677 116.841 100.461 116.062 99.926 115.592L98.576 114.405Z" fill="black"/>
<path d="M96.719 120.639C96.177 120.186 95.391 120.963 95.938 121.42L97.317 122.574C97.859 123.027 98.645 122.25 98.098 121.793L96.719 120.639Z" fill="black"/>
<path d="M20.281 160.03V171.772C20.281 171.919 20.3393 172.059 20.443 172.163C20.5467 172.267 20.6873 172.325 20.834 172.325C20.9807 172.325 21.1213 172.267 21.225 172.163C21.3287 172.059 21.387 171.919 21.387 171.772V160.03C21.387 159.883 21.3287 159.743 21.225 159.639C21.1213 159.535 20.9807 159.477 20.834 159.477C20.6873 159.477 20.5467 159.535 20.443 159.639C20.3393 159.743 20.281 159.883 20.281 160.03Z" fill="black"/>
<path d="M75.88 160.03V171.772C75.8867 171.914 75.9478 172.049 76.0508 172.147C76.1537 172.246 76.2906 172.301 76.433 172.301C76.5753 172.3 76.7119 172.245 76.8146 172.147C76.9173 172.048 76.9783 171.914 76.985 171.772V160.03C76.9786 159.888 76.9177 159.753 76.815 159.655C76.7122 159.556 76.5755 159.501 76.433 159.5C76.2905 159.501 76.1536 159.556 76.0507 159.655C75.9478 159.753 75.8867 159.888 75.88 160.03Z" fill="black"/>
<path d="M15.136 74.0049H5.40901C5.26654 74.0109 5.13192 74.0718 5.03326 74.1748C4.9346 74.2777 4.87952 74.4148 4.87952 74.5574C4.87952 74.7 4.9346 74.8371 5.03326 74.94C5.13192 75.043 5.26654 75.1038 5.40901 75.1099H15.136C15.2785 75.1038 15.4131 75.043 15.5118 74.94C15.6104 74.8371 15.6655 74.7 15.6655 74.5574C15.6655 74.4148 15.6104 74.2777 15.5118 74.1748C15.4131 74.0718 15.2785 74.0109 15.136 74.0049Z" fill="black"/>
<path d="M65.283 74.005H56.337C55.7676 72.9137 54.9136 71.9966 53.8656 71.351C52.8176 70.7053 51.6144 70.3551 50.3836 70.3374C49.1528 70.3196 47.9401 70.6351 46.8739 71.2503C45.8077 71.8655 44.9276 72.7575 44.327 73.832H38.273C38.1306 73.8381 37.9959 73.8989 37.8973 74.0019C37.7986 74.1048 37.7435 74.2419 37.7435 74.3845C37.7435 74.5271 37.7986 74.6642 37.8973 74.7671C37.9959 74.8701 38.1306 74.9309 38.273 74.937H43.822C43.4654 75.9601 43.3571 77.0534 43.506 78.1266C43.6549 79.1998 44.0567 80.2222 44.6784 81.1097C45.3 81.9971 46.1236 82.7241 47.0814 83.2307C48.0391 83.7373 49.1036 84.009 50.187 84.0235C51.2704 84.0379 52.3417 83.7947 53.3126 83.3138C54.2835 82.8329 55.1263 82.1282 55.7714 81.2576C56.4164 80.3871 56.8454 79.3757 57.0228 78.3069C57.2003 77.238 57.1212 76.1423 56.792 75.11H65.283C65.3575 75.1132 65.432 75.1012 65.5018 75.0749C65.5715 75.0486 65.6353 75.0084 65.6892 74.9568C65.743 74.9051 65.7859 74.8432 65.8152 74.7745C65.8444 74.7059 65.8595 74.6321 65.8595 74.5575C65.8595 74.4829 65.8444 74.4091 65.8152 74.3405C65.7859 74.2718 65.743 74.2099 65.6892 74.1582C65.6353 74.1066 65.5715 74.0665 65.5018 74.0401C65.432 74.0138 65.3575 74.0018 65.283 74.005ZM55.121 80.251C54.3502 81.4666 53.1502 82.3477 51.7595 82.7191C50.3689 83.0904 48.8894 82.9249 47.6152 82.2553C46.341 81.5858 45.3654 80.4613 44.8823 79.1054C44.3993 77.7494 44.4441 76.2614 45.008 74.937H48.114C48.2565 74.9309 48.3911 74.8701 48.4898 74.7671C48.5884 74.6642 48.6435 74.5271 48.6435 74.3845C48.6435 74.2419 48.5884 74.1048 48.4898 74.0019C48.3911 73.8989 48.2565 73.8381 48.114 73.832H45.639C46.1829 73.0673 46.9072 72.4488 47.7476 72.0312C48.5879 71.6137 49.5184 71.4101 50.4563 71.4385C51.3943 71.4669 52.3107 71.7264 53.1243 72.194C53.9378 72.6616 54.6234 73.3228 55.12 74.119C55.0312 74.1895 54.9661 74.2854 54.9333 74.394C54.9006 74.5025 54.9018 74.6185 54.9369 74.7263C54.9719 74.8342 55.0391 74.9287 55.1294 74.9973C55.2197 75.0658 55.3287 75.1052 55.442 75.11H55.624C55.9435 75.9474 56.0644 76.8476 55.9771 77.7397C55.8899 78.6317 55.5968 79.4914 55.121 80.251Z" fill="black"/>
<path d="M68.334 74.0049C68.1915 74.0109 68.0569 74.0718 67.9582 74.1748C67.8596 74.2777 67.8045 74.4148 67.8045 74.5574C67.8045 74.7 67.8596 74.8371 67.9582 74.94C68.0569 75.043 68.1915 75.1038 68.334 75.1099H78.175C78.3175 75.1038 78.4521 75.043 78.5507 74.94C78.6494 74.8371 78.7045 74.7 78.7045 74.5574C78.7045 74.4148 78.6494 74.2777 78.5507 74.1748C78.4521 74.0718 78.3175 74.0109 78.175 74.0049H68.334Z" fill="black"/>
<path d="M89.371 75.1101H93.837V79.9101C93.8512 80.046 93.9153 80.1719 94.0169 80.2634C94.1185 80.3549 94.2503 80.4055 94.387 80.4055C94.5237 80.4055 94.6556 80.3549 94.7571 80.2634C94.8587 80.1719 94.9228 80.046 94.937 79.9101V75.1101H99.207C99.3465 75.0998 99.477 75.0371 99.5722 74.9346C99.6674 74.8321 99.7203 74.6974 99.7203 74.5576C99.7203 74.4177 99.6674 74.283 99.5722 74.1805C99.477 74.078 99.3465 74.0153 99.207 74.0051H94.937V68.6901C94.9228 68.5541 94.8587 68.4282 94.7571 68.3367C94.6556 68.2452 94.5237 68.1946 94.387 68.1946C94.2503 68.1946 94.1185 68.2452 94.0169 68.3367C93.9153 68.4282 93.8512 68.5541 93.837 68.6901V74.0051H89.371C89.2286 74.0111 89.0939 74.072 88.9953 74.1749C88.8966 74.2779 88.8415 74.415 88.8415 74.5576C88.8415 74.7002 88.8966 74.8372 88.9953 74.9402C89.0939 75.0431 89.2286 75.104 89.371 75.1101Z" fill="black"/>
<path d="M81.126 58.4189H66.26L56.66 49.7189C56.66 48.0829 56.66 43.6639 56.647 43.3249C56.627 42.8129 56.518 42.6409 55.912 42.6319C55.803 42.6319 48.95 42.6319 48.843 42.6389L24.049 20.1829C23.523 19.7059 22.739 20.4829 23.268 20.9629L47.212 42.6529H44.448C44.3019 42.6548 44.1623 42.7136 44.059 42.8169C43.9557 42.9202 43.8968 43.0598 43.895 43.2059C43.895 43.2059 43.909 54.3629 43.913 54.8499C43.9143 54.9959 43.9729 55.1356 44.0761 55.2388C44.1794 55.3421 44.319 55.4006 44.465 55.4019C47.86 55.4239 56.108 55.3849 56.108 55.3849C56.2539 55.3824 56.393 55.3233 56.4962 55.2201C56.5993 55.117 56.6584 54.9778 56.661 54.8319C56.649 53.6219 56.661 52.4119 56.655 51.2039L64.616 58.4139H28.293V55.3839C31.015 55.3839 31.364 55.4459 31.822 55.1639C32.3272 54.7727 32.6992 54.2348 32.887 53.6239C33.4625 51.8722 33.5232 49.9922 33.062 48.2069C32.817 47.2929 32.162 45.8149 31.047 45.8909H22.709C22.5631 45.8935 22.424 45.9526 22.3208 46.0558C22.2177 46.1589 22.1586 46.2981 22.156 46.4439V54.8319C22.1581 54.978 22.217 55.1174 22.3203 55.2207C22.4235 55.324 22.563 55.3829 22.709 55.3849H27.188V58.4189H13.9C13.7575 58.425 13.6229 58.4859 13.5243 58.5888C13.4256 58.6918 13.3705 58.8289 13.3705 58.9714C13.3705 59.114 13.4256 59.2511 13.5243 59.3541C13.6229 59.457 13.7575 59.5179 13.9 59.5239H27.188V63.2999C27.1941 63.4424 27.2549 63.577 27.3579 63.6757C27.4608 63.7744 27.5979 63.8294 27.7405 63.8294C27.8831 63.8294 28.0202 63.7744 28.1231 63.6757C28.2261 63.577 28.2869 63.4424 28.293 63.2999V59.5239H65.836L72.18 65.2699C72.706 65.7459 73.489 64.9699 72.961 64.4889L67.48 59.5239H81.126C81.2685 59.5179 81.4031 59.457 81.5017 59.3541C81.6004 59.2511 81.6555 59.114 81.6555 58.9714C81.6555 58.8289 81.6004 58.6918 81.5017 58.5888C81.4031 58.4859 81.2685 58.425 81.126 58.4189ZM55.535 43.7589V48.7059C53.823 47.1559 51.986 45.4899 50.076 43.7589H55.535ZM55.552 54.2839C36.852 54.2839 51.458 54.2899 45.017 54.2999L45 43.7619L48.417 43.7569L55.551 50.2049L55.552 54.2839ZM30.357 47.9899C30.516 47.5519 30.945 46.7579 31.269 47.0669C31.602 47.3899 31.832 47.8059 31.928 48.2599C32.321 49.6664 32.3619 51.148 32.047 52.5739C31.736 54.0659 31.085 54.3219 31.203 54.2529C31.1783 54.2679 31.1512 54.2788 31.123 54.2849L31.1 54.2789H31.066C30.33 53.9579 30.02 52.0959 29.966 51.2789C29.8767 50.1672 30.0096 49.0488 30.357 47.9889V47.9899ZM27.721 53.2489C27.5812 53.2539 27.4485 53.3117 27.3496 53.4106C27.2507 53.5095 27.193 53.6422 27.188 53.7819V54.2819H23.261V46.9999H29.6C29.1009 48.1486 28.8434 49.3876 28.8434 50.6399C28.8434 51.8923 29.1009 53.1313 29.6 54.2799H28.3V53.7799C28.2972 53.707 28.2799 53.6353 28.2492 53.5691C28.2185 53.5029 28.175 53.4434 28.1211 53.3941C28.0673 53.3448 28.0042 53.3067 27.9355 53.2819C27.8668 53.2572 27.7939 53.2463 27.721 53.2499V53.2489Z" fill="black"/>
<path d="M121.254 89.8658C123.611 84.4226 124.77 78.5364 124.653 72.606C124.536 66.6756 123.145 60.8397 120.575 55.4938C118.381 50.7968 114.77 46.9055 110.25 44.3668C108.159 43.2712 105.856 42.6413 103.498 42.5205C101.141 42.3996 98.785 42.7907 96.593 43.6668C86.406 47.7598 81.3 60.3718 80.747 71.0538C80.238 80.9888 83.295 94.9538 93.584 101.611C102.3 107.254 114.734 104.524 121.254 89.8658ZM119.632 90.7158C111.74 106.764 95.132 107.406 86.59 92.4088C80.915 82.4408 80.224 68.9088 84.831 57.9438C88.57 49.0438 96.823 41.3438 106.838 44.1978C112.392 45.7828 117.147 50.4768 120.228 57.4158C122.508 62.6882 123.634 68.387 123.532 74.1303C123.429 79.8736 122.099 85.5285 119.632 90.7158Z" fill="black"/>
<path d="M74.94 135.632C74.113 135.632 70.954 135.643 70.2 135.639C70.052 135.643 69.9111 135.703 69.8065 135.808C69.7019 135.913 69.6415 136.054 69.638 136.202C69.647 137.033 69.638 140.192 69.646 140.941C69.6471 141.089 69.7063 141.23 69.8109 141.335C69.9155 141.44 70.0571 141.499 70.205 141.5C70.205 141.5 73.955 141.5 74.947 141.493C75.0952 141.492 75.2371 141.433 75.3418 141.328C75.4464 141.223 75.5055 141.081 75.506 140.933C75.516 139.353 75.514 137.772 75.499 136.191C75.4969 136.043 75.4374 135.902 75.333 135.798C75.2286 135.693 75.0876 135.634 74.94 135.632ZM74.381 136.757V140.375H70.763V136.757H74.381Z" fill="black"/>
<path d="M28.109 66.306C28.0713 66.2414 28.0211 66.1851 27.9613 66.1403C27.9015 66.0954 27.8334 66.063 27.7609 66.045C27.6884 66.0269 27.613 66.0235 27.5392 66.035C27.4653 66.0465 27.3946 66.0727 27.331 66.1119C26.882 66.3849 18.554 80.422 18.468 80.577C18.4233 80.6627 18.4012 80.7585 18.4038 80.8551C18.4063 80.9518 18.4334 81.0463 18.4826 81.1296C18.5317 81.2129 18.6012 81.2823 18.6845 81.3314C18.7679 81.3804 18.8623 81.4075 18.959 81.41C19.117 81.41 34.712 81.3839 35.382 81.3779C35.4797 81.3767 35.5754 81.35 35.6597 81.3007C35.744 81.2513 35.814 81.1808 35.8629 81.0963C35.9118 81.0117 35.9379 80.9158 35.9386 80.8181C35.9393 80.7205 35.9146 80.6242 35.867 80.539C32.817 75.025 28.628 67.205 28.109 66.306ZM19.942 80.272C21.511 77.604 24.912 71.884 27.588 67.692L34.437 80.272H19.942Z" fill="black"/>
<path d="M54.829 133.435C53.4688 132.232 51.6867 131.619 49.8746 131.731C48.0626 131.842 46.369 132.669 45.1665 134.029C43.964 135.39 43.3511 137.172 43.4626 138.984C43.5741 140.796 44.4008 142.489 45.761 143.692C46.4345 144.287 47.2186 144.744 48.0687 145.037C48.9188 145.329 49.8181 145.451 50.7154 145.396C51.6126 145.341 52.4902 145.109 53.298 144.715C54.1058 144.32 54.8281 143.771 55.4235 143.097C56.0189 142.424 56.4758 141.64 56.7682 140.79C57.0606 139.94 57.1826 139.04 57.1274 138.143C57.0722 137.246 56.8408 136.368 56.4465 135.56C56.0521 134.753 55.5025 134.03 54.829 133.435ZM54.093 142.835C53.1358 143.688 51.9199 144.196 50.6399 144.277C49.3599 144.358 48.0898 144.007 47.033 143.28C46.244 142.737 45.6038 142.004 45.1711 141.149C44.7383 140.295 44.5267 139.345 44.5556 138.388C44.5846 137.43 44.8531 136.495 45.3368 135.668C45.8204 134.841 46.5036 134.149 47.324 133.654C48.1446 133.158 49.0765 132.877 50.0342 132.835C50.9919 132.794 51.9447 132.993 52.8052 133.416C53.6657 133.838 54.4063 134.47 54.9591 135.253C55.5119 136.036 55.8591 136.946 55.969 137.898C56.0818 138.811 55.9699 139.738 55.643 140.598C55.3161 141.459 54.784 142.226 54.093 142.834V142.835Z" fill="black"/>
<path d="M72.888 105.21C72.8393 105.126 72.7694 105.056 72.6852 105.007C72.6009 104.958 72.5054 104.932 72.408 104.932C72.3107 104.931 72.2149 104.956 72.1299 105.003C72.0449 105.05 71.9736 105.119 71.923 105.202C70.4261 107.583 68.9659 109.986 67.543 112.412C67.4737 112.541 67.4575 112.691 67.4979 112.832C67.5383 112.972 67.632 113.092 67.759 113.164C67.85 113.238 67.897 113.276 69.832 113.276C71.063 113.276 73.059 113.261 76.317 113.229C76.4146 113.227 76.5102 113.201 76.5943 113.151C76.6785 113.102 76.7484 113.031 76.7972 112.947C76.8459 112.862 76.8719 112.766 76.8726 112.669C76.8733 112.571 76.8486 112.475 76.801 112.39C75.8 110.584 74.216 107.576 72.888 105.21ZM75.371 112.115H69.016C70.016 110.415 71.168 108.491 72.368 106.599L75.371 112.115Z" fill="black"/>
<path d="M73.264 45.8859C73.2147 45.802 73.1445 45.7323 73.0603 45.6837C72.976 45.635 72.8806 45.609 72.7833 45.6082C72.686 45.6074 72.5901 45.6318 72.5051 45.6791C72.42 45.7263 72.3487 45.7949 72.298 45.8779C70.2757 49.0966 68.3022 52.3456 66.378 55.6239C66.3343 55.7087 66.3125 55.803 66.3146 55.8984C66.3167 55.9937 66.3427 56.087 66.3901 56.1697C66.4375 56.2525 66.5049 56.322 66.5861 56.372C66.6673 56.422 66.7598 56.4508 66.855 56.4559C66.855 56.4559 77.755 56.4359 78.071 56.4339C78.1689 56.4334 78.265 56.4073 78.3496 56.3582C78.4343 56.3091 78.5047 56.2387 78.5537 56.1539C78.6028 56.0692 78.6288 55.9731 78.6292 55.8752C78.6296 55.7773 78.6043 55.681 78.556 55.5959C76.27 51.4639 73.614 46.4999 73.264 45.8859ZM67.853 55.3239C69.4643 52.6297 71.0947 49.947 72.744 47.2759L77.126 55.3239H67.853Z" fill="black"/>
<path d="M33.835 132.776C33.3069 131.925 32.4719 131.311 31.503 131.059C28.7927 130.195 25.8882 130.145 23.15 130.917C22.2161 131.154 21.3644 131.641 20.686 132.325C20.4312 132.624 20.2741 132.994 20.236 133.385C20.163 133.72 20.136 135.37 20.216 146.196C20.2173 146.344 20.2767 146.485 20.3812 146.589C20.4858 146.694 20.6272 146.753 20.775 146.754C23.056 146.77 31.175 146.77 33.454 146.754C33.6018 146.752 33.743 146.693 33.8475 146.588C33.952 146.484 34.0114 146.343 34.013 146.195C34.106 132.959 34.1 133.267 33.835 132.776ZM32.874 133.591C32.78 134.12 31.904 134.626 31.183 134.897C28.358 135.795 25.313 135.725 22.533 134.697C21.939 134.413 21.107 133.821 21.411 133.237C22.111 131.899 25.576 131.494 27.111 131.496C28.254 131.506 29.3921 131.647 30.503 131.916C31.276 132.089 31.996 132.446 32.603 132.955C32.6956 133.032 32.7685 133.129 32.8157 133.24C32.8628 133.351 32.8828 133.471 32.874 133.591ZM21.338 135.291C23.972 137.124 30.198 137.124 32.891 135.291V145.635H21.338V135.291Z" fill="black"/>
<path d="M100.158 58.7098C95.206 56.0328 90.091 59.0689 87.597 63.4499C83.411 70.8039 84.225 82.7238 91.578 87.6678C96.032 90.6618 101.478 88.7149 104.378 84.2459C106.225 81.2955 107.29 77.9239 107.475 74.4483C107.659 70.9726 106.957 67.5071 105.433 64.3778C104.324 61.9747 102.475 59.9888 100.158 58.7098ZM104.44 81.9239C102.446 86.1239 98.06 89.3618 93.54 87.4298C91.3779 86.4618 89.6032 84.7962 88.5 82.6998C87.1216 80.1297 86.3295 77.2861 86.1806 74.3734C86.0317 71.4607 86.5298 68.5512 87.639 65.8538C89.146 62.0938 92.429 58.8399 96.239 58.8399C97.7271 58.9298 99.17 59.3854 100.44 60.1663C101.71 60.9473 102.767 62.0294 103.519 63.3169C105.216 66.094 106.189 69.2524 106.35 72.503C106.511 75.7536 105.854 78.9927 104.44 81.9239Z" fill="black"/>
<path d="M145.335 70.0699C146.56 70.0755 147.75 69.6563 148.701 68.8836C149.652 68.1109 150.306 67.0325 150.552 65.832C150.797 64.6314 150.619 63.3828 150.048 62.2988C149.476 61.2147 148.547 60.3621 147.418 59.8861C146.289 59.4101 145.029 59.3402 143.854 59.6881C142.679 60.036 141.661 60.7803 140.973 61.7944C140.285 62.8085 139.97 64.0296 140.081 65.25C140.192 66.4704 140.722 67.6146 141.582 68.4879C142.071 68.9877 142.655 69.385 143.299 69.6566C143.944 69.9282 144.636 70.0687 145.335 70.0699ZM141.094 63.6119C141.342 62.6763 141.892 61.8488 142.659 61.2584C143.426 60.6679 144.367 60.3474 145.335 60.3469C146.303 60.3469 147.244 60.6672 148.011 61.2577C148.778 61.8483 149.328 62.676 149.576 63.6119H141.094ZM140.929 64.5519H149.741C149.772 65.1499 149.681 65.7479 149.473 66.3097C149.266 66.8715 148.947 67.3853 148.535 67.8199C148.123 68.2547 147.627 68.6009 147.077 68.8374C146.527 69.0738 145.934 69.1955 145.335 69.1949C144.433 69.1956 143.552 68.9195 142.812 68.4037C142.072 67.888 141.508 67.1575 141.196 66.3109C140.989 65.749 140.898 65.151 140.929 64.5529V64.5519Z" fill="black"/>
<path d="M81.126 118.134H36.617L43.875 111.543C43.884 112.349 43.903 114.664 43.903 114.664C43.9053 114.811 43.9652 114.952 44.0698 115.056C44.1744 115.16 44.3155 115.219 44.463 115.221C45.201 115.221 56.044 115.203 56.106 115.204C56.2542 115.201 56.3956 115.142 56.5006 115.037C56.6056 114.932 56.6659 114.791 56.669 114.643C56.669 114.643 56.655 103.485 56.651 102.998C56.6497 102.85 56.5904 102.709 56.4858 102.604C56.3812 102.5 56.2398 102.441 56.092 102.44H53.892L69.918 87.889H81.126C81.262 87.8747 81.3878 87.8107 81.4793 87.7091C81.5708 87.6075 81.6215 87.4757 81.6215 87.339C81.6215 87.2023 81.5708 87.0704 81.4793 86.9688C81.3878 86.8673 81.262 86.8032 81.126 86.789H71.135L73.459 84.679C73.986 84.199 73.203 83.419 72.677 83.897L69.493 86.789H27.948V85.608C27.9419 85.4655 27.8811 85.3309 27.7781 85.2322C27.6752 85.1336 27.5381 85.0785 27.3955 85.0785C27.2529 85.0785 27.1158 85.1336 27.0129 85.2322C26.9099 85.3309 26.8491 85.4655 26.843 85.608V86.784H13.9C13.764 86.7982 13.6382 86.8623 13.5467 86.9638C13.4552 87.0654 13.4045 87.1973 13.4045 87.334C13.4045 87.4707 13.4552 87.6025 13.5467 87.7041C13.6382 87.8057 13.764 87.8697 13.9 87.884H26.843V95.8C26.8491 95.9424 26.9099 96.077 27.0129 96.1757C27.1158 96.2744 27.2529 96.3295 27.3955 96.3295C27.5381 96.3295 27.6752 96.2744 27.7781 96.1757C27.8811 96.077 27.9419 95.9424 27.948 95.8V87.89H68.276L52.24 102.453L44.448 102.465C44.2927 102.481 44.1475 102.55 44.036 102.659C43.82 102.883 43.922 102.401 43.906 110.023L34.976 118.134H13.9C13.7535 118.134 13.6129 118.192 13.5093 118.296C13.4057 118.399 13.3475 118.54 13.3475 118.686C13.3475 118.833 13.4057 118.974 13.5093 119.077C13.6129 119.181 13.7535 119.239 13.9 119.239H33.759L23.268 128.768C22.74 129.247 23.523 130.027 24.049 129.549L35.4 119.239H81.126C81.2725 119.239 81.4131 119.181 81.5167 119.077C81.6203 118.974 81.6785 118.833 81.6785 118.686C81.6785 118.54 81.6203 118.399 81.5167 118.296C81.4131 118.192 81.2725 118.134 81.126 118.134ZM52.657 103.564H55.531V114.083H45.025V110.5C47.374 108.369 50 105.974 52.657 103.564ZM51.022 103.564C49.018 105.385 47.012 107.205 45.005 109.025V103.573L51.022 103.564Z" fill="black"/>
<path d="M184.821 156.649C184.314 147.529 181.539 143.891 178.739 129.903C178.046 120.135 178.77 114.212 178.532 104.85C178.5 103.584 178.489 102.55 178.41 101.55C177.848 94.1032 174.366 87.1803 168.722 82.2902C163.077 77.4 155.729 74.9391 148.278 75.4436C140.827 75.9482 133.878 79.3774 128.944 84.9838C124.011 90.5903 121.494 97.9195 121.941 105.374C122.109 107.995 122.13 110.44 122.078 113.305C118.954 113.087 115.665 112.705 112.898 111.332C109.871 109.832 108.773 108.077 105.979 107.404V105.484C105.977 105.336 105.918 105.195 105.813 105.091C105.708 104.986 105.566 104.928 105.418 104.927H98.566C98.4179 104.928 98.2761 104.987 98.1716 105.092C98.0671 105.197 98.0083 105.339 98.008 105.487V107.887C97.526 107.704 97.0214 107.587 96.508 107.54C94.258 107.565 92.88 110.767 94.749 112.792C94.876 112.949 95.217 113.292 95.163 113.514C95.1206 113.547 95.0751 113.577 95.027 113.601C94.8538 113.659 94.6747 113.698 94.493 113.717C93.8268 113.889 93.2434 114.293 92.8469 114.855C92.4504 115.418 92.2665 116.103 92.328 116.788C92.4329 117.812 92.813 118.788 93.428 119.613C92.8384 120.086 92.3295 120.651 91.921 121.287C91.6596 121.845 91.5638 122.467 91.6448 123.077C91.7258 123.688 91.9802 124.263 92.378 124.734C93.9123 126.89 95.818 128.756 98.006 130.244V137.344C97.977 138.144 98.1895 138.935 98.6157 139.613C99.0419 140.291 99.6622 140.825 100.396 141.146C101.006 141.413 101.674 141.523 102.338 141.465C103.002 141.408 103.64 141.185 104.196 140.816C104.751 140.448 105.205 139.946 105.516 139.357C105.827 138.768 105.986 138.11 105.977 137.444V134.202C110.014 135.858 114.188 137.158 118.452 138.087C116.068 146.399 114.921 147.944 114.27 153.065C113.704 156.221 113.831 159.463 114.642 162.565C117.256 170.865 125.909 174.216 133.792 169.692C141.115 165.492 144.526 156.223 148.582 147.392C149.969 150.335 151.337 153.215 152.761 156.044C155.541 161.567 159.218 167.585 165.41 170.344C167.38 171.233 169.514 171.699 171.675 171.71C180.009 171.72 185.262 164.566 184.821 156.649ZM147.939 76.711C154.746 76.1147 161.526 78.1152 166.919 82.3111C172.312 86.5069 175.919 92.5875 177.014 99.332C178.031 105.998 176.859 118.332 177.585 129.365H154.574C158.134 126.339 161.306 122.884 164.019 119.08C164.08 118.975 164.105 118.852 164.089 118.731C164.074 118.61 164.018 118.497 163.932 118.411C163.342 117.818 146.132 100.611 146.123 100.601C146.07 100.55 146.007 100.51 145.938 100.483C145.869 100.456 145.796 100.443 145.722 100.445C145.648 100.446 145.575 100.462 145.508 100.492C145.44 100.522 145.379 100.565 145.328 100.618C143.491 103.058 141.399 105.295 139.088 107.292C136.801 109.337 134.21 111.013 131.407 112.26C128.781 113.211 125.984 113.595 123.199 113.386C123.289 108.608 123.135 106.437 123.079 105.612C122.559 98.4865 124.883 91.4453 129.542 86.0289C134.201 80.6126 140.816 77.2623 147.939 76.711ZM99.13 106.053H104.857C104.857 106.153 104.863 107.824 104.857 108.053C104.868 108.478 104.777 108.899 104.593 109.281C104.324 109.855 103.583 109.894 102.961 109.765C101.641 109.408 100.357 108.93 99.126 108.335L99.13 106.053ZM104.571 138.766C104.282 139.362 103.796 139.84 103.195 140.118C102.594 140.396 101.915 140.457 101.274 140.291C100.633 140.126 100.069 139.743 99.6782 139.208C99.2873 138.674 99.0936 138.02 99.13 137.359V130.969C100.97 132.032 102.884 132.961 104.858 133.749V137C104.901 137.603 104.803 138.208 104.571 138.766ZM102.089 131.319C98.4731 129.677 95.3667 127.091 93.097 123.832C92.8018 123.399 92.6706 122.876 92.727 122.355C92.9023 121.649 93.3385 121.035 93.948 120.637C94.1687 120.471 94.3539 120.262 94.493 120.023C94.793 119.415 94.23 118.864 93.954 118.364C93.236 117.216 93.137 115.574 94.388 114.895C94.679 114.805 94.976 114.734 95.277 114.683C95.4534 114.64 95.6194 114.562 95.7652 114.453C95.9109 114.345 96.0336 114.208 96.126 114.052C96.517 113.377 96.058 112.673 95.637 112.142C95.2576 111.781 95.0255 111.293 94.9856 110.771C94.9457 110.249 95.1008 109.73 95.421 109.316C95.632 109.042 95.908 108.823 96.224 108.68C96.8573 108.63 97.4915 108.764 98.05 109.067C100.284 109.938 104.582 112.472 105.717 109.467C105.828 109.17 105.899 108.86 105.928 108.544C108.472 109.324 108.97 110.439 111.728 111.976C114.58 113.375 117.69 114.17 120.864 114.312C124.198 114.638 127.683 114.768 130.878 113.629C133.839 112.522 136.578 110.897 138.969 108.829C141.487 106.746 143.771 104.395 145.78 101.818C146.227 102.265 162.68 118.731 162.811 118.867C158.476 124.772 153.041 129.784 146.805 133.627C144.978 134.787 142.995 135.681 140.917 136.285C127.207 140.137 115.018 137.279 102.089 131.319ZM93.5 119.542C93.513 119.467 93.548 119.477 93.512 119.526L93.5 119.542ZM145.788 150.842C142.208 158.625 138.43 167.57 130.088 170.071C123.17 172.145 116.908 167.995 115.393 161.033C114.269 155.87 116.102 149.32 116.693 147.433C117.241 145.676 118.412 142.363 119.565 138.319C126.764 139.601 134.158 139.269 141.213 137.349C142.036 137.125 142.843 136.848 143.629 136.518C145.054 139.715 146.499 142.903 147.965 146.081C147.242 147.67 146.513 149.254 145.785 150.838L145.788 150.842ZM183.514 160.266C183.172 162.515 182.213 164.624 180.745 166.361C179.276 168.098 177.355 169.393 175.194 170.104C168.956 171.964 162.648 168.471 159.164 164.183C155.497 159.671 153.664 155.454 149.032 145.721C147.527 142.52 146.064 139.299 144.644 136.059C147.669 134.534 150.516 132.678 153.131 130.525C154.852 130.525 174.499 130.549 177.731 130.547C178.906 136.34 180.039 140.2 181.039 143.61C182.53 148.7 184.33 155.028 183.511 160.262L183.514 160.266Z" fill="black"/>
<path d="M194.871 178.931C185.807 172.11 173.898 172.131 165.231 178.989C165.148 179.065 165.09 179.165 165.064 179.275C165.039 179.385 165.046 179.5 165.087 179.605C165.127 179.71 165.198 179.801 165.291 179.865C165.383 179.93 165.493 179.965 165.606 179.966H194.579C194.699 179.962 194.814 179.92 194.908 179.846C195.002 179.772 195.07 179.67 195.102 179.555C195.135 179.44 195.13 179.317 195.088 179.205C195.047 179.093 194.971 178.997 194.871 178.931ZM167.341 178.844C175.053 173.644 184.653 173.644 192.751 178.844H167.341Z" fill="black"/>
<path d="M134.48 178.937C130.246 175.627 125.024 173.833 119.649 173.842C114.275 173.851 109.059 175.663 104.836 178.987C104.75 179.06 104.688 179.158 104.659 179.267C104.63 179.377 104.635 179.492 104.674 179.599C104.712 179.705 104.782 179.797 104.874 179.863C104.966 179.928 105.076 179.964 105.189 179.966H134.18C134.298 179.961 134.412 179.919 134.506 179.846C134.599 179.773 134.667 179.672 134.701 179.559C134.734 179.445 134.73 179.324 134.69 179.213C134.651 179.101 134.577 179.005 134.48 178.937ZM132.358 178.844H106.943C110.704 176.329 115.126 174.987 119.65 174.987C124.175 174.987 128.597 176.329 132.358 178.844Z" fill="black"/>
</svg>
