<svg width="200" height="200" viewBox="0 0 200 200" fill="none" xmlns="http://www.w3.org/2000/svg">
<path d="M31.078 117.043C36.1059 119.858 41.396 122.176 46.8735 123.965C55.8089 126.839 64.9646 127.581 76.6121 125.545C85.8741 124.076 94.6751 120.5 102.337 115.092C103.076 114.569 103.056 114.575 103.145 114.557C97.351 113.389 88.8055 112.31 82.9776 111.712C79.6884 113.457 75.9925 114.292 72.2725 114.13C68.5524 113.968 64.9433 112.814 61.8185 110.789C52.695 111.364 39.0097 113.634 30.8147 117.006C30.8006 117.015 30.7871 117.024 30.7743 117.035C30.8214 117.01 30.8741 116.998 30.9272 116.999C30.9804 117.001 31.0323 117.016 31.078 117.043ZM49.0608 117.566L86.3742 116.184C86.8146 116.168 86.8127 116.852 86.3742 116.869L49.0608 118.25C48.6213 118.267 48.6231 117.583 49.0626 117.563L49.0608 117.566Z" fill="white"/>
<path d="M115.486 160.673C115.205 155.085 114.894 149.398 113.608 143.938C112.098 137.529 108.989 131.489 103.481 127.927C103.481 123.588 103.587 119.25 103.529 114.911C103.526 114.854 103.512 114.799 103.485 114.749C103.459 114.7 103.421 114.657 103.375 114.624C103.441 114.677 103.485 114.752 103.502 114.835C103.518 114.919 103.505 115.005 103.465 115.08C103.44 115.129 103.404 115.173 103.359 115.206C98.9226 118.443 94.064 121.057 88.9185 122.975C79.5479 126.346 69.592 127.785 59.6505 127.205C49.6499 126.432 40.0529 122.709 31.2524 117.909L30.7377 117.634C30.6776 117.603 30.6293 117.554 30.5999 117.493C30.5706 117.433 30.5619 117.364 30.5753 117.298C30.5523 117.39 30.5753 117.085 30.5643 130.607C22.0912 136.962 18.7479 148.17 18.2699 158.555C17.8112 168.472 18.2295 180.193 18.5057 190.656C18.5663 189.768 20.6609 189.28 21.5426 189.081C21.1538 185.618 21.6833 182.114 23.0778 178.92C24.4724 175.727 26.6829 172.957 29.4871 170.889C32.2912 168.82 35.5901 167.526 39.0526 167.136C42.5151 166.746 46.0192 167.274 49.2132 168.666C48.1946 171.635 47.848 174.793 48.1985 177.912C48.549 181.031 49.5878 184.034 51.2399 186.702L52.284 186.676C42.8696 172.906 53.919 153.699 71.2164 155.81C75.7092 156.357 79.8721 158.448 82.9924 161.727C78.6757 164.032 75.2886 167.759 73.4047 172.276C71.5209 176.793 71.256 181.822 72.655 186.512L73.5074 186.519C72.103 182.14 72.2594 177.41 73.9499 173.134C75.6405 168.857 78.7607 165.299 82.7795 163.064C86.0706 161.363 89.7559 160.569 93.4556 160.766C97.1553 160.963 100.736 162.143 103.828 164.184C107.612 166.828 110.356 170.709 111.587 175.159C112.818 179.608 112.459 184.348 110.571 188.561C112.314 188.781 114.028 189.194 115.679 189.796C115.859 189.873 116.017 189.993 116.14 190.146C116.262 190.298 116.344 190.479 116.38 190.672C116.185 180.485 115.493 160.782 115.486 160.673Z" fill="white"/>
<path d="M175.599 167.072C168.834 139.272 156.968 103.053 152.786 80.293C152.786 80.3205 152.794 80.348 152.797 80.3755C152.803 80.4153 152.801 80.456 152.79 80.4949C152.78 80.5337 152.76 80.5696 152.734 80.6002C152.708 80.6308 152.675 80.6553 152.639 80.672C152.602 80.6886 152.562 80.6971 152.522 80.6967C152.358 80.7655 130.936 82.8574 130.832 82.9418C130.912 82.8775 130.812 83.0335 130.522 83.217C127.014 85.7988 121.812 88.0384 117.563 87.4375C116.965 87.3448 116.373 87.2137 115.791 87.0448C114.866 86.786 109.809 85.3309 109.577 85.2584C109.464 85.2115 109.348 85.1717 109.231 85.1392C109.139 85.1392 108.979 85.1648 100.862 85.9933C100.813 85.9933 100.764 85.9827 100.72 85.9622C100.675 85.9418 100.635 85.9119 100.603 85.8746C100.571 85.8373 100.547 85.7935 100.534 85.7463C100.52 85.699 100.517 85.6493 100.524 85.6007C100.315 86.7016 99.9733 87.7879 99.6613 88.8642C99.065 90.9258 93.1949 109.64 92.1755 112.806C95.8299 113.297 99.5311 113.833 103.145 114.561C103.194 114.558 103.243 114.565 103.289 114.582C103.334 114.598 103.377 114.624 103.412 114.657C103.448 114.69 103.477 114.73 103.497 114.775C103.517 114.819 103.528 114.867 103.529 114.916C103.587 119.255 103.483 123.594 103.481 127.933C114.604 135.126 115.06 150.561 115.618 163.765C116.489 160.793 125.699 126.36 126.445 123.536C128.73 131.977 139.381 173.036 140.185 175.783C140.211 175.87 140.269 175.942 140.347 175.987C140.426 176.031 140.518 176.044 140.605 176.022C149.813 174.631 158.911 172.592 167.832 169.92C170.358 169.163 172.851 168.307 175.362 167.498C175.448 167.47 175.521 167.411 175.565 167.332C175.609 167.253 175.621 167.16 175.599 167.072ZM126.06 119.765C125.724 118.595 124.424 113.283 121.698 105.499C121.552 105.084 122.212 104.906 122.357 105.316C123.917 109.782 125.58 115.028 126.72 119.582C126.732 119.625 126.735 119.67 126.73 119.715C126.725 119.76 126.71 119.803 126.688 119.842C126.666 119.881 126.637 119.915 126.601 119.943C126.566 119.971 126.525 119.991 126.482 120.003C126.439 120.015 126.393 120.019 126.349 120.013C126.304 120.008 126.261 119.994 126.222 119.972C126.183 119.949 126.148 119.92 126.12 119.884C126.093 119.849 126.072 119.809 126.06 119.765ZM141.382 145.574L139.656 140.449C139.514 140.031 140.175 139.853 140.315 140.266L142.042 145.391C142.181 145.812 141.521 145.99 141.381 145.575L141.382 145.574ZM167.754 168.827C167.754 168.827 151.619 105.911 150.4 100.412C149.174 94.8774 148.234 89.2926 147.324 83.7005C147.253 83.2693 147.913 83.0858 147.984 83.517C150.527 99.1547 151.687 103.342 155.639 118.776C157.059 124.317 167.042 163.091 168.412 168.645C168.424 168.688 168.427 168.733 168.422 168.778C168.416 168.822 168.402 168.865 168.38 168.905C168.358 168.944 168.328 168.978 168.293 169.006C168.257 169.034 168.217 169.054 168.174 169.066C168.13 169.078 168.085 169.082 168.04 169.076C167.996 169.071 167.953 169.056 167.913 169.034C167.874 169.012 167.84 168.983 167.812 168.947C167.784 168.912 167.764 168.871 167.752 168.828L167.754 168.827Z" fill="white"/>
<path d="M152.786 80.2947C150.703 61.7523 142.591 46.199 133.603 37.3351C131.478 35.3078 128.926 33.782 126.135 32.8697C119.479 30.576 112.264 31.1466 107.392 36.1543C104.929 38.6866 103.636 42.2006 102.787 45.5632C101.54 50.8229 100.837 56.1972 100.692 61.6009C100.916 61.6523 101.418 61.7614 101.444 61.7669C101.531 61.7926 101.604 61.8508 101.648 61.9294C101.693 62.0079 101.705 62.1007 101.683 62.1881C100.957 65.8452 98.9788 77.0936 98.0439 80.9608C98.0344 81.0041 98.016 81.045 97.9901 81.0809C97.9641 81.1168 97.9311 81.1469 97.893 81.1696C97.8549 81.1922 97.8125 81.2067 97.7686 81.2123C97.7246 81.2179 97.68 81.2145 97.6375 81.2021C98.6283 81.5655 99.622 81.9224 100.617 82.2756C100.617 83.3812 100.625 84.4959 100.525 85.5969C100.517 85.6456 100.52 85.6954 100.534 85.7428C100.548 85.7901 100.571 85.834 100.604 85.8712C100.636 85.9086 100.676 85.9385 100.721 85.9591C100.765 85.9797 100.814 85.9904 100.863 85.9905C109.19 85.1391 109.14 85.1327 109.232 85.1345C109.733 85.273 108.445 84.9969 115.792 87.0401C116.374 87.2099 116.965 87.3411 117.564 87.4328C121.431 87.9833 126.113 86.1483 129.377 84.0124C129.628 83.8473 130.578 83.2023 130.787 83.0188C130.787 83.0188 130.911 82.8793 130.833 82.9417C130.925 82.8683 152.341 80.7737 152.523 80.6966C152.559 80.6968 152.595 80.6899 152.628 80.6761C152.662 80.6624 152.692 80.6421 152.718 80.6165C152.743 80.5909 152.764 80.5605 152.777 80.527C152.791 80.4935 152.798 80.4576 152.798 80.4214C152.796 80.3787 152.792 80.3361 152.786 80.2938V80.2947ZM109.146 85.1217C106.306 84.4665 103.534 83.5449 100.867 82.3692C100.461 82.2086 100.639 81.5434 101.051 81.7095C102.403 82.2462 103.746 82.8215 105.125 83.2876C106.994 83.9207 109.197 84.4014 109.351 84.4803C109.437 84.5072 109.509 84.5672 109.551 84.647C109.592 84.7268 109.601 84.82 109.574 84.906C109.547 84.9921 109.487 85.0639 109.407 85.1057C109.327 85.1475 109.234 85.1559 109.148 85.129L109.146 85.1217ZM121.101 80.6718L117.681 82.3811C117.288 82.5775 116.942 81.9875 117.336 81.7903L120.755 80.0801C121.153 79.8837 121.495 80.4746 121.101 80.6709V80.6718ZM125.205 43.6135C120.955 50.0667 117.553 57.0404 115.084 64.3625C114.867 64.5369 114.626 64.6763 114.367 64.7791C110.493 63.9508 106.585 63.2927 102.653 62.8065C102.221 62.7533 102.218 62.0725 102.653 62.122C106.613 62.612 110.547 63.2707 114.453 64.1001C116.936 56.749 120.351 49.7465 124.615 43.2639C124.856 42.8978 125.448 43.2401 125.205 43.6126V43.6135ZM141.412 67.1012C139.022 71.7964 136.331 76.3321 133.355 80.6801C133.109 81.0416 132.516 80.6984 132.765 80.3342C135.741 75.9858 138.433 71.4501 140.826 66.7553C141.021 66.3608 141.613 66.7076 141.412 67.1003V67.1012Z" fill="#DAF8FF"/>
<path d="M110.251 24.2819C110.264 24.3397 110.262 24.3998 110.245 24.4566C110.229 24.5134 110.198 24.5651 110.156 24.6067C110.114 24.6483 110.062 24.6786 110.005 24.6946C109.948 24.7107 109.888 24.712 109.83 24.6985C109.541 24.6581 103.384 23.8424 102.35 23.6745C102.275 23.6525 102.21 23.6055 102.164 23.5414C102.119 23.4772 102.097 23.3996 102.102 23.3213C102.105 23.2694 102.12 23.2189 102.146 23.1736C101.045 25.2471 101.155 28.1179 103.327 29.4382C104.311 30.03 105.478 30.2416 106.608 30.0333C107.738 29.8249 108.753 29.211 109.462 28.3069C109.869 27.7295 110.15 27.0726 110.286 26.3792C110.422 25.6857 110.41 24.9713 110.251 24.2828V24.2819Z" fill="white"/>
<path d="M95.1235 22.0195C94.6858 21.9764 94.6886 22.6618 95.1235 22.704L98.9879 23.0912C99.4256 23.1352 99.4219 22.4489 98.9879 22.4076L95.1235 22.0195Z" fill="black"/>
<path d="M86.3797 116.187L49.0626 117.563C48.6241 117.58 48.6213 118.264 49.0626 118.248L86.3797 116.869C86.8146 116.852 86.8173 116.168 86.3797 116.187Z" fill="white"/>
<path d="M77.0323 137.829C61.1533 141.018 44.5981 139.278 31.0743 130.476C30.7073 130.235 30.3615 130.827 30.7294 131.067C43.8082 139.583 59.7468 141.587 75.302 138.849C85.2027 137.129 94.6991 133.589 103.31 128.409C103.685 128.179 103.341 127.588 102.965 127.818C94.9662 132.632 86.1913 136.019 77.0323 137.829Z" fill="white"/>
<path d="M32.7625 140.573C30.2697 144.065 28.7665 148.166 28.4118 152.442C28.3742 152.881 29.054 152.878 29.0962 152.442C29.4591 148.289 30.9292 144.31 33.3534 140.918C33.6094 140.559 33.0157 140.217 32.7625 140.573Z" fill="black"/>
<path d="M71.8366 93.7735C73.1211 94.1405 74.334 93.4827 76.0451 92.8313C74.7542 91.6385 74.5689 91.533 73.3844 90.4403C72.7374 90.4424 72.0968 90.3113 71.5027 90.0549C71.0439 90.5183 70.7136 91.0935 70.542 91.7229C70.4872 91.9428 70.4775 92.1715 70.5135 92.3953C70.5494 92.619 70.6303 92.8331 70.7513 93.0248C70.8723 93.2164 71.0308 93.3815 71.2173 93.5102C71.4039 93.6389 71.6145 93.7285 71.8366 93.7735Z" fill="#44A2FF"/>
<path d="M82.3492 92.356C81.8953 92.1109 81.3682 92.0379 80.8647 92.1505C79.6656 92.3769 78.484 92.6878 77.3287 93.0808C78.6622 94.3583 79.9053 95.7268 81.0492 97.1765C83.2979 95.6186 83.5356 93.1432 82.3492 92.356Z" fill="#44A2FF"/>
<path d="M59.8202 105.285C57.2456 102.701 55.3934 99.4863 54.4485 95.9627C53.5035 92.439 53.4987 88.7293 54.4346 85.2032C54.2769 85.163 54.1216 85.114 53.9694 85.0564C51.8053 90.1256 51.7315 95.8446 53.7642 100.968C55.7968 106.091 59.7712 110.204 64.822 112.411C69.8728 114.618 75.591 114.74 80.7313 112.751C85.8717 110.761 90.0179 106.822 92.2673 101.79C90.579 104.428 88.3202 106.653 85.6574 108.302C82.9947 109.951 79.9958 110.981 76.8819 111.317C73.7679 111.653 70.6181 111.285 67.6651 110.241C64.7121 109.197 62.0312 107.504 59.8202 105.285Z" fill="#44A2FF"/>
<path d="M90.0065 80.8193C90.0065 81.2084 90.001 81.5974 89.9909 81.9855C89.9258 84.5095 89.835 87.3225 88.2587 89.2483C87.7214 89.9882 86.9413 90.516 86.0546 90.7395C85.1679 90.963 84.2309 90.8681 83.407 90.4713C80.7729 89.1612 80.104 85.7747 79.638 82.8938C79.4233 86.3142 77.6305 89.8025 74.3119 90.3594C75.1276 91.0934 75.9533 91.8155 76.7644 92.555C77.9269 92.1406 79.1163 91.8059 80.3242 91.5531C80.8218 91.4407 81.3343 91.4097 81.8418 91.4613C82.3404 91.5486 82.7951 91.8013 83.1325 92.1787C83.4699 92.556 83.6703 93.036 83.7015 93.5413C83.7267 94.3698 83.5348 95.1906 83.1449 95.9221C82.7549 96.6536 82.1804 97.2704 81.4785 97.7113C81.9069 98.2471 82.3345 98.7847 82.7629 99.3242C83.0327 99.6664 82.5519 100.15 82.2794 99.8077C81.8308 99.237 81.3766 98.67 80.9225 98.103C79.586 98.9857 78.1805 99.7589 76.7194 100.415C76.3203 100.599 75.9735 100.006 76.3735 99.8251C77.8018 99.1818 79.1781 98.4291 80.4903 97.5736C79.2963 96.0764 77.9972 94.666 76.6029 93.3532C76.2845 93.4697 75.9607 93.5789 75.646 93.7064C74.6232 94.2463 73.4874 94.537 72.3311 94.5551C71.8678 94.5407 71.4157 94.4095 71.0166 94.1737C70.6176 93.9379 70.2845 93.6052 70.0484 93.2064C69.4538 92.0247 70.0346 90.7209 70.898 89.7199C68.962 88.4877 68.5886 85.683 68.0537 83.4103L66.527 76.9329C64.6034 79.5975 62.2828 81.9516 59.6459 83.9131C58.3533 84.9176 56.7391 85.4166 55.1052 85.3169C53.8539 89.9792 54.3119 94.9354 56.3966 99.2894C58.4812 103.643 62.0549 107.108 66.4715 109.056C70.888 111.005 75.856 111.309 80.4773 109.914C85.0985 108.518 89.068 105.515 91.6681 101.448C92.0149 100.922 92.3351 100.379 92.625 99.8196C92.6446 99.779 92.673 99.7431 92.708 99.7147C92.7431 99.6862 92.7841 99.666 92.828 99.6552C92.8718 99.6445 92.9175 99.6437 92.9618 99.6528C93.006 99.6618 93.0477 99.6806 93.0838 99.7077C94.1165 96.5424 94.376 93.1758 93.8406 89.8896C93.3052 86.6034 91.9905 83.4932 90.0065 80.8193Z" fill="#44A2FF"/>
<path d="M106.509 20.768C105.625 20.6943 104.739 20.8837 103.963 21.3122C103.187 21.7408 102.554 22.3894 102.146 23.1764C102.102 23.2565 102.091 23.3507 102.116 23.4388C102.14 23.5268 102.199 23.6016 102.278 23.6471C102.397 23.7131 108.452 24.5022 109.83 24.7022C109.888 24.7163 109.948 24.7153 110.005 24.6995C110.062 24.6836 110.115 24.6533 110.157 24.6116C110.199 24.5698 110.23 24.5179 110.246 24.4609C110.263 24.4038 110.264 24.3435 110.251 24.2856C110.052 23.3918 109.588 22.5784 108.921 21.9512C108.253 21.3239 107.413 20.9117 106.509 20.768Z" fill="black"/>
<path d="M81.4812 97.7114C82.1819 97.2692 82.7554 96.6521 83.1452 95.9209C83.535 95.1898 83.7276 94.3697 83.7043 93.5414C83.6731 93.0362 83.4726 92.5562 83.1352 92.1788C82.7978 91.8015 82.3431 91.5488 81.8445 91.4615C81.3371 91.4093 80.8245 91.4403 80.327 91.5532C79.1183 91.8066 77.928 92.1414 76.7644 92.5551C76.0909 91.9404 75.3202 91.2706 74.3119 90.3596C74.0057 90.4136 73.6953 90.4403 73.3843 90.4394C74.4716 91.4431 75.2927 92.1505 76.0451 92.8304C75.7194 92.9542 75.3524 93.0891 75.0358 93.2203C74.0621 93.7569 72.9364 93.9507 71.8393 93.7708C71.6178 93.7246 71.4079 93.6343 71.2221 93.5053C71.0362 93.3763 70.8782 93.2112 70.7574 93.0199C70.6366 92.8286 70.5556 92.6149 70.519 92.3917C70.4825 92.1684 70.4912 91.94 70.5447 91.7202C70.7154 91.09 71.0463 90.5147 71.5053 90.0504C71.2952 89.958 71.0933 89.8481 70.9016 89.7219C70.0392 90.7183 69.4575 92.0221 70.052 93.2084C70.2882 93.6067 70.6212 93.9389 71.0201 94.1741C71.419 94.4093 71.8709 94.5397 72.3338 94.5534C73.6128 94.6635 74.645 94.0717 76.6056 93.3515C78.0003 94.664 79.2994 96.0744 80.4931 97.572C79.1804 98.4266 77.8041 99.1793 76.3763 99.8235C75.9762 100.007 76.324 100.594 76.7222 100.413C78.1831 99.7571 79.5887 98.9839 80.9252 98.1014C81.3399 98.6115 81.7886 99.1776 82.2822 99.8061C82.5574 100.152 83.0354 99.6648 82.7657 99.3225C82.2932 98.728 81.8693 98.1931 81.4812 97.7114ZM77.3286 93.0809C78.4843 92.6885 79.6658 92.3771 80.8646 92.1487C81.3681 92.0361 81.8952 92.1091 82.3491 92.3542C83.5336 93.1387 83.2868 95.6159 81.0491 97.1747C79.9095 95.722 78.6661 94.3538 77.3286 93.0809Z" fill="black"/>
<path d="M182.579 181.665C180.915 180.627 179.116 179.827 177.231 179.286C167.19 176.378 153.388 177.117 140.647 182.564C140.315 182.706 140.512 183.191 140.82 183.201C152.819 183.589 170.303 183.009 182.404 182.332C182.486 182.338 182.567 182.315 182.633 182.267C182.699 182.219 182.747 182.15 182.768 182.071C182.788 181.992 182.781 181.908 182.746 181.834C182.712 181.759 182.652 181.7 182.579 181.665Z" fill="black"/>
<path d="M101.444 61.7668C92.5424 59.6423 83.4755 58.2828 74.3423 57.7032C71.5871 57.5381 68.8649 58.3693 66.6712 60.0438C64.6819 61.6294 62.9316 63.4937 61.4745 65.579C57.5155 71.0747 57.3228 71.9032 53.985 77.2311C53.0935 78.3861 52.4326 79.7019 52.0381 81.1066C51.9356 81.6397 51.9422 82.1881 52.0573 82.7187C52.1724 83.2493 52.3937 83.7511 52.7079 84.1939C53.3306 84.8641 54.1875 85.2686 55.1007 85.3234C56.7345 85.4228 58.3487 84.9238 59.6413 83.9196C62.2784 81.9582 64.5991 79.6041 66.5225 76.9393L68.0492 83.4168C68.7006 86.1812 69.0741 88.997 71.4971 90.0548C72.6535 90.5336 73.9459 90.5689 75.1267 90.1539C77.971 89.1731 79.4389 85.9702 79.6325 82.8966C80.1032 85.8078 80.7757 89.1667 83.4016 90.4732C84.2254 90.8702 85.1625 90.9652 86.0492 90.7417C86.936 90.5181 87.7161 89.9903 88.2533 89.2502C89.8295 87.3235 89.9222 84.5205 89.9855 81.9874C90.0167 80.7304 90.0029 79.6019 89.9222 78.2715C90.6433 78.5541 97.5373 81.1891 97.6291 81.2029C97.6716 81.2154 97.7163 81.219 97.7603 81.2134C97.8043 81.2079 97.8467 81.1933 97.8848 81.1707C97.923 81.1481 97.956 81.1178 97.982 81.0818C98.0079 81.0459 98.0261 81.0049 98.0355 80.9616C98.9851 77.0348 100.947 65.8551 101.674 62.1898C101.698 62.1033 101.687 62.011 101.644 61.9324C101.601 61.8537 101.53 61.7947 101.444 61.7677V61.7668ZM78.1627 70.8628C77.9329 71.942 77.5628 72.9864 77.0617 73.9694C76.8617 74.3621 76.2727 74.0153 76.4718 73.6235C76.9427 72.6919 77.29 71.7027 77.5049 70.6811C77.5939 70.2536 78.2535 70.4371 78.1627 70.8628ZM66.1656 71.606C66.5491 70.7674 66.8308 69.8857 67.006 68.9801C67.0904 68.5489 67.7501 68.7324 67.6657 69.1636C67.4743 70.1261 67.1691 71.0624 66.7565 71.9528C66.5721 72.3546 65.983 72.0078 66.1656 71.6096V71.606Z" fill="white"/>
<path d="M30.733 117.634L31.2478 117.909C48.0011 127.05 60.4368 128.692 74.9028 126.506C85.1787 124.953 94.8069 121.538 103.359 115.207C103.421 115.163 103.468 115.1 103.492 115.027C103.515 114.954 103.515 114.876 103.491 114.803C103.467 114.731 103.42 114.668 103.358 114.624C103.296 114.579 103.221 114.556 103.145 114.557C103.058 114.573 103.072 114.572 102.337 115.092C94.6752 120.5 85.8742 124.076 76.6121 125.545C59.4395 128.547 47.0689 125.678 31.078 117.043C30.6798 116.829 30.3514 117.437 30.733 117.634Z" fill="white"/>
<path d="M28.7246 78.322C28.6563 78.2831 28.5767 78.2689 28.4991 78.2817C28.4215 78.2945 28.3506 78.3335 28.2984 78.3923C28.2462 78.4511 28.2157 78.5261 28.2121 78.6046C28.2086 78.6832 28.2321 78.7606 28.2787 78.8239C28.3059 78.8596 28.3399 78.8895 28.3788 78.912C29.7449 79.7588 40.0309 86.0207 40.5401 86.3133C40.5795 86.335 40.6228 86.3487 40.6675 86.3535C40.7122 86.3583 40.7574 86.3542 40.8005 86.3414C40.8436 86.3286 40.8838 86.3074 40.9186 86.2789C40.9534 86.2505 40.9823 86.2154 41.0034 86.1757C41.0452 86.0993 41.0563 86.0099 41.0343 85.9256C41.0123 85.8413 40.9589 85.7687 40.8851 85.7225C40.0749 85.2206 29.1788 78.5973 28.7246 78.3211V78.322Z" fill="black"/>
<path d="M20.0351 90.1229H40.7126C40.8033 90.1229 40.8904 90.0869 40.9546 90.0227C41.0187 89.9585 41.0548 89.8715 41.0548 89.7807C41.0548 89.6899 41.0187 89.6029 40.9546 89.5387C40.8904 89.4745 40.8033 89.4385 40.7126 89.4385H20.0351C19.9443 89.4385 19.8573 89.4745 19.7931 89.5387C19.7289 89.6029 19.6929 89.6899 19.6929 89.7807C19.6929 89.8715 19.7289 89.9585 19.7931 90.0227C19.8573 90.0869 19.9443 90.1229 20.0351 90.1229Z" fill="black"/>
<path d="M40.5401 92.9267L28.3375 99.5693C27.9503 99.7803 28.2953 100.37 28.6825 100.16L40.8851 93.5175C41.2714 93.3065 40.9264 92.7156 40.5401 92.9267Z" fill="black"/>
<path d="M83.0337 139.531C79.5927 140.575 76.5101 142.557 74.1305 145.253C71.751 147.949 70.1683 151.254 69.5594 154.799C70.2127 154.84 70.8641 154.908 71.5128 155C71.4847 154.961 71.4669 154.915 71.4613 154.867C71.4557 154.819 71.4624 154.77 71.4807 154.725C71.6504 154.302 71.8091 153.875 71.9972 153.458C77.8068 140.549 94.8748 136.936 104.399 146.461C105.904 147.971 107.12 149.743 107.986 151.691C104.445 141.601 93.2885 136.324 83.0337 139.531Z" fill="#44A2FF"/>
<path d="M108.616 156.036C108.554 155.62 108.457 155.21 108.355 154.803C107.512 151.414 105.64 148.37 102.997 146.087C93.1554 137.595 76.9268 142.156 72.1403 154.904C72.0146 155.24 71.5742 154.919 73.3229 155.344C77.45 156.351 81.1858 158.558 84.0576 161.689C84.0897 161.676 84.1227 161.666 84.1548 161.652C87.9805 159.985 92.2181 159.505 96.3198 160.273C100.422 161.04 104.199 163.021 107.163 165.958C108.603 162.943 109.224 159.603 108.963 156.272C108.924 156.282 108.884 156.283 108.845 156.276C108.806 156.27 108.769 156.255 108.736 156.232C108.703 156.21 108.676 156.181 108.655 156.147C108.634 156.113 108.621 156.076 108.616 156.036Z" fill="#44A2FF"/>
<path d="M48.5287 171.236C48.4585 171.268 48.3786 171.27 48.3067 171.243C37.0519 167.078 24.2382 175.905 22.6794 188.236C22.6243 188.669 21.9454 188.673 21.9949 188.236C23.5317 175.526 36.5693 166.321 48.4875 170.584C48.5498 170.607 48.604 170.648 48.6434 170.701C48.8031 170.016 48.9902 169.337 49.2123 168.666C46.0181 167.272 42.5134 166.743 39.0501 167.133C35.5868 167.522 32.2871 168.817 29.4825 170.885C26.6778 172.954 24.4671 175.725 23.0724 178.919C21.6777 182.113 21.1482 185.617 21.5371 189.081C28.4889 187.539 44.1275 186.894 51.2372 186.703C48.3616 182.094 47.3904 176.548 48.5287 171.236Z" fill="#44A2FF"/>
<path d="M65.9317 173.721C64.9225 175.528 66.3739 177.176 69.0337 176.337C69.7622 176.108 70.4678 175.807 71.1788 175.523C69.8943 174.366 68.5686 173.257 67.363 172.029C66.7863 172.5 66.3011 173.074 65.9317 173.721Z" fill="#44A2FF"/>
<path d="M72.1586 176.418C72.1265 176.401 71.7586 176.056 71.732 176.031C70.634 176.529 69.4916 176.923 68.3199 177.207C67.812 177.307 67.2875 177.281 66.7918 177.132C66.2962 176.983 65.8444 176.715 65.4756 176.352C64.1792 174.87 65.36 172.805 66.8895 171.531C66.4308 171.042 66.0014 170.525 65.605 169.983C65.3454 169.626 65.939 169.286 66.1959 169.637C66.5695 170.147 66.9737 170.633 67.406 171.094C68.4974 170.197 69.6791 169.416 70.932 168.764C71.3219 168.561 71.6659 169.153 71.2769 169.354C70.0684 169.977 68.9303 170.727 67.8822 171.592C69.1484 172.881 70.5613 174.032 71.8981 175.249C72.2449 175.123 72.3293 175.066 72.4623 175.106C73.1463 172.415 74.3594 169.887 76.0307 167.67C77.702 165.453 79.7982 163.591 82.1969 162.193C79.4971 160.106 76.2494 158.849 72.8486 158.574C58.6926 157.418 47.647 171.686 52.1941 184.877C52.3381 185.295 51.6775 185.472 51.5344 185.06C50.2688 181.356 50.134 177.36 51.1472 173.58C54.9814 159.175 72.0128 153.256 82.7226 161.744C82.8676 161.859 82.7043 161.879 82.9905 161.726C79.5598 158.121 74.881 155.964 69.9117 155.695C53.3969 154.745 43.0678 173.193 52.2821 186.676C59.0715 186.498 65.8636 186.443 72.655 186.512C71.6496 183.241 71.4789 179.771 72.1586 176.418Z" fill="#44A2FF"/>
<path d="M98.8778 182.452C98.6204 182.02 98.2661 181.655 97.8429 181.384C96.9644 180.75 96.0449 180.174 95.0904 179.662C95.0455 181.503 94.8751 183.34 94.5803 185.158C97.4401 185.846 99.6375 183.939 98.8778 182.452Z" fill="#44A2FF"/>
<path d="M91.7158 173.622C91.3031 173.779 90.9692 174.093 90.7865 174.496C90.6037 174.898 90.5869 175.356 90.7396 175.77C91.2497 177.209 92.9058 177.782 94.4096 178.532C94.4151 176.612 94.3178 175.169 94.416 173.371C93.5095 173.218 92.5787 173.304 91.7158 173.622Z" fill="#44A2FF"/>
<path d="M112.161 178.051C112.08 177.917 112.116 177.709 111.784 176.515C110.803 172.948 108.717 169.784 105.824 167.479C102.932 165.173 99.3822 163.845 95.6867 163.684C92.8634 163.591 90.0515 164.086 87.4296 165.137C84.8078 166.189 82.4334 167.775 80.4573 169.793C78.4812 171.812 76.9462 174.219 75.9497 176.862C74.9533 179.505 74.5171 182.327 74.6688 185.147C74.6954 185.588 74.0119 185.585 73.9844 185.147C73.7073 180.404 75.0712 175.71 77.847 171.854C85.9319 160.548 102.069 160.006 109.598 170.465C102.111 157.671 83.2565 157.351 75.4872 170.056C73.9881 172.495 73.0349 175.229 72.6933 178.071C72.3517 180.913 72.6297 183.796 73.5082 186.52C81.6142 186.604 88.266 186.813 93.5939 187.07C93.6682 186.611 93.7416 186.15 93.8132 185.689C92.2349 185.287 90.6909 184.761 89.1954 184.116C88.7917 183.943 89.1404 183.354 89.5404 183.525C90.9564 184.133 92.4182 184.629 93.9123 185.007C94.2086 183.114 94.371 181.203 94.3985 179.287C92.792 178.456 91.3231 177.962 90.4469 176.7C90.1586 176.298 89.9915 175.822 89.9657 175.328C89.9398 174.834 90.0562 174.343 90.301 173.913C90.558 173.578 90.8799 173.299 91.2473 173.092C91.6148 172.884 92.0204 172.754 92.4397 172.707C93.1093 172.62 93.787 172.614 94.4582 172.689C94.5095 172.02 94.6022 171.354 94.7334 170.696C94.8197 170.264 95.4793 170.448 95.3931 170.879C95.2672 171.504 95.1793 172.136 95.1298 172.771C96.5271 172.96 97.8987 173.302 99.2218 173.789C99.6328 173.939 99.4539 174.601 99.0383 174.448C97.7588 173.979 96.4333 173.645 95.0839 173.453C94.9921 175.186 95.0839 176.994 95.0839 178.879C96.0607 179.389 97.0034 179.962 97.9061 180.595C98.3547 180.883 98.7649 181.227 99.1264 181.619C100.772 183.454 98.6502 186.674 94.4719 185.832C94.4059 186.26 94.3389 186.685 94.271 187.108C99.0924 187.356 105.791 187.842 110.566 188.559C112.049 185.269 112.601 181.634 112.161 178.051Z" fill="#44A2FF"/>
<path d="M148.936 47.1982C148.889 47.1224 148.814 47.068 148.728 47.0465C148.641 47.025 148.55 47.0381 148.473 47.0831C148.396 47.128 148.339 47.2013 148.316 47.2872C148.292 47.3731 148.302 47.4649 148.345 47.5431C152.401 54.5289 155.174 62.1844 156.531 70.1473C156.604 70.5813 157.265 70.3969 157.191 69.9638C156.142 63.7051 154.21 57.6272 151.451 51.9122C150.677 50.3112 149.864 48.7221 148.936 47.1982Z" fill="black"/>
<path d="M151.717 43.9805C156.625 51.8345 159.439 60.8145 159.893 70.0647C159.914 70.5024 160.598 70.5051 160.576 70.0647C160.121 60.6936 157.274 51.5951 152.307 43.6355C152.072 43.2639 151.482 43.6061 151.717 43.9796V43.9805Z" fill="black"/>
<path d="M116.382 190.672C116.347 190.48 116.265 190.299 116.142 190.146C116.02 189.993 115.861 189.873 115.681 189.797C104.676 184.956 13.4346 185.469 18.679 191.159C23.4454 196.331 116.313 196.192 116.383 190.732V190.71L116.382 190.672Z" fill="#DAF8FF"/>
<path d="M102.097 23.1443C100.968 25.238 101.111 28.1318 103.298 29.4869C103.899 29.8495 104.573 30.0746 105.271 30.1462C105.97 30.2179 106.675 30.1342 107.337 29.9012C108 29.6682 108.602 29.2917 109.102 28.7986C109.601 28.3055 109.986 27.708 110.227 27.049C110.469 26.3899 110.562 25.6856 110.499 24.9864C110.437 24.2872 110.22 23.6105 109.866 23.0048C109.511 22.399 109.027 21.8792 108.448 21.4825C107.869 21.0858 107.209 20.8221 106.516 20.7102C105.621 20.6341 104.724 20.8246 103.938 21.2576C103.152 21.6906 102.511 22.3468 102.097 23.1434V23.1443ZM106.776 29.2392C106.09 29.4482 105.356 29.4463 104.67 29.2337C103.984 29.021 103.378 28.6075 102.929 28.0465C102.632 27.6738 102.411 27.2456 102.281 26.7868C102.071 25.7722 102.207 24.7168 102.667 23.7884C104.135 24.0196 106.404 24.2682 109.578 24.7261C109.775 25.6944 109.595 26.7017 109.073 27.5412C108.552 28.3807 107.729 28.9886 106.773 29.2401H106.776V29.2392ZM109.353 23.893C108.057 23.7095 103.9 23.159 103.12 23.0434C103.486 22.5203 103.983 22.1021 104.56 21.8304C105.138 21.5587 105.777 21.443 106.413 21.4947C107.07 21.6005 107.688 21.878 108.204 22.2992C108.719 22.7203 109.114 23.2701 109.349 23.893H109.353Z" fill="black"/>
<path d="M95.1235 21.9608C94.6134 21.9103 94.6161 22.7085 95.1235 22.759L98.988 23.1462C99.4981 23.1976 99.4944 22.3994 98.988 22.3489L95.1235 21.9608Z" fill="black"/>
<path d="M86.3798 116.128L49.0664 117.51C48.5544 117.529 48.5517 118.327 49.0664 118.309C50.3041 118.262 86.3587 116.927 86.3798 116.926C86.8881 116.907 86.8908 116.109 86.3798 116.128Z" fill="black"/>
<path d="M29.1532 152.444C29.517 148.302 30.9846 144.332 33.4031 140.948C33.7012 140.53 33.0095 140.131 32.7131 140.546C30.2173 144.048 28.7118 148.159 28.355 152.444C28.311 152.956 29.1092 152.953 29.1532 152.444Z" fill="black"/>
<path d="M182.599 181.611C180.936 180.57 179.134 179.769 177.247 179.232C167.744 176.433 153.851 176.852 140.619 182.516C140.231 182.682 140.46 183.25 140.82 183.26C152.814 183.645 170.251 183.07 182.396 182.391C182.467 182.395 182.537 182.38 182.6 182.348C182.664 182.317 182.718 182.27 182.758 182.211C182.797 182.153 182.821 182.085 182.828 182.014C182.834 181.944 182.822 181.873 182.792 181.809C182.752 181.723 182.684 181.653 182.599 181.611ZM142.76 182.504C152.803 178.579 165.809 176.907 176.244 179.774C177.932 180.214 179.563 180.846 181.107 181.656C169.596 182.282 154.235 182.777 142.76 182.504Z" fill="black"/>
<path d="M141.325 145.59C141.489 146.074 142.259 145.865 142.094 145.378C141.52 143.67 140.945 141.961 140.369 140.254C140.205 139.769 139.435 139.979 139.599 140.466L141.325 145.59Z" fill="black"/>
<path d="M120.727 80.0325L117.307 81.7427C116.848 81.9721 117.252 82.6602 117.709 82.4308L121.13 80.7215C121.589 80.4912 121.186 79.8031 120.727 80.0325Z" fill="black"/>
<path d="M28.2109 78.4353C28.163 78.5244 28.1506 78.6284 28.1763 78.7263C28.202 78.8242 28.2639 78.9087 28.3495 78.9628C29.7257 79.7977 40.0016 86.0715 40.5099 86.3642C40.6008 86.4118 40.7065 86.4226 40.8051 86.3943C40.9037 86.366 40.9876 86.3008 41.0395 86.2123C41.0913 86.1237 41.107 86.0186 41.0834 85.9188C41.0598 85.8189 40.9986 85.732 40.9126 85.6761L28.7532 78.2729C28.7069 78.2479 28.6562 78.2323 28.6039 78.2269C28.5516 78.2216 28.4987 78.2266 28.4484 78.2417C28.398 78.2568 28.3511 78.2816 28.3104 78.3148C28.2696 78.3481 28.2358 78.389 28.2109 78.4353Z" fill="black"/>
<path d="M19.6498 89.7954C19.6532 89.8965 19.6949 89.9926 19.7664 90.0641C19.838 90.1356 19.934 90.1773 20.0351 90.1808H40.7117C40.8175 90.1808 40.919 90.1387 40.9939 90.0639C41.0687 89.989 41.1108 89.8875 41.1108 89.7817C41.1108 89.6758 41.0687 89.5743 40.9939 89.4995C40.919 89.4246 40.8175 89.3826 40.7117 89.3826H20.0351C19.9827 89.3843 19.9311 89.3964 19.8834 89.4181C19.8357 89.4399 19.7927 89.4708 19.7569 89.5091C19.7211 89.5475 19.6932 89.5925 19.6748 89.6416C19.6565 89.6907 19.6479 89.743 19.6498 89.7954Z" fill="black"/>
<path d="M28.7117 100.21L40.9143 93.5672C41.3658 93.3213 40.963 92.6314 40.5116 92.8782L28.309 99.5208C27.8585 99.7649 28.2603 100.456 28.7117 100.209V100.21Z" fill="black"/>
<path d="M66.8051 71.9843C67.2217 71.0898 67.5299 70.1494 67.7226 69.1814C67.8217 68.6795 67.0528 68.4658 66.9537 68.9704C66.78 69.8708 66.4997 70.7474 66.1188 71.5816C65.9032 72.0449 66.5913 72.4504 66.8051 71.9853V71.9843Z" fill="black"/>
<path d="M77.113 74.0027C77.6167 73.0157 77.9891 71.967 78.2204 70.8832C78.3278 70.3823 77.558 70.1676 77.4516 70.6713C77.2384 71.6882 76.8929 72.6728 76.424 73.5999C76.1882 74.0568 76.8763 74.4615 77.113 74.0027Z" fill="black"/>
<path d="M140.128 175.794C140.16 175.894 140.229 175.977 140.32 176.028C140.411 176.079 140.518 176.094 140.619 176.07C149.827 174.678 158.925 172.639 167.846 169.967C170.371 169.211 172.864 168.354 175.375 167.544C175.475 167.513 175.559 167.445 175.61 167.353C175.661 167.262 175.676 167.155 175.651 167.054C172.426 153.414 160.075 111.007 156.855 98.1996C155.387 92.3644 153.938 86.2539 152.838 80.2783C150.757 61.8991 142.917 46.5908 133.754 37.4095C131.599 35.2821 128.968 33.6983 126.079 32.789C122.859 31.6322 119.409 31.2666 116.019 31.7229C112.515 32.2072 109.297 33.9189 106.936 36.5534C104.499 39.3472 103.285 43.0887 102.453 46.6367C101.394 51.5346 100.783 56.5188 100.627 61.5275C93.4497 59.8678 86.1724 58.6774 78.8407 57.964C74.1138 57.5144 70.487 57.0979 66.6381 59.9953C64.6528 61.5984 62.8982 63.4679 61.424 65.5507C57.4495 71.0648 57.2274 71.9456 53.9336 77.2028C53.0404 78.3626 52.3776 79.6828 51.9812 81.0921C51.8777 81.6344 51.8852 82.1921 52.0033 82.7314C52.1214 83.2707 52.3477 83.7805 52.6684 84.2299C52.996 84.6171 53.4171 84.9116 53.8924 85.0859C51.9755 89.5938 51.7022 94.6316 53.1201 99.3204C54.538 104.009 57.5571 108.051 61.6507 110.742C52.5528 111.331 39.0263 113.566 30.7982 116.951C30.7421 116.971 30.6905 117.002 30.6466 117.042C30.6026 117.083 30.5671 117.131 30.5422 117.185C30.4863 117.295 30.5092 117.431 30.5009 130.581C22.1215 136.885 18.613 148.225 18.2066 158.556C17.9846 162.766 17.9855 166.989 18.0121 171.204C18.0286 173.881 18.2827 187.708 18.4497 190.917C18.4616 191.303 19.5617 191.835 19.9452 191.959C21.7582 192.5 23.6173 192.873 25.4988 193.074C56.0723 196.621 116.458 194.878 116.44 190.917C116.44 189.709 115.777 166.42 115.672 163.774C116.537 160.816 125.716 126.509 126.442 123.754C128.709 132.126 139.358 173.036 140.128 175.794V175.794ZM102.872 48.5203C103.593 44.9017 104.619 41.1161 106.773 38.0609C112.786 29.8457 125.348 31.1962 132.508 37.3195C135.648 40.4255 138.427 43.8757 140.792 47.6046C146.911 57.435 150.746 68.5129 152.015 80.0223C135.649 81.6995 131.796 82.0463 130.804 82.2178C130.419 82.2839 130.463 82.3243 130.377 82.4013C129.324 83.1879 128.207 83.8866 127.039 84.4905C123.487 86.4218 119.528 86.9769 117.535 86.6814C115.868 86.4337 109.251 84.3583 109.343 84.4042C103.386 82.8353 106.237 83.5464 98.1824 80.6104C99.0668 76.8707 101.134 65.2369 101.739 62.201C101.752 62.1474 101.755 62.0916 101.746 62.037C101.737 61.9824 101.717 61.9302 101.688 61.8835C101.658 61.8369 101.619 61.7968 101.574 61.7657C101.528 61.7346 101.476 61.7132 101.422 61.7028C101.576 57.2789 102.061 52.8728 102.872 48.5212V48.5203ZM101.359 82.6234C103.192 83.4252 105.08 84.0931 107.01 84.6217L101.293 85.2061C101.346 84.3466 101.368 83.4854 101.359 82.6243V82.6234ZM69.9998 93.2378C70.2411 93.645 70.5813 93.9846 70.9888 94.2252C71.3964 94.4657 71.8581 94.5995 72.3312 94.614C73.623 94.726 74.6249 94.1425 76.5846 93.4213C77.9534 94.7119 79.2309 96.0961 80.4078 97.5638C79.1115 98.4039 77.7534 99.1447 76.3452 99.7795C75.8782 99.9905 76.2828 100.679 76.748 100.468C78.1947 99.8166 79.5878 99.0524 80.9143 98.1822C81.3592 98.7363 81.8006 99.2923 82.2391 99.852C82.314 99.9268 82.4154 99.9688 82.5213 99.9688C82.6271 99.9688 82.7285 99.9268 82.8034 99.852C82.8764 99.7762 82.9173 99.6751 82.9173 99.5699C82.9173 99.4646 82.8764 99.3635 82.8034 99.2877C82.3905 98.7648 81.9776 98.2427 81.5611 97.7225C82.2617 97.28 82.8339 96.6612 83.2203 95.9281C83.6068 95.195 83.7939 94.3733 83.7631 93.5452C83.7335 93.027 83.5296 92.5341 83.1845 92.1465C82.8394 91.7589 82.3733 91.4994 81.862 91.4102C81.3445 91.3566 80.8218 91.3876 80.3142 91.5019C79.1157 91.7516 77.9355 92.0827 76.7819 92.4928C76.0084 91.7891 75.2222 91.101 74.4414 90.4028H74.4322C74.6753 90.3551 74.9148 90.2908 75.1497 90.2101C77.8599 89.255 79.3701 86.2796 79.6573 83.3473C80.128 86.1328 80.85 89.2908 83.3796 90.522C84.2148 90.9219 85.1633 91.0179 86.0616 90.7935C86.96 90.569 87.752 90.0383 88.301 89.2926C89.8837 87.3778 89.958 84.6529 90.0497 82.1756C91.9123 84.9911 93.0332 88.2317 93.3081 91.5963C93.583 94.9609 93.0031 98.3404 91.6223 101.421C89.0309 105.471 85.0775 108.461 80.4753 109.852C75.8732 111.244 70.9253 110.944 66.5244 109.009C62.1237 107.073 58.5594 103.628 56.4741 99.2965C54.3887 94.9647 53.9196 90.0304 55.1511 85.3832C56.7816 85.4761 58.3902 84.9729 59.6771 83.9675C62.2891 82.0285 64.5916 79.7044 66.506 77.0744L67.9997 83.4326C68.5428 85.7382 68.9511 88.5118 70.8164 89.7413C70.3492 90.1772 70.0221 90.7422 69.8767 91.3645C69.7313 91.9867 69.7742 92.6381 69.9998 93.236V93.2378ZM71.5164 90.1238C72.1009 90.3707 72.7288 90.4982 73.3633 90.4991C74.5038 91.5505 74.6552 91.6294 75.9406 92.813C75.6332 92.9304 75.324 93.0424 75.0185 93.1681C74.0541 93.7009 72.9389 93.8947 71.8513 93.7186C71.6413 93.6757 71.4419 93.5918 71.2645 93.4717C71.0871 93.3516 70.9351 93.1975 70.8174 93.0185C70.6997 92.8395 70.6184 92.6389 70.5784 92.4284C70.5384 92.2179 70.5404 92.0016 70.5843 91.7918C70.7404 91.1626 71.0623 90.5866 71.5164 90.1238ZM77.4361 93.1057C78.5615 92.7251 79.7125 92.4246 80.8803 92.2065C81.369 92.097 81.8808 92.1684 82.3208 92.4075C83.4612 93.1745 83.2383 95.571 81.0583 97.0995C79.9429 95.6879 78.7327 94.3539 77.4361 93.1066V93.1057ZM90.0635 80.804C90.0635 79.9865 90.0369 79.1699 89.9892 78.358C93.2747 79.6424 96.8868 81.0187 100.56 82.3169C100.574 85.8603 100.52 85.6841 99.6063 88.8476C99.0099 90.9083 93.1499 109.591 92.1352 112.742C89.1547 112.342 86.1682 111.988 83.1768 111.68C85.8138 110.253 88.1137 108.276 89.9213 105.883C91.7289 103.49 93.0021 100.738 93.6548 97.8112C94.3076 94.8844 94.3248 91.8517 93.7053 88.9177C93.0857 85.9838 91.8438 83.2169 90.0635 80.804ZM52.7125 81.8527C52.7262 80.4306 53.5382 79.325 54.2722 78.1717C58.077 72.1484 61.28 65.8773 66.2198 61.3514C68.0905 59.6233 70.5064 58.6036 73.0495 58.4686C74.5221 58.4218 75.9965 58.4778 77.4618 58.6374C85.3512 59.3326 93.1811 60.5897 100.892 62.3991C100.494 64.4314 97.6585 79.336 97.4263 80.3361C94.8295 79.375 92.242 78.3886 89.6644 77.3772C89.6052 77.3609 89.5431 77.3586 89.4828 77.3703C89.4226 77.382 89.3658 77.4074 89.317 77.4446C89.2682 77.4818 89.2286 77.5297 89.2013 77.5847C89.1741 77.6397 89.1598 77.7002 89.1598 77.7616C89.2674 79.3937 89.2897 81.0303 89.2267 82.6647C89.3079 84.4917 88.966 86.3129 88.2276 87.9861C87.4422 89.4339 85.8421 90.5367 84.1585 89.9853C80.5372 88.7926 80.5583 82.7784 79.6628 78.6424C79.6341 78.5523 79.5746 78.4752 79.4947 78.4247C79.4147 78.3742 79.3196 78.3535 79.2259 78.3662C79.1322 78.3789 79.046 78.4242 78.9824 78.4942C78.9189 78.5642 78.882 78.6543 78.8784 78.7488C79.116 80.8999 78.9838 83.0758 78.4875 85.1822C78.2745 86.0297 77.8927 86.8254 77.3651 87.5219C76.8375 88.2184 76.1748 88.8013 75.4167 89.2357C74.6983 89.6325 73.8757 89.7997 73.0595 89.7149C72.2433 89.6301 71.4727 89.2973 70.8512 88.7614C69.6723 87.5686 69.419 85.9667 68.863 83.6078L67.0749 76.022C67.0433 75.9197 66.9725 75.8339 66.878 75.7836C66.7834 75.7332 66.6728 75.7223 66.5702 75.7532C66.0592 75.911 65.805 77.5992 60.7689 82.1022C59.7982 82.9925 58.6908 83.7211 57.4889 84.2602C56.9201 84.5056 56.3058 84.6278 55.6863 84.6186C55.0669 84.6095 54.4564 84.4692 53.8951 84.207C53.4992 83.9627 53.1789 83.6132 52.9701 83.1974C52.7613 82.7817 52.6721 82.3161 52.7125 81.8527ZM60.5708 108.995C57.4075 106.457 55.083 103.025 53.9008 99.1455C52.7185 95.2663 52.7335 91.1208 53.9437 87.2503C53.2706 91.5557 53.9551 95.9639 55.9022 99.8624C57.8494 103.761 60.9624 106.956 64.8088 109.004C68.6553 111.052 73.0441 111.851 77.3656 111.291C81.6871 110.73 85.7267 108.837 88.923 105.875L88.912 105.886C87.2553 107.951 85.208 109.67 82.887 110.944C80.5661 112.218 78.0169 113.022 75.3852 113.31C72.7535 113.599 70.0906 113.367 67.5488 112.626C65.0069 111.886 62.6358 110.652 60.5708 108.995ZM45.4203 113.722C51.1703 112.537 57.0017 111.789 62.8645 111.485C65.7378 113.112 68.9549 114.039 72.2538 114.188C75.5527 114.338 78.8404 113.706 81.8492 112.345C87.9367 112.941 96.2538 113.979 102.189 115.129C94.5574 120.485 85.8051 124.031 76.5975 125.497C59.9698 128.524 46.9084 125.515 31.8552 117.401C36.2598 115.778 40.7991 114.547 45.4203 113.722ZM31.3047 118.006C47.2525 126.77 60.4864 128.882 74.9185 126.563C84.9501 125.243 94.512 121.509 102.784 115.683C102.779 119.751 102.741 123.817 102.74 127.886C87.166 137.309 65.9959 142.107 47.1112 137.401C41.5143 136 36.1838 133.694 31.3304 130.574C31.3395 130.264 31.2946 129.869 31.2955 129.647C31.3047 125.21 31.3047 121.823 31.3047 118.006ZM19.2599 155.274C20.1177 147.267 22.7812 139.016 28.5219 133.326C29.2622 132.564 30.075 131.877 30.9487 131.273C39.7139 136.8 49.825 139.822 60.1854 140.011C75.287 140.307 90.167 136.347 103.124 128.584C107.956 131.725 110.923 137.011 112.457 142.453C114.05 148.092 114.39 154.049 114.703 159.874C114.918 163.87 115.612 189.358 115.62 189.705C114.23 189.212 112.795 188.853 111.335 188.634C112.914 185 113.409 180.987 112.761 177.078C112.113 173.169 110.349 169.53 107.681 166.6C109.416 163.159 110.092 159.28 109.622 155.454C109.153 151.629 107.56 148.028 105.044 145.108C102.524 142.199 99.2538 140.037 95.5895 138.858C91.9249 137.681 88.0074 137.532 84.264 138.428C80.3329 139.319 76.7583 141.366 73.9999 144.305C71.2415 147.245 69.4254 150.942 68.7851 154.922C64.6477 154.911 60.6029 156.146 57.1766 158.465C53.7504 160.784 51.1013 164.081 49.5737 167.926C49.5178 168.064 49.6581 168.032 48.8095 167.693C43.8128 165.731 38.2475 165.796 33.2983 167.875C28.3491 169.954 24.4067 173.883 22.3105 178.825C20.9231 182.097 20.4057 185.672 20.8086 189.203C20.259 189.338 19.7245 189.528 19.2131 189.77C18.9442 181.924 18.4222 163.098 19.2599 155.274ZM94.3482 178.44C92.9013 177.718 91.2929 177.155 90.7947 175.754C90.6459 175.353 90.6617 174.909 90.8385 174.519C91.0153 174.129 91.3388 173.825 91.7388 173.672C92.574 173.365 93.4743 173.279 94.3527 173.421C94.2619 175.183 94.35 176.517 94.3482 178.44ZM94.5252 185.902C95.351 186.131 96.2244 186.128 97.0483 185.894C97.8726 185.659 98.6165 185.203 99.1989 184.574C99.5545 184.155 99.7475 183.623 99.7426 183.073C99.7377 182.524 99.5353 181.995 99.1723 181.583C98.8046 181.19 98.3909 180.843 97.9401 180.55C97.0459 179.924 96.1127 179.356 95.1464 178.849C95.1464 176.957 95.0546 175.24 95.1409 173.527C96.4666 173.72 97.7695 174.05 99.0274 174.512C99.51 174.689 99.7182 173.917 99.2393 173.743C97.9304 173.261 96.5732 172.923 95.1913 172.734C95.2427 172.12 95.329 171.51 95.4501 170.906C95.5519 170.404 94.7831 170.19 94.6803 170.693C94.5531 171.336 94.4613 171.986 94.405 172.639C93.7473 172.569 93.0836 172.578 92.4278 172.665C92.0014 172.713 91.589 172.847 91.2157 173.059C90.8423 173.271 90.5156 173.556 90.2552 173.897C90.0055 174.336 89.8864 174.836 89.9121 175.34C89.9378 175.844 90.1071 176.331 90.4002 176.741C91.2828 178.014 92.7224 178.497 94.3454 179.333C94.3161 181.214 94.1573 183.09 93.8701 184.949C92.4023 184.574 90.9658 184.085 89.5735 183.488C89.4815 183.437 89.3736 183.424 89.2721 183.451C89.1706 183.477 89.0832 183.542 89.0276 183.631C89.0011 183.676 88.9838 183.726 88.9767 183.778C88.9696 183.83 88.9728 183.883 88.9862 183.934C88.9996 183.984 89.0228 184.032 89.0547 184.074C89.0865 184.115 89.1263 184.15 89.1717 184.177C90.658 184.818 92.1911 185.342 93.7591 185.745C93.6967 186.151 93.6206 186.613 93.5527 187.024C88.3496 186.768 81.729 186.557 73.5597 186.473C72.1056 181.92 72.3474 176.994 74.2403 172.605C76.1332 168.215 79.5496 164.659 83.8592 162.591C88.1689 160.523 93.0809 160.083 97.6892 161.353C102.298 162.623 106.291 165.516 108.933 169.5C106.26 166.373 102.64 164.205 98.6217 163.324C94.6038 162.444 90.4082 162.899 86.6724 164.62C82.711 166.338 79.3687 169.225 77.0924 172.894C74.8161 176.563 73.7145 180.84 73.9349 185.152C73.967 185.662 74.7652 185.666 74.7331 185.152C74.5226 181.215 75.458 177.301 77.4261 173.884C79.3942 170.468 82.3105 167.695 85.8219 165.902C88.826 164.296 92.2145 163.55 95.6153 163.744C99.0161 163.938 102.298 165.066 105.099 167.003C108.754 169.673 111.26 173.629 112.114 178.074C112.551 181.629 112.009 185.237 110.547 188.507C105.761 187.796 99.1503 187.314 94.3454 187.064C94.3959 186.688 94.4684 186.268 94.5252 185.902ZM94.6436 185.114C94.928 183.343 95.095 181.554 95.1418 179.76C96.0684 180.258 96.961 180.818 97.8135 181.434C98.2291 181.699 98.5769 182.058 98.8283 182.482C99.5549 183.911 97.4273 185.762 94.6436 185.114ZM67.9602 171.6C68.9939 170.752 70.1146 170.017 71.3036 169.406C71.7623 169.17 71.3568 168.481 70.9008 168.717C69.6621 169.362 68.4937 170.134 67.4143 171.02C66.9987 170.573 66.6088 170.102 66.2473 169.612C65.9482 169.2 65.2555 169.598 65.5582 170.014C65.9471 170.543 66.3662 171.049 66.8134 171.529C65.2903 172.814 64.138 174.908 65.4371 176.392C65.8115 176.762 66.272 177.036 66.7767 177.188C67.2819 177.339 67.8164 177.365 68.3336 177.262C69.4963 176.982 70.6294 176.592 71.7174 176.095C71.8394 176.209 71.9632 176.321 72.0844 176.437L72.0963 176.444C71.1907 181.009 72.2073 185.902 72.5734 186.445C65.728 186.384 58.7376 186.45 52.3152 186.615C49.5759 182.598 48.426 177.707 49.0884 172.89C49.7847 167.707 52.5012 163.01 56.6457 159.822C60.7902 156.634 66.0269 155.213 71.2146 155.868C75.6617 156.423 79.784 158.487 82.8933 161.715L82.8016 161.763C82.7907 161.742 82.7768 161.723 82.7603 161.706C80.2393 159.762 77.2703 158.481 74.1258 157.983C70.9812 157.484 67.7617 157.783 64.7628 158.852C53.8529 162.64 47.8388 174.55 51.4794 185.07C51.6463 185.552 52.4179 185.346 52.2491 184.858C48.8232 174.882 54.2612 164.024 63.9013 160.026C66.8537 158.759 70.0873 158.291 73.2777 158.668C76.4681 159.046 79.5032 160.256 82.0786 162.176C77.297 165.028 73.8289 169.647 72.4229 175.034C72.2981 175.023 72.2394 175.065 71.91 175.183C70.5925 173.991 69.2062 172.862 67.9602 171.6ZM71.0724 175.505C69.4732 176.148 67.6575 177.032 66.3198 176.118C65.9709 175.842 65.7413 175.443 65.6783 175.003C65.6153 174.562 65.7238 174.115 65.9812 173.752C66.3422 173.128 66.8095 172.573 67.362 172.11C68.5373 173.302 69.8255 174.382 71.0724 175.505ZM22.339 188.637C22.4442 188.636 22.5446 188.593 22.6191 188.519C22.6935 188.444 22.7362 188.344 22.7381 188.238C24.3712 175.839 36.9371 167.228 48.2929 171.3C48.3434 171.318 48.3975 171.326 48.4516 171.323C47.3539 176.586 48.3167 182.07 51.1417 186.645C43.8633 186.842 28.755 187.436 21.5885 189.008C21.0199 183.803 22.5365 178.584 25.8063 174.495C29.076 170.405 33.8327 167.777 39.0354 167.186C42.4793 166.795 45.9655 167.315 49.1453 168.694C48.4379 170.842 48.7251 170.621 48.503 170.529C36.26 166.237 23.4418 175.727 21.938 188.237C21.938 188.343 21.9803 188.445 22.0554 188.52C22.1306 188.595 22.2326 188.637 22.339 188.637ZM104.441 146.421C94.3766 136.412 76.5241 140.974 71.4274 154.711C71.2825 155.089 71.9779 154.901 69.6291 154.747C70.2484 151.227 71.8299 147.947 74.1986 145.271C76.5673 142.595 79.6306 140.626 83.0493 139.584C87.7436 138.078 92.8285 138.356 97.3304 140.365C101.832 142.375 105.435 145.974 107.448 150.474C106.646 148.986 105.632 147.62 104.44 146.421H104.441ZM108.302 154.819C109.358 158.512 108.944 162.471 107.146 165.865C106.242 165.032 105.276 164.27 104.255 163.585C101.358 161.546 97.9821 160.292 94.4564 159.944C90.9303 159.597 87.3745 160.169 84.1347 161.603L84.0741 161.626C81.1966 158.505 77.4625 156.303 73.3395 155.295C71.8816 154.943 72.1064 155.148 72.1972 154.928C73.3793 151.826 75.3023 149.06 77.7984 146.872C80.2946 144.683 83.2882 143.138 86.5183 142.372C96.2887 140.011 105.942 145.413 108.3 154.819H108.302ZM115.133 191.032C105.734 195.178 29.1302 195.269 19.7324 191.017C19.6718 190.988 19.2589 190.78 19.2663 190.714C19.2745 190.622 19.7159 190.412 19.7966 190.375C30.0725 186.086 106.706 186.302 115.164 190.406C115.82 190.723 115.749 190.76 115.131 191.032H115.133ZM126.058 122.096C124.329 128.558 117.448 154.655 115.566 161.141C115.03 148.706 113.939 134.651 103.54 127.9C103.544 118.56 103.631 115.874 103.582 115.034C103.558 114.618 103.342 114.463 103.14 114.499C99.7641 113.818 96.351 113.313 92.9371 112.847C93.6949 110.488 99.3384 92.58 100.002 90.3248C101.059 86.7539 100.797 87.5228 101.211 86.0126L109.23 85.1923C109.196 85.1923 114.276 86.697 115.773 87.0952C118.059 87.7641 120.794 87.8879 125.012 86.2695C127.13 85.4563 129.123 84.3481 130.932 82.9775C136.487 82.4133 143.381 81.7068 147.08 81.326C148.765 81.1664 150.459 81.0288 152.136 80.8086C153.099 85.9896 154.289 91.1267 155.55 96.2408C157.06 102.363 174.708 166.521 174.797 166.898C172.727 167.604 170.648 168.277 168.558 168.916C150.25 97.4161 150.924 101.213 148.042 83.4977C147.961 82.9922 147.192 83.2069 147.274 83.7088C149.622 98.1546 150.561 101.911 154.381 116.831C155.801 122.372 167.609 168.454 167.788 169.145C158.949 171.807 149.933 173.842 140.808 175.234C139.389 170.133 128.291 127.471 126.83 122.09C126.806 122.006 126.755 121.932 126.685 121.879C126.614 121.827 126.529 121.799 126.441 121.8C126.354 121.801 126.269 121.83 126.199 121.883C126.13 121.937 126.08 122.011 126.057 122.096H126.058Z" fill="black"/>
<path d="M126.775 119.571C125.512 114.759 124.057 109.999 122.412 105.304C122.244 104.823 121.472 105.029 121.643 105.518C124.295 113.09 125.588 118.323 126.005 119.783C126.038 119.879 126.107 119.959 126.197 120.006C126.287 120.053 126.392 120.065 126.49 120.038C126.588 120.011 126.672 119.948 126.725 119.861C126.778 119.774 126.796 119.67 126.775 119.571Z" fill="black"/>
<path d="M102.653 62.8625C106.579 63.3442 110.479 64.0011 114.352 64.8323C114.59 64.8892 115.097 64.5112 115.139 64.3736C117.609 57.0569 121.008 50.088 125.255 43.6383C125.538 43.208 124.847 42.8071 124.566 43.2355C120.311 49.7073 116.9 56.6958 114.415 64.0314C110.525 63.2038 106.601 62.5468 102.653 62.0624C102.548 62.0632 102.447 62.1054 102.372 62.1801C102.297 62.2548 102.255 62.3559 102.254 62.4615C102.256 62.5669 102.299 62.6674 102.373 62.742C102.447 62.8166 102.548 62.8594 102.653 62.8616V62.8625Z" fill="black"/>
<path d="M133.4 80.7097C136.376 76.3613 139.068 71.8256 141.46 67.1308C141.693 66.6721 141.002 66.2702 140.771 66.7271C138.378 71.4211 135.686 75.9567 132.711 80.306C132.421 80.7317 133.112 81.1317 133.4 80.7097Z" fill="black"/>
<path d="M156.476 70.164C156.561 70.6686 157.33 70.4548 157.246 69.952C156.195 63.6885 154.261 57.6059 151.499 51.8866C150.726 50.281 149.913 48.6938 148.986 47.1698C148.945 47.1026 148.886 47.0487 148.816 47.0149C148.745 46.9811 148.666 46.9688 148.588 46.9797C148.511 46.9906 148.438 47.024 148.38 47.076C148.321 47.1279 148.279 47.196 148.259 47.2717C148.231 47.373 148.245 47.4811 148.296 47.5726C152.349 54.5548 155.119 62.2058 156.476 70.164Z" fill="black"/>
<path d="M160.634 70.0658C160.179 60.6845 157.329 51.5761 152.356 43.6082C152.081 43.1733 151.394 43.5733 151.667 44.0119C156.569 51.8581 159.38 60.8284 159.833 70.0686C159.861 70.5778 160.659 70.5805 160.634 70.0658Z" fill="black"/>
</svg>
