<svg width="200" height="200" viewBox="0 0 200 200" fill="none" xmlns="http://www.w3.org/2000/svg">
<path d="M53.119 139.828C44.951 139.228 36.592 134.273 30.861 122.839C29.6039 120.705 28.9413 118.274 28.942 115.797C29.0022 113.59 29.6791 111.444 30.8958 109.601C32.1126 107.759 33.8208 106.294 35.8271 105.372C37.8334 104.45 40.0577 104.108 42.2482 104.385C44.4387 104.662 46.508 105.546 48.222 106.938C50.322 108.646 51.567 111.438 53.606 112.902C53.422 112.057 53.206 111.219 52.961 110.391C50.429 102 42.518 97.56 34.838 97.563C24.926 97.563 14.619 103.263 12.611 115.45C11.181 124.128 10.659 133.629 12.318 142.307C12.7377 144.496 13.4284 146.624 14.374 148.642C15.0544 150.183 16.1835 151.483 17.614 152.373C16.2552 152.576 14.9908 153.19 13.9901 154.131C12.9893 155.073 12.2999 156.297 12.014 157.641C10.884 162.225 11.414 167.78 15.437 170.322C17.2342 171.291 19.2742 171.717 21.309 171.548H40.737C42.989 171.693 45.251 171.581 47.478 171.214C53.233 169.874 56.764 164.314 57.021 158.791C57.347 151.767 57.663 145.7 53.119 139.828ZM51.725 159.94L53.065 155.788C53.22 155.307 53.981 155.514 53.825 155.998L52.485 160.15C52.33 160.631 51.569 160.424 51.725 159.94ZM27.855 99.34C28.134 98.94 28.777 99.3 28.565 99.692C27.0476 101.74 25.8166 103.985 24.906 106.366C23.1951 110.627 22.0861 115.105 21.611 119.672C21.1036 124.489 20.8423 129.328 20.828 134.172H38.572C38.6765 134.172 38.7767 134.213 38.8506 134.287C38.9245 134.361 38.966 134.461 38.966 134.566C38.966 134.67 38.9245 134.771 38.8506 134.845C38.7767 134.918 38.6765 134.96 38.572 134.96C22.192 135.285 26.593 135.211 12.953 134.96C12.8754 134.959 12.7997 134.936 12.7354 134.892C12.671 134.849 12.6209 134.787 12.5912 134.716C12.5614 134.644 12.5534 134.565 12.5682 134.489C12.5829 134.413 12.6197 134.342 12.674 134.287C12.7106 134.25 12.7541 134.221 12.802 134.202C12.8499 134.182 12.9012 134.172 12.953 134.172H20.041C20.277 122.038 20.772 109.355 27.855 99.343V99.34ZM23.128 152.785C23.0504 152.784 22.9747 152.761 22.9104 152.717C22.846 152.674 22.7959 152.612 22.7662 152.541C22.7364 152.469 22.7284 152.39 22.7432 152.314C22.7579 152.238 22.7947 152.167 22.849 152.112C22.8856 152.075 22.9291 152.046 22.977 152.027C23.0249 152.007 23.0762 151.997 23.128 151.997C23.75 151.988 36.541 152.116 38.244 152.156C38.3193 152.16 38.3919 152.186 38.4531 152.23C38.5143 152.274 38.5617 152.335 38.5897 152.405C38.6176 152.475 38.625 152.551 38.6108 152.625C38.5967 152.7 38.5617 152.768 38.51 152.823C38.4402 152.896 38.345 152.94 38.244 152.945C37.776 152.954 23.316 152.792 23.128 152.788V152.785Z" fill="#DAF8FF"/>
<path d="M9.043 150.533C8.28726 148.498 7.14263 146.63 5.673 145.033L5.654 145.019C5.59674 144.971 5.52708 144.94 5.4531 144.93C5.37912 144.921 5.30385 144.932 5.236 144.963C5.16774 144.993 5.10935 145.042 5.06759 145.103C5.02582 145.165 5.00239 145.237 5 145.312V174.212C5.00229 174.289 5.02678 174.363 5.07051 174.427C5.11425 174.49 5.17536 174.539 5.24649 174.569C5.31762 174.598 5.39573 174.606 5.4714 174.592C5.54708 174.578 5.61709 174.543 5.673 174.49C10.768 168.049 12.3 159.242 9.043 150.533Z" fill="black"/>
<path d="M55.552 89.6099C55.3956 88.9017 55.0466 88.2505 54.5436 87.728C54.0406 87.2055 53.403 86.8321 52.7013 86.6489C51.9995 86.4657 51.2608 86.4799 50.5666 86.6899C49.8724 86.8999 49.2496 87.2975 48.767 87.8389C48.1245 88.6836 47.7847 89.7198 47.802 90.7809C47.821 93.3539 51.002 94.2549 53.188 93.6269C54.0158 93.3785 54.7191 92.8266 55.1575 92.0818C55.5958 91.337 55.7367 90.4542 55.552 89.6099Z" fill="white"/>
<path d="M141.436 93.748C141.434 93.6442 141.392 93.5451 141.318 93.4717C141.245 93.3982 141.146 93.3561 141.042 93.354H61.235C61.131 93.3556 61.0317 93.3976 60.9581 93.4711C60.8846 93.5447 60.8426 93.644 60.841 93.748V113.4C62.4518 112.823 63.9944 112.071 65.441 111.157V98.237C65.4426 98.133 65.4846 98.0337 65.5581 97.9601C65.6317 97.8866 65.731 97.8446 65.835 97.843H101.965C102.069 97.8451 102.168 97.8872 102.241 97.9607C102.315 98.0341 102.357 98.1332 102.359 98.237V125.5C102.357 125.604 102.315 125.703 102.242 125.777C102.168 125.85 102.069 125.892 101.965 125.894H79.11C78.6267 126.132 78.0988 126.266 77.5605 126.287C77.0221 126.308 76.4854 126.216 75.985 126.016C75.31 127.606 74.4454 129.109 73.41 130.492H109.11C110.912 128.112 113.413 126.354 116.262 125.464C121.87 123.902 127.151 125.83 132.687 127.974C132.663 123.212 133.858 118.92 137.147 115.556C135.665 112.976 134.895 110.048 134.917 107.073C134.939 104.097 135.752 101.181 137.272 98.623C137.551 97.7835 138.128 97.0755 138.895 96.6332C139.661 96.1909 140.562 96.0449 141.429 96.223C141.434 95.4 141.442 94.572 141.436 93.748ZM111.572 101.741L105.108 103.893C104.625 104.054 104.419 103.293 104.898 103.133L111.362 100.981C111.846 100.82 112.051 101.582 111.572 101.741Z" fill="white"/>
<path d="M56.173 76.541C54.514 76.125 53.173 77.386 52.466 78.934C52.4334 78.6469 52.3444 78.3692 52.204 78.1167C52.0636 77.8643 51.8746 77.6421 51.648 77.463C49.914 76.281 47.366 77.989 47.96 81.446C47.527 81.2647 47.0398 81.2629 46.6055 81.4409C46.1712 81.6188 45.8253 81.962 45.644 82.395C45.5508 82.755 45.5447 83.132 45.6261 83.4949C45.7075 83.8577 45.8741 84.196 46.1121 84.4817C46.3502 84.7674 46.6528 84.9924 46.995 85.1379C47.3372 85.2835 47.7091 85.3456 48.08 85.319C49.502 85.257 51.97 83.435 55.23 81.679C55.9366 81.317 56.5586 80.8096 57.055 80.19C57.947 79.026 57.808 76.95 56.173 76.541Z" fill="black"/>
<path d="M168.455 47.634C163.637 40.481 157.095 36.377 148.672 34.468C145.198 33.6672 141.634 33.331 138.072 33.468C138.239 34.6058 138.147 35.7667 137.803 36.864C137.46 37.9616 136.874 38.9675 136.088 39.807C136.938 39.8478 137.767 40.0917 138.504 40.5183C139.24 40.9449 139.864 41.5418 140.323 42.259C153.191 41.259 162.003 49.219 162.893 57.792C162.945 58.292 162.151 58.292 162.104 57.792C161.358 49.848 152.924 42.255 140.72 43.017C141.212 44.3179 141.369 45.7216 141.177 47.099C140.984 48.4764 140.449 49.7834 139.62 50.9C137.639 53.125 134.11 53.667 131.309 53.034C131.849 53.7268 132.191 54.5526 132.3 55.424C132.449 56.368 132.325 57.334 131.945 58.211C133.434 58.1084 134.929 58.2161 136.388 58.531C140.046 57.4367 143.988 57.8354 147.352 59.64C147.282 59.5933 147.228 59.5259 147.198 59.447C147.169 59.3681 147.166 59.2823 147.188 59.2013C147.21 59.1204 147.257 59.0483 147.322 58.995C147.387 58.9422 147.468 58.9114 147.552 58.907C148.616 58.892 173.23 58.907 173.333 58.907C173.42 58.9052 173.504 58.9328 173.573 58.9853C173.642 59.0378 173.692 59.112 173.713 59.196C172.623 55.0736 170.846 51.1647 168.455 47.634Z" fill="#44A2FF"/>
<path d="M123.872 55.19C121.013 56.082 117.372 55.753 115.33 53.843C114.481 54.9869 113.877 56.2934 113.555 57.681C113.441 58.181 112.683 57.966 112.795 57.472C113.147 55.9376 113.824 54.4964 114.779 53.245C113.179 51.245 112.997 48.269 113.42 45.665C112.037 47.0293 110.242 47.8977 108.314 48.135C105.926 51.1688 104.067 54.5833 102.814 58.235C103.093 58.235 119.606 58.216 124.374 58.213C124.089 57.7698 123.897 57.2729 123.811 56.7529C123.724 56.2329 123.745 55.7007 123.872 55.189V55.19Z" fill="#44A2FF"/>
<path d="M108.782 76.447C110.213 77.304 111.673 78.11 113.131 78.919C113.221 78.9656 113.325 78.9761 113.422 78.9482C113.52 78.9202 113.602 78.856 113.654 78.7688C113.705 78.6816 113.721 78.578 113.698 78.4794C113.675 78.3808 113.615 78.2947 113.531 78.239C112.1 77.382 110.64 76.575 109.182 75.767C109.092 75.7203 108.988 75.7098 108.891 75.7378C108.793 75.7657 108.711 75.8299 108.659 75.9171C108.608 76.0044 108.592 76.1079 108.615 76.2065C108.638 76.3051 108.698 76.3912 108.782 76.447Z" fill="black"/>
<path d="M173.7 59.1931C173.678 59.1094 173.629 59.0354 173.56 58.983C173.491 58.9306 173.407 58.9028 173.32 58.9041H147.539C147.455 58.9083 147.374 58.939 147.309 58.9919C147.243 59.0447 147.196 59.1169 147.174 59.1981C147.152 59.2793 147.156 59.3652 147.185 59.4441C147.215 59.5241 147.269 59.5911 147.339 59.6371C149.637 60.9633 151.34 63.1182 152.1 65.6601C152.767 68.1361 152.732 70.7487 152 73.2061C151.763 74.3519 151.191 75.4015 150.357 76.2221C148.523 77.7971 145.987 75.9721 140.686 77.1281C138.211 77.6681 134.725 79.3631 133.295 81.4561C132.934 81.974 132.696 82.568 132.601 83.1922C132.506 83.8164 132.556 84.4541 132.746 85.0561C132.901 85.4432 133.131 85.7957 133.423 86.0927C133.716 86.3898 134.064 86.6255 134.449 86.7861C134.833 86.9471 135.246 87.03 135.663 87.03C136.079 87.03 136.492 86.9471 136.876 86.7861C139.304 85.9121 139.847 84.0861 141.914 82.6661C142.416 82.2485 143.008 81.952 143.644 81.7998C144.279 81.6475 144.941 81.6435 145.578 81.7881C145.741 81.8239 145.894 81.8962 146.024 81.9997C146.155 82.1032 146.261 82.2351 146.333 82.3853C146.406 82.5356 146.443 82.7004 146.442 82.8672C146.441 83.034 146.403 83.1984 146.329 83.3481C145.829 85.5251 145.161 87.9401 144.858 89.4621C144.655 90.1196 144.619 90.8172 144.752 91.4923C144.885 92.1674 145.184 92.7989 145.621 93.3301C145.936 93.651 146.341 93.8692 146.782 93.9561C147.223 94.043 147.681 93.9945 148.094 93.8171C148.769 93.3932 149.301 92.7752 149.619 92.0441C150.659 90.0821 151.468 87.1441 152.161 87.8081C152.298 87.9401 152.252 88.1081 152.216 88.2781C151.578 91.2481 148.941 94.0681 150.924 96.5501C151.205 96.8172 151.554 97.0027 151.932 97.0868C152.311 97.1708 152.705 97.1502 153.073 97.0271C154.8 96.4611 154.69 95.0851 159.992 90.7071C163.773 87.5841 167.632 84.4171 170.426 80.3301C174.844 73.8621 176.156 69.2411 173.7 59.1931ZM171.787 64.1561C172.525 65.4046 172.927 66.823 172.954 68.2731C172.954 68.3776 172.913 68.4778 172.839 68.5517C172.765 68.6256 172.665 68.6671 172.56 68.6671C172.456 68.6671 172.355 68.6256 172.281 68.5517C172.208 68.4778 172.166 68.3776 172.166 68.2731C172.118 66.9662 171.754 65.6904 171.107 64.5541C171.054 64.4638 171.04 64.3564 171.066 64.2553C171.092 64.1541 171.157 64.0674 171.247 64.0141C171.337 63.9612 171.445 63.9462 171.546 63.9725C171.647 63.9987 171.734 64.064 171.787 64.1541V64.1561ZM156.687 84.0661L154.381 85.1461C153.924 85.3601 153.524 84.6801 153.981 84.4661L156.287 83.3841C156.751 83.1701 157.151 83.8501 156.692 84.0651H156.687V84.0661ZM148.935 80.2731C149.84 79.9139 150.801 79.7175 151.774 79.6931C151.826 79.6931 151.877 79.7033 151.925 79.7231C151.973 79.7429 152.016 79.7719 152.053 79.8085C152.089 79.8451 152.118 79.8885 152.138 79.9363C152.158 79.9841 152.168 80.0354 152.168 80.0871C152.168 80.1388 152.158 80.1901 152.138 80.2379C152.118 80.2857 152.089 80.3291 152.053 80.3657C152.016 80.4023 151.973 80.4313 151.925 80.4511C151.877 80.4709 151.826 80.4811 151.774 80.4811C150.872 80.5106 149.983 80.6974 149.145 81.0331C148.678 81.2231 148.474 80.4581 148.94 80.2731H148.935Z" fill="white"/>
<path d="M112.693 80.97L107.165 80.692C106.658 80.666 106.66 81.455 107.165 81.48L112.692 81.759C113.2 81.784 113.2 81 112.693 80.97Z" fill="black"/>
<path d="M113.063 83.2721L109.787 85.9141C109.387 86.2341 109.952 86.7881 110.344 86.4721L113.62 83.8291C114.015 83.5111 113.455 82.9561 113.063 83.2721Z" fill="black"/>
<path d="M111.868 165.509H107.938C108.963 167.409 109.72 169.441 110.19 171.548H112.518C111.868 169.606 111.646 167.545 111.868 165.509Z" fill="#DAF8FF"/>
<path d="M102.808 165.509H68.519C67.4899 165.501 66.4728 165.288 65.5272 164.882C64.5816 164.476 63.7265 163.886 63.012 163.145C62.2972 162.405 61.7371 161.53 61.3643 160.571C60.9916 159.612 60.8137 158.589 60.841 157.56C60.841 164.446 60.83 164.071 60.871 164.535C61.0455 166.466 61.9413 168.26 63.3799 169.56C64.8186 170.86 66.6943 171.57 68.633 171.548C70.348 171.537 104.623 171.548 104.623 171.548C104.009 169.538 103.404 167.525 102.808 165.509Z" fill="#DAF8FF"/>
<path d="M137.22 152.067C131.82 150.578 127.31 147.313 123.22 143.467C122.761 146.934 117.763 147.526 116.849 143.354C116.822 143.417 116.803 143.483 116.775 143.545C116.469 144.231 115.934 144.788 115.261 145.121C114.904 145.268 114.519 145.332 114.134 145.309C113.749 145.287 113.373 145.178 113.036 144.99C111.876 144.328 110.98 143.288 110.497 142.043C110.105 143.106 109.589 144.12 108.96 145.063C110.239 145.576 111.492 146.163 112.76 146.695C112.849 146.716 112.93 146.766 112.988 146.837C113.046 146.908 113.079 146.996 113.082 147.088V152.077C128.435 152.078 137.347 152.1 137.22 152.067Z" fill="white"/>
<path d="M109.113 130.491H73.41C70.3203 134.707 65.8876 137.747 60.841 139.109C60.841 139.109 60.841 157.962 60.855 158.161C60.9551 160.132 61.8042 161.99 63.2287 163.356C64.6532 164.722 66.5456 165.492 68.519 165.509H102.808L102.574 164.721H70.581C69.0305 164.862 67.4674 164.696 65.981 164.233C64.7089 163.707 63.619 162.819 62.8462 161.68C62.0734 160.541 61.6516 159.2 61.633 157.824C61.608 156.261 61.633 155.439 61.633 152.077H92.154C92.154 146.917 92.065 146.819 92.354 146.677C96.879 144.361 100.02 143.735 102.99 143.757C102.861 142.473 103.127 141.18 103.753 140.051C105.049 136.613 106.856 133.39 109.113 130.491ZM94.764 142.279L90.07 140.6C89.595 140.43 89.801 139.669 90.279 139.84L94.979 141.52C95.449 141.689 95.243 142.45 94.764 142.279ZM96.337 141.023L92.883 136.897C92.559 136.511 93.114 135.951 93.44 136.34L96.895 140.466C97.218 140.853 96.663 141.413 96.337 141.023Z" fill="white"/>
<path d="M107.5 164.721C107.653 164.98 107.8 165.244 107.942 165.509H111.872C111.905 165.244 111.945 164.982 111.996 164.721H107.5Z" fill="white"/>
<path d="M92.942 147.722V152.078H112.3V147.794C109.377 149.559 106.025 150.486 102.611 150.473C99.1966 150.46 95.8516 149.509 92.942 147.722Z" fill="white"/>
<path d="M112.766 146.7C111.496 146.172 110.243 145.581 108.966 145.068C108.711 145.43 108.412 145.759 108.075 146.047C106.21 147.647 103.467 146.406 102.987 143.757C100.016 143.735 96.877 144.357 92.351 146.677C92.335 146.686 92.33 146.701 92.316 146.711C92.2662 146.745 92.2256 146.791 92.1977 146.844C92.1698 146.898 92.1555 146.958 92.156 147.018V156.542C92.156 156.594 92.1662 156.645 92.186 156.693C92.2058 156.74 92.2348 156.784 92.2714 156.821C92.308 156.857 92.3514 156.886 92.3992 156.906C92.447 156.926 92.4983 156.936 92.55 156.936C92.6018 156.936 92.653 156.926 92.7008 156.906C92.7486 156.886 92.792 156.857 92.8286 156.821C92.8652 156.784 92.8942 156.74 92.914 156.693C92.9338 156.645 92.944 156.594 92.944 156.542V147.726C95.8538 149.512 99.1985 150.463 102.612 150.475C106.026 150.488 109.378 149.562 112.301 147.798V156.542C112.306 156.643 112.35 156.739 112.423 156.809C112.497 156.878 112.594 156.916 112.696 156.916C112.797 156.916 112.894 156.878 112.968 156.809C113.041 156.739 113.085 156.643 113.09 156.542V147.093C113.086 147.001 113.052 146.913 112.993 146.843C112.935 146.772 112.855 146.722 112.766 146.7Z" fill="#44A2FF"/>
<path d="M141.479 67.7001C141.479 65.5901 141.689 63.6671 140.126 61.3371C139.245 59.9907 137.919 58.9962 136.38 58.5271C134.922 58.2108 133.426 58.103 131.937 58.2071C131.803 58.4822 131.641 58.7426 131.453 58.9841C132.474 58.9781 133.495 58.9741 134.515 58.9941C135.814 59.0477 137.065 59.4997 138.098 60.2889C139.131 61.078 139.897 62.166 140.29 63.4051C140.802 64.8951 140.69 66.0861 140.69 70.1201C140.69 70.1201 62.575 70.0641 61.632 70.1101V66.1731C61.632 61.7891 64.61 59.0441 68.058 59.0581C69.866 59.0651 118.921 59.0081 124.944 59.0021C124.744 58.7481 124.55 58.4831 124.372 58.2151L69.808 58.2691C68.3101 58.1305 66.7999 58.3048 65.373 58.7811C64.1392 59.3179 63.0726 60.1768 62.2849 61.2676C61.4972 62.3584 61.0175 63.6411 60.896 64.9811C60.82 65.8221 60.843 63.2631 60.843 93.7511C60.8443 93.6469 60.8862 93.5473 60.9598 93.4736C61.0333 93.3998 61.1328 93.3576 61.237 93.3561C61.342 93.3561 124.871 93.2421 141.044 93.3561C141.148 93.3576 141.247 93.3996 141.321 93.4732C141.394 93.5468 141.436 93.6461 141.438 93.7501L141.459 83.0161C139.596 84.5071 139.102 85.9861 136.872 86.7881C136.488 86.949 136.075 87.0318 135.658 87.0318C135.242 87.0317 134.829 86.9488 134.445 86.7878C134.06 86.6268 133.712 86.391 133.42 86.094C133.127 85.7971 132.897 85.4449 132.742 85.0581H118.606C118.505 85.0534 118.409 85.0099 118.339 84.9364C118.269 84.863 118.231 84.7654 118.231 84.6641C118.231 84.5626 118.269 84.4649 118.339 84.3914C118.409 84.3178 118.505 84.274 118.606 84.2691H132.562C132.508 83.657 132.583 83.0405 132.784 82.4595C132.984 81.8785 133.304 81.3462 133.723 80.8971H118.606C118.505 80.8924 118.409 80.8489 118.339 80.7754C118.269 80.702 118.231 80.6044 118.231 80.5031C118.231 80.4016 118.269 80.3039 118.339 80.2304C118.409 80.1568 118.505 80.113 118.606 80.1081H134.525C136.542 78.5018 138.929 77.4248 141.468 76.9751C141.47 76.0391 141.475 69.8231 141.479 67.7001ZM113.62 83.8301L110.344 86.4721C109.952 86.7881 109.392 86.2331 109.787 85.9141L113.063 83.2721C113.455 82.9561 114.015 83.5121 113.62 83.8291V83.8301ZM109.18 75.7671C110.638 76.5751 112.098 77.3821 113.529 78.2381C113.617 78.2924 113.68 78.3789 113.704 78.479C113.729 78.5792 113.714 78.685 113.662 78.774C113.609 78.8629 113.524 78.9279 113.425 78.955C113.325 78.9822 113.219 78.9692 113.129 78.9191C111.671 78.1101 110.211 77.3041 108.78 76.4471C108.735 76.4211 108.696 76.3866 108.665 76.3454C108.634 76.3042 108.611 76.2572 108.598 76.2071C108.579 76.1314 108.582 76.0517 108.608 75.9779C108.633 75.9041 108.68 75.8395 108.742 75.7921C108.826 75.7296 108.931 75.7024 109.035 75.7161C109.086 75.7241 109.135 75.7411 109.18 75.7671ZM107.165 80.6921L112.693 80.9701C113.193 80.9961 113.2 81.7841 112.693 81.7601L107.166 81.4801C106.66 81.4551 106.658 80.6661 107.165 80.6921ZM88.884 91.8221L90.184 86.0081C90.295 85.5081 91.055 85.7231 90.944 86.2181C90.51 88.1556 90.0767 90.0933 89.644 92.0311C89.533 92.5271 88.773 92.3161 88.884 91.8221ZM71.3 85.7451L72.475 91.0311C72.586 91.5261 71.825 91.7311 71.715 91.2411L70.54 85.9551C70.434 85.4601 71.194 85.2501 71.3 85.7451ZM135.312 76.9531H118.602C118.497 76.9531 118.397 76.9116 118.323 76.8377C118.25 76.7638 118.208 76.6636 118.208 76.5591C118.208 76.4546 118.25 76.3544 118.323 76.2805C118.397 76.2066 118.497 76.1651 118.602 76.1651H135.312C135.416 76.1656 135.516 76.2073 135.59 76.2811C135.664 76.3548 135.705 76.4548 135.706 76.5591C135.705 76.6634 135.664 76.7633 135.59 76.8371C135.516 76.9109 135.416 76.9526 135.312 76.9531Z" fill="white"/>
<path d="M101.372 158.113C101.304 158.076 101.227 158.059 101.149 158.065C101.072 158.071 100.998 158.1 100.937 158.147C100.875 158.194 100.829 158.258 100.804 158.332C100.778 158.405 100.774 158.484 100.793 158.559C101.344 160.624 107.615 181.099 108.146 182.715C108.166 182.796 108.21 182.868 108.273 182.923C108.335 182.977 108.413 183.012 108.495 183.021C108.577 183.031 108.661 183.015 108.734 182.976C108.807 182.938 108.867 182.878 108.906 182.805C112.942 176.512 109.933 163.847 101.372 158.113Z" fill="black"/>
<path d="M108.981 63.8721H96.363C96.2585 63.8721 96.1583 63.9136 96.0844 63.9875C96.0105 64.0614 95.969 64.1616 95.969 64.2661C95.969 64.3706 96.0105 64.4708 96.0844 64.5447C96.1583 64.6186 96.2585 64.6601 96.363 64.6601H108.981C109.085 64.6595 109.185 64.6179 109.259 64.5441C109.333 64.4703 109.374 64.3704 109.375 64.2661C109.374 64.1617 109.333 64.0618 109.259 63.988C109.185 63.9143 109.085 63.8726 108.981 63.8721Z" fill="#DAF8FF"/>
<path d="M101.964 97.843H65.834C65.73 97.8446 65.6307 97.8866 65.5571 97.9601C65.4836 98.0337 65.4416 98.133 65.44 98.237V111.16C67.7626 109.71 69.9459 108.048 71.962 106.195C73.935 104.395 74.277 103.882 75.13 103.044C77.67 100.544 80.383 101.96 79.906 104.511C79.2877 106.8 78.1207 108.904 76.506 110.64C77.1943 110.669 77.8734 110.809 78.517 111.055C81.717 112.241 82.517 116.296 79.868 118.168C82.353 120.628 82.038 124.525 79.108 125.893H101.962C102.066 125.891 102.165 125.849 102.239 125.776C102.312 125.702 102.354 125.603 102.356 125.499V98.237C102.354 98.1335 102.312 98.0348 102.239 97.9614C102.166 97.888 102.068 97.8456 101.964 97.843Z" fill="#44A2FF"/>
<path d="M138.671 103.028C138.323 103.419 138.057 103.875 137.888 104.37C137.718 104.865 137.65 105.389 137.686 105.911C137.723 106.433 137.864 106.942 138.1 107.409C138.337 107.876 138.665 108.29 139.065 108.628C140.631 109.863 143.452 109.135 144.652 106.686C142.412 105.926 140.369 104.676 138.671 103.028Z" fill="#DAF8FF"/>
<path d="M71.3 85.7451C71.19 85.2451 70.43 85.4601 70.54 85.9551L71.715 91.2411C71.825 91.7411 72.586 91.5261 72.475 91.0311C72.086 89.2691 71.695 87.5071 71.3 85.7451Z" fill="black"/>
<path d="M90.187 86.0081C89.752 87.9461 89.318 89.8841 88.887 91.8221C88.776 92.3161 89.536 92.5221 89.647 92.0321L90.947 86.2171C91.058 85.7231 90.3 85.5121 90.187 86.0081Z" fill="black"/>
<path d="M131.3 53.031C130.75 52.9142 130.208 52.7571 129.681 52.561L126.716 53.894C125.81 54.414 124.857 54.85 123.871 55.194C123.744 55.7059 123.723 56.2383 123.809 56.7586C123.895 57.2789 124.086 57.7762 124.371 58.22C124.914 59.16 125.711 59.9275 126.671 60.434C127.514 60.7728 128.447 60.8145 129.317 60.5522C130.187 60.2899 130.942 59.7393 131.457 58.991C132.064 58.1084 132.375 57.0562 132.347 55.9855C132.319 54.9148 131.952 53.8805 131.3 53.031Z" fill="white"/>
<path d="M81.26 120.365C80.9644 119.538 80.4898 118.787 79.87 118.165C82.948 115.994 81.434 110.801 76.508 110.637C78.119 108.898 79.2855 106.795 79.908 104.508C79.9871 104.231 80.0107 103.941 79.9771 103.655C79.9436 103.369 79.8537 103.093 79.7126 102.842C79.5716 102.591 79.3821 102.37 79.1553 102.193C78.9284 102.015 78.6686 101.885 78.391 101.808C76.316 101.308 74.891 103.352 73.579 104.66C69.42 108.808 61.958 114.648 56.433 113.986C52.153 113.474 51.197 109.354 48.224 106.938C46.5095 105.548 44.4404 104.664 42.2502 104.387C40.0601 104.111 37.8363 104.452 35.83 105.373C33.824 106.295 32.1159 107.76 30.899 109.602C29.6822 111.444 29.0049 113.59 28.944 115.797C28.9422 118.274 29.6049 120.706 30.863 122.839C32.0785 125.324 33.5534 127.674 35.263 129.849C48 145.737 69.353 141.488 75.987 126.015C76.7596 126.278 77.5919 126.312 78.3835 126.114C79.1752 125.915 79.8924 125.491 80.449 124.894C81.0065 124.298 81.3797 123.553 81.5235 122.749C81.6674 121.946 81.5759 121.118 81.26 120.365ZM70.219 112.047C71.8276 110.942 73.7785 110.449 75.719 110.657C76.178 110.706 76.259 111.428 75.719 111.445H75.566C73.8168 111.262 72.0604 111.717 70.619 112.724C70.2 113.019 69.806 112.334 70.219 112.047ZM72.392 117.747C73.4248 117.117 74.6095 116.78 75.8192 116.772C77.0289 116.764 78.218 117.086 79.259 117.702C79.3322 117.763 79.3815 117.847 79.398 117.941C79.4145 118.035 79.3971 118.131 79.3489 118.213C79.3008 118.295 79.2251 118.357 79.1353 118.388C79.0455 118.419 78.9475 118.418 78.859 118.383C77.9376 117.841 76.8865 117.559 75.8174 117.566C74.7483 117.574 73.7014 117.872 72.788 118.427C72.357 118.693 71.961 118.01 72.392 117.745V117.747ZM53.684 135.889L49.961 135.345C49.461 135.272 49.675 134.512 50.171 134.585L53.894 135.128C54.4 135.2 54.181 135.961 53.684 135.889ZM74.36 123.219C74.3773 122.705 74.5786 122.214 74.9274 121.837C75.2761 121.459 75.7491 121.219 76.26 121.16C76.766 121.11 76.76 121.91 76.26 121.948C74.937 122.048 74.766 124.478 75.722 124.948C75.7865 124.986 75.8387 125.042 75.8721 125.109C75.9054 125.176 75.9186 125.252 75.91 125.326C75.9013 125.401 75.8707 125.471 75.8221 125.528C75.7736 125.586 75.7092 125.627 75.637 125.648C75.159 125.812 74.163 124.894 74.36 123.219Z" fill="white"/>
<path d="M140.716 43.014C140.32 42.1001 139.677 41.3151 138.858 40.7478C138.04 40.1805 137.079 39.8536 136.084 39.804C138.931 36.879 138.418 32.538 136.826 28.775C133.403 20.68 126.548 19.89 123.102 23.275C122.255 21.5887 121.003 20.1384 119.459 19.0534C117.914 17.9685 116.126 17.2826 114.252 17.057C107.677 16.237 102.676 21.623 102.452 27.713C101.879 26.967 101.147 26.3577 100.309 25.9293C99.4717 25.5009 98.5494 25.2641 97.609 25.236C92.438 25.136 88.809 30.157 89.63 35.67C89.958 37.87 91.007 40.518 93.413 41.07C95.613 41.575 97.513 40.112 98.965 38.496C98.193 44.806 103.95 50 110.3 47.652C111.471 47.2193 112.536 46.5415 113.424 45.664C113.001 48.264 113.186 51.245 114.783 53.245C116.783 55.745 120.807 56.145 123.876 55.189C124.863 54.8447 125.815 54.4095 126.721 53.889L129.686 52.556C133.046 53.808 137.319 53.473 139.616 50.892C140.388 49.883 140.897 48.6977 141.097 47.443C141.423 45.9623 141.29 44.4174 140.716 43.014Z" fill="black"/>
<path d="M105.108 103.893L111.572 101.741C112.051 101.582 111.846 100.82 111.362 100.981L104.898 103.133C104.419 103.293 104.625 104.054 105.108 103.893Z" fill="black"/>
<path d="M96.337 141.023C96.663 141.413 97.218 140.853 96.895 140.466L93.44 136.34C93.114 135.951 92.559 136.511 92.883 136.897L96.337 141.023Z" fill="black"/>
<path d="M90.07 140.6L94.764 142.28C95.243 142.451 95.449 141.69 94.974 141.52L90.274 139.84C89.8 139.668 89.6 140.429 90.07 140.6Z" fill="black"/>
<path d="M188.241 150.89C187.518 147.096 186.129 144.329 183.799 139.528C183.782 139.588 183.749 139.642 183.704 139.686C183.659 139.729 183.604 139.759 183.543 139.774C183.395 139.812 175.29 142.005 173.95 142.368C174.549 145.098 174.343 147.944 173.359 150.56C172.729 152.323 171.699 153.916 170.349 155.213C168.999 156.511 167.367 157.477 165.58 158.036C148.04 163.966 131.414 167.727 113.108 171.536C112.608 171.636 112.402 170.879 112.898 170.776C129.441 167.334 146.374 163.538 162.437 158.258C165.68 157.192 168.395 156.538 170.774 153.591C171.934 152.03 172.748 150.24 173.165 148.34C173.581 146.441 173.589 144.474 173.189 142.571C168.155 143.933 163.139 145.371 158.089 146.656C158.039 146.67 157.987 146.674 157.936 146.667C157.884 146.661 157.835 146.644 157.79 146.619C157.745 146.593 157.705 146.559 157.673 146.518C157.642 146.477 157.618 146.43 157.605 146.381C157.591 146.331 157.587 146.279 157.593 146.227C157.6 146.176 157.616 146.126 157.642 146.081C157.667 146.036 157.702 145.997 157.743 145.965C157.783 145.933 157.83 145.91 157.88 145.896C159.727 145.357 183.144 139.063 183.338 139.011C183.411 138.991 183.488 138.995 183.559 139.02C179.968 131.631 176.659 125.125 171.227 118.793C171.066 119.004 170.894 119.206 170.727 119.407C169.749 120.758 168.288 121.681 166.648 121.983C165.308 122.184 163.939 122.036 162.673 121.554C161.406 121.072 160.285 120.272 159.418 119.231C156.918 116.054 156.071 112.323 152.976 109.603C147.07 109.551 141.143 111.467 137.16 115.552C133.831 118.966 132.677 123.276 132.7 127.97C132.962 128.07 139.671 130.778 140.877 131.285C141.34 131.484 141.849 131.551 142.348 131.481C142.847 131.41 143.317 131.204 143.707 130.885C144.531 130.194 145.226 129.363 145.759 128.429C145.809 128.356 145.882 128.301 145.966 128.272C146.049 128.243 146.14 128.242 146.225 128.268C146.281 128.284 146.333 128.312 146.378 128.35C146.978 128.888 159.028 140.083 160.608 141.612C160.67 141.673 160.71 141.754 160.722 141.84C160.733 141.927 160.715 142.015 160.67 142.09C158.944 144.531 156.95 146.77 154.724 148.765C152.809 150.667 150.387 151.978 147.748 152.543C144.909 153.087 141.992 153.076 139.158 152.51C132.015 153.924 124.976 155.825 118.093 158.201C116.755 158.548 115.512 159.187 114.451 160.073C108.263 165.899 113.506 181.208 123.359 179.226C126.798 178.534 142.674 175.826 147.134 174.952C159.476 172.544 166.661 170.661 170.513 169.714C176.29 168.293 182.702 166.576 186.056 162.154C187.184 160.532 187.961 158.692 188.338 156.753C188.714 154.813 188.681 152.816 188.241 150.89ZM151.225 122C150.025 123.643 148.772 125.247 147.469 126.809C147.143 127.199 146.589 126.639 146.911 126.252C148.172 124.742 149.383 123.191 150.544 121.602C150.841 121.194 151.524 121.588 151.225 122ZM161.569 140.035C162.898 138.531 164.091 136.913 165.134 135.198C165.188 135.11 165.275 135.047 165.375 135.023C165.475 134.998 165.581 135.013 165.67 135.065C165.759 135.118 165.824 135.203 165.851 135.302C165.878 135.402 165.865 135.508 165.815 135.598C164.765 137.39 163.528 139.066 162.126 140.598C161.787 140.97 161.232 140.41 161.569 140.033V140.035ZM135.984 157.318L139.977 154.838C140.41 154.569 140.805 155.251 140.377 155.518L136.382 158C135.949 158.265 135.554 157.583 135.984 157.316V157.318Z" fill="white"/>
<path d="M173.175 106.264C170.539 101.474 164.629 102.45 160.754 102.486C158.708 102.534 156.67 102.199 154.747 101.498C152.071 100.575 147.191 98.146 142.593 96.545C141.971 96.302 141.312 96.1667 140.644 96.145C139.896 96.1634 139.172 96.4108 138.57 96.854C137.967 97.2972 137.515 97.9147 137.275 98.623C135.755 101.181 134.942 104.097 134.92 107.073C134.898 110.048 135.668 112.976 137.15 115.556C140.535 112.076 146.083 109.547 152.966 109.607C156.93 113.091 157.719 119.172 161.729 121.159C163.245 121.923 164.956 122.211 166.638 121.987C168.599 121.711 170.009 120.387 171.222 118.797C173.841 115.355 175.326 110.175 173.175 106.264ZM139.065 108.629C138.665 108.291 138.337 107.877 138.1 107.41C137.863 106.944 137.722 106.434 137.686 105.912C137.65 105.39 137.719 104.866 137.888 104.371C138.057 103.876 138.323 103.42 138.671 103.029C140.368 104.678 142.411 105.928 144.652 106.688C143.451 109.137 140.631 109.864 139.065 108.629Z" fill="black"/>
<path d="M160.6 141.62C159.02 140.091 146.968 128.896 146.37 128.358C146.325 128.32 146.273 128.292 146.217 128.276C146.161 128.259 146.102 128.253 146.043 128.261C145.985 128.268 145.929 128.288 145.879 128.319C145.828 128.349 145.785 128.389 145.751 128.437C145.218 129.371 144.523 130.202 143.699 130.893C143.309 131.212 142.839 131.417 142.34 131.488C141.841 131.558 141.332 131.491 140.869 131.293C139.663 130.786 131.839 127.648 131.413 127.481C129.209 126.606 126.942 125.898 124.631 125.363C121.878 124.704 119.004 124.738 116.267 125.463C109.979 127.216 106.206 134.068 103.75 140.047C103.124 141.176 102.858 142.469 102.987 143.753C103.475 146.444 106.378 147.866 108.444 145.697C109.159 144.868 109.733 143.927 110.144 142.912C110.336 142.471 109.863 143.599 109.357 144.435C109.303 144.523 109.216 144.586 109.116 144.611C109.016 144.635 108.91 144.62 108.821 144.568C108.732 144.515 108.667 144.43 108.64 144.331C108.613 144.231 108.626 144.125 108.676 144.035C109.275 143.007 109.757 141.916 110.113 140.781C110.139 140.701 110.19 140.631 110.258 140.581C110.326 140.532 110.409 140.506 110.493 140.506C110.577 140.506 110.66 140.532 110.728 140.581C110.796 140.631 110.847 140.701 110.873 140.781C111.129 141.65 111.548 142.462 112.108 143.174C112.594 143.881 113.339 144.368 114.182 144.528C115.841 144.68 116.661 142.428 116.377 141.114C116.36 141.039 116.365 140.961 116.392 140.89C116.418 140.818 116.465 140.755 116.526 140.709C116.587 140.663 116.66 140.636 116.736 140.631C116.813 140.625 116.889 140.642 116.956 140.679C117.043 140.728 117.108 140.809 117.137 140.904C117.316 142.009 117.588 143.096 117.949 144.155C118.114 144.475 118.347 144.755 118.633 144.975C118.918 145.195 119.248 145.349 119.6 145.427C119.952 145.505 120.317 145.504 120.668 145.424C121.02 145.344 121.349 145.187 121.633 144.964C122.416 144.386 122.397 143.434 122.584 142.573C122.614 142.475 122.681 142.391 122.771 142.341C122.861 142.29 122.967 142.276 123.067 142.301C123.133 142.318 123.194 142.352 123.243 142.399C127.629 146.646 133.096 150.551 139.143 151.708C139.728 151.82 139.461 152.569 138.982 152.479C138.017 152.297 137.021 152.01 137.259 152.079C140.67 153.045 144.258 153.207 147.742 152.552C150.381 151.987 152.803 150.676 154.718 148.774C156.944 146.779 158.938 144.54 160.664 142.099C160.708 142.023 160.726 141.935 160.714 141.849C160.703 141.762 160.662 141.681 160.6 141.62ZM146.411 149.72C145.266 149.966 144.108 150.144 142.943 150.254C142.437 150.301 142.443 149.513 142.943 149.465C144.038 149.363 145.126 149.196 146.201 148.965C146.7 148.856 146.905 149.616 146.409 149.723L146.411 149.72ZM111.594 135.35C111.275 135.786 110.983 136.243 110.722 136.716C110.477 137.161 109.796 136.763 110.041 136.316C110.303 135.843 110.594 135.387 110.913 134.95C111.21 134.546 111.894 134.94 111.594 135.35ZM117.613 136.273L116.393 137.861C116.36 137.916 116.313 137.962 116.258 137.996C116.203 138.029 116.141 138.048 116.076 138.052C116.012 138.056 115.948 138.044 115.889 138.018C115.83 137.991 115.779 137.951 115.739 137.9C115.676 137.817 115.648 137.712 115.662 137.609C115.669 137.558 115.686 137.508 115.712 137.463L116.932 135.875C116.986 135.786 117.072 135.721 117.173 135.694C117.274 135.668 117.381 135.682 117.472 135.733C117.561 135.787 117.626 135.874 117.652 135.974C117.678 136.075 117.664 136.182 117.613 136.273Z" fill="#DAF8FF"/>
<path d="M142.941 150.257C144.106 150.147 145.264 149.969 146.409 149.723C146.909 149.616 146.695 148.856 146.199 148.963C145.124 149.193 144.036 149.36 142.941 149.463C142.44 149.516 142.435 150.3 142.941 150.257Z" fill="black"/>
<path d="M110.722 136.716C110.983 136.243 111.275 135.786 111.594 135.35C111.894 134.94 111.21 134.55 110.913 134.95C110.594 135.387 110.303 135.843 110.041 136.316C109.8 136.763 110.477 137.161 110.722 136.716Z" fill="black"/>
<path d="M115.854 138C115.945 138.051 116.051 138.064 116.152 138.038C116.252 138.012 116.339 137.948 116.393 137.859L117.613 136.271C117.665 136.18 117.679 136.073 117.652 135.972C117.626 135.871 117.561 135.785 117.472 135.731C117.381 135.68 117.274 135.666 117.173 135.692C117.072 135.719 116.986 135.784 116.932 135.873L115.712 137.461C115.66 137.551 115.646 137.659 115.672 137.76C115.699 137.861 115.764 137.947 115.854 138Z" fill="black"/>
<path d="M150.544 121.6C149.383 123.189 148.172 124.739 146.911 126.25C146.589 126.637 147.143 127.197 147.469 126.807C148.772 125.245 150.025 123.641 151.225 121.998C151.524 121.588 150.841 121.194 150.544 121.6Z" fill="white"/>
<path d="M162.126 140.591C163.528 139.059 164.765 137.383 165.815 135.591C165.852 135.524 165.869 135.447 165.863 135.37C165.857 135.294 165.83 135.221 165.783 135.16C165.736 135.098 165.673 135.052 165.6 135.027C165.528 135.001 165.45 134.997 165.375 135.015C165.275 135.04 165.188 135.103 165.134 135.191C164.091 136.905 162.898 138.524 161.569 140.028C161.232 140.41 161.787 140.97 162.126 140.591Z" fill="white"/>
<path d="M139.977 154.836L135.984 157.316C135.554 157.583 135.949 158.265 136.384 157.996L140.377 155.516C140.805 155.249 140.41 154.567 139.977 154.836Z" fill="white"/>
<path d="M183.333 139.014C183.139 139.067 159.722 145.36 157.875 145.899C157.774 145.927 157.689 145.993 157.637 146.084C157.585 146.175 157.572 146.283 157.6 146.383C157.627 146.484 157.694 146.57 157.785 146.621C157.876 146.673 157.983 146.687 158.084 146.659C163.126 145.376 168.167 143.933 173.184 142.574C173.639 144.824 173.548 147.151 172.917 149.358C172.471 151.055 171.635 152.625 170.475 153.943C169.315 155.26 167.863 156.288 166.236 156.946C164.8 157.546 159.236 159.293 158.172 159.622C143.354 164.222 128.119 167.599 112.893 170.779C112.393 170.879 112.606 171.642 113.103 171.539C131.715 167.664 148.152 163.926 165.575 158.039C167.497 157.408 169.242 156.332 170.668 154.897C172.175 153.223 173.259 151.212 173.83 149.032C174.4 146.853 174.439 144.569 173.945 142.371C175.413 141.971 183.392 139.814 183.538 139.777C183.625 139.738 183.695 139.669 183.736 139.584C183.777 139.498 183.786 139.4 183.761 139.308C183.736 139.216 183.68 139.136 183.601 139.082C183.523 139.028 183.428 139.004 183.333 139.014Z" fill="white"/>
<path d="M183.386 128.127L188.886 121.811C189.217 121.43 188.662 120.87 188.328 121.254L182.828 127.57C182.5 127.951 183.053 128.511 183.386 128.127Z" fill="black"/>
<path d="M185.327 130.141C185.327 130.219 185.35 130.295 185.393 130.36C185.436 130.425 185.498 130.476 185.57 130.505C185.618 130.525 185.669 130.535 185.721 130.535L194.606 129.346C194.683 129.345 194.759 129.321 194.823 129.278C194.887 129.234 194.937 129.173 194.966 129.101C194.996 129.03 195.004 128.951 194.99 128.875C194.975 128.799 194.939 128.729 194.885 128.673C194.81 128.601 194.71 128.559 194.606 128.558L185.721 129.747C185.617 129.749 185.518 129.791 185.444 129.864C185.371 129.938 185.329 130.037 185.327 130.141Z" fill="black"/>
<path d="M192.733 133.958L186.823 132.958C186.323 132.875 186.113 133.634 186.613 133.718L192.524 134.718C193.02 134.8 193.233 134.042 192.733 133.958Z" fill="black"/>
<path d="M178.44 69.265C178.356 69.765 179.115 69.975 179.2 69.475C180.119 64.3923 179.194 59.1483 176.591 54.687C176.535 54.6026 176.449 54.5428 176.351 54.52C176.252 54.4971 176.148 54.513 176.061 54.5643C175.974 54.6156 175.91 54.6984 175.882 54.7957C175.854 54.8929 175.864 54.9972 175.911 55.087C178.342 59.3879 179.234 64.3889 178.44 69.265Z" fill="black"/>
<path d="M180.641 71.872C180.541 72.372 181.301 72.58 181.401 72.082C182.727 65.4585 181.589 58.5788 178.201 52.735C178.175 52.6903 178.14 52.6513 178.099 52.6201C178.057 52.5889 178.01 52.5661 177.96 52.5531C177.91 52.5401 177.858 52.5372 177.806 52.5443C177.755 52.5515 177.706 52.5687 177.661 52.595C177.616 52.6213 177.577 52.6561 177.546 52.6974C177.515 52.7388 177.492 52.7859 177.479 52.836C177.466 52.8861 177.463 52.9383 177.47 52.9897C177.478 53.041 177.495 53.0903 177.521 53.135C180.783 58.8013 181.891 65.4544 180.641 71.872Z" fill="black"/>
<path d="M12.292 103.549C12.686 103.858 13.248 103.304 12.849 102.991C11.5624 101.984 10.3741 100.857 9.30002 99.626C8.96602 99.243 8.41102 99.802 8.74302 100.183C9.81665 101.415 11.005 102.542 12.292 103.549Z" fill="black"/>
<path d="M14.154 101.811C14.392 102.259 15.072 101.861 14.834 101.411L10.973 94.1429C10.735 93.6949 10.054 94.0929 10.292 94.5429L14.154 101.811Z" fill="black"/>
<path d="M110.5 142.044C110.983 143.289 111.879 144.329 113.039 144.991C113.376 145.179 113.751 145.288 114.137 145.311C114.522 145.334 114.907 145.269 115.264 145.122C115.937 144.789 116.472 144.232 116.778 143.546C116.806 143.484 116.825 143.418 116.852 143.355C116.933 143.734 117.054 144.103 117.215 144.455C117.508 145.078 117.996 145.588 118.606 145.909C119.215 146.229 119.912 146.342 120.592 146.23C121.271 146.119 121.895 145.789 122.37 145.29C122.845 144.792 123.145 144.152 123.223 143.468C127.669 147.656 132.958 151.348 138.977 152.481C139.477 152.574 139.686 151.815 139.187 151.721C133.159 150.584 127.664 146.685 123.24 142.401C123.202 142.365 123.158 142.336 123.11 142.317C123.061 142.298 123.009 142.289 122.957 142.29C122.852 142.291 122.752 142.334 122.678 142.409C122.372 142.723 122.623 144.233 121.63 144.966C121.202 145.3 120.675 145.483 120.132 145.485C119.588 145.487 119.06 145.309 118.629 144.978C118.344 144.758 118.111 144.478 117.946 144.157C117.585 143.098 117.313 142.011 117.134 140.906C117.102 140.807 117.032 140.724 116.94 140.676C116.847 140.628 116.74 140.618 116.64 140.648C116.545 140.679 116.466 140.744 116.417 140.831C116.367 140.917 116.352 141.019 116.374 141.116C116.658 142.433 115.838 144.682 114.179 144.53C113.336 144.37 112.591 143.883 112.105 143.176C111.545 142.464 111.126 141.652 110.87 140.783C110.844 140.703 110.793 140.633 110.725 140.583C110.657 140.534 110.574 140.508 110.49 140.508C110.406 140.508 110.323 140.534 110.255 140.583C110.187 140.633 110.136 140.703 110.11 140.783C109.753 141.918 109.271 143.009 108.673 144.037C108.636 144.104 108.619 144.181 108.625 144.258C108.631 144.334 108.659 144.408 108.705 144.469C108.752 144.53 108.815 144.576 108.888 144.601C108.96 144.627 109.038 144.631 109.113 144.613C109.213 144.588 109.3 144.525 109.354 144.437C109.801 143.672 110.184 142.872 110.5 142.044Z" fill="black"/>
<path d="M171.382 118.791C173.927 115.399 175.492 110.217 173.282 106.204C170.959 101.98 166.204 102.164 162.382 102.313C159.811 102.558 157.217 102.24 154.782 101.38C152.115 100.459 144.359 96.752 141.553 96.119C141.553 94.855 141.57 86.575 141.577 83.074C142.04 82.6347 142.588 82.2941 143.187 82.0731C143.786 81.852 144.423 81.755 145.061 81.788C145.489 81.818 145.888 82.013 146.176 82.331C146.312 82.645 146.319 82.999 146.196 83.318C145.711 85.412 145.025 87.928 144.724 89.438C144.372 91.207 144.641 92.546 145.524 93.419C145.86 93.7588 146.291 93.9885 146.76 94.0778C147.23 94.167 147.715 94.1117 148.152 93.919C149.282 93.209 149.674 92.306 150.387 90.666C150.543 90.307 150.951 89.387 150.979 89.32C151.779 87.42 152.207 87.692 152.085 88.247C151.856 89.167 151.541 90.062 151.144 90.922C150.657 91.8389 150.311 92.824 150.118 93.844C150.028 94.3331 150.045 94.8359 150.168 95.3178C150.291 95.7997 150.516 96.2494 150.829 96.636C151.126 96.9195 151.495 97.1165 151.896 97.2057C152.297 97.2949 152.715 97.2729 153.104 97.142C153.977 96.7737 154.729 96.1668 155.273 95.391C159.63 90.285 165.939 87.091 170.521 80.396C174.638 74.375 175.659 70.296 174.721 63.609C173.92 57.8583 171.811 52.368 168.554 47.561C163.9 40.642 157.4 36.318 148.7 34.345C145.252 33.5509 141.716 33.2117 138.18 33.336C137.987 31.7487 137.571 30.1966 136.943 28.726C133.538 20.675 126.708 19.739 123.138 23.065C120.204 17.393 113.251 15.403 108.347 17.931C106.626 18.8666 105.173 20.2251 104.123 21.8783C103.073 23.5315 102.462 25.425 102.347 27.38C101.728 26.6468 100.952 26.0623 100.076 25.6697C99.2008 25.2771 98.2482 25.0865 97.289 25.112C92.338 25.19 88.673 30.09 89.509 35.684C89.724 37.12 90.531 40.531 93.388 41.184C95.157 41.591 96.932 40.827 98.806 38.849C98.376 44.149 102.553 48.883 108.032 48.292C105.74 51.2536 103.946 54.5691 102.721 58.108C97.214 58.114 69.427 58.139 69.237 58.137C67.9096 58.0342 66.5754 58.2131 65.322 58.662C64.0667 59.2054 62.9813 60.0775 62.1803 61.1863C61.3793 62.2951 60.8924 63.5995 60.771 64.962C60.689 65.93 60.717 62.217 60.717 113.308C58.317 114.137 55.804 114.25 53.717 112.821C53.538 111.989 53.3259 111.164 53.081 110.348C51.173 104.032 46.726 99.918 39.86 98.121C38.2237 97.679 36.5378 97.4475 34.843 97.432C31.2008 97.4519 27.6053 98.254 24.3 99.784C21.1532 101.158 18.4133 103.32 16.3443 106.06C14.2753 108.8 12.9469 112.027 12.487 115.43C10.818 125.563 10.72 134.614 12.194 142.33C12.617 144.529 13.3113 146.666 14.261 148.694C14.9151 150.148 15.9521 151.397 17.261 152.307C15.945 152.569 14.7348 153.211 13.7803 154.154C12.8258 155.097 12.1689 156.299 11.891 157.612C10.846 161.849 11.13 167.748 15.368 170.427C17.184 171.412 19.2482 171.845 21.307 171.673C46.607 171.673 45.516 171.798 47.507 171.335C53.379 169.968 56.893 164.379 57.153 158.642C57.467 151.742 57.753 145.772 53.386 139.97C55.851 140.124 58.326 139.888 60.717 139.27C60.717 141.601 60.7 164.011 60.748 164.544C60.9154 166.51 61.8227 168.339 63.2866 169.662C64.7506 170.985 66.662 171.704 68.635 171.672C70.286 171.661 102.553 171.672 104.535 171.672C105.235 173.964 107.522 181.203 108.029 182.74C108.054 182.845 108.11 182.94 108.191 183.012C108.271 183.084 108.371 183.129 108.478 183.143C108.585 183.157 108.693 183.139 108.789 183.09C108.885 183.042 108.964 182.965 109.016 182.871C111.425 179.116 110.906 174.304 110.35 171.671H112.431C113.128 173.89 114.405 175.882 116.131 177.441C117.101 178.31 118.264 178.936 119.523 179.269C120.783 179.601 122.103 179.631 123.376 179.354C136.036 176.807 143.921 176.385 170.536 169.841C175.643 168.586 182.636 166.866 186.149 162.241C187.288 160.603 188.073 158.746 188.455 156.788C188.837 154.831 188.806 152.815 188.366 150.869C187.233 144.933 178.842 127.528 171.382 118.791ZM108.662 181.35C106.206 173.84 103.625 165.162 102.095 159.781C109.282 165.664 111.3 175.692 108.662 181.35ZM55.116 163.186C54.3916 165.337 53.0155 167.209 51.1788 168.543C49.342 169.877 47.1357 170.605 44.866 170.628C43.251 170.669 45.521 170.659 19.049 170.578C17.4044 170.452 15.8607 169.737 14.702 168.563C13.002 166.835 12.287 164.294 12.47 160.563C12.716 155.543 15.117 153.042 19.598 153.131C19.7322 153.129 19.8604 153.075 19.9556 152.981C20.0507 152.886 20.1054 152.758 20.108 152.624C20.1108 152.49 20.0617 152.36 19.971 152.261C19.8802 152.162 19.7548 152.102 19.621 152.094C18.9462 151.979 18.3012 151.731 17.724 151.363C17.1468 150.995 16.649 150.515 16.26 149.952C15.1738 148.39 14.3656 146.652 13.871 144.815C11.382 135.767 12.216 125.009 12.935 119.402C13.1866 116.604 13.7735 113.847 14.683 111.189C15.7974 108.415 17.5317 105.932 19.7533 103.931C21.9748 101.93 24.6246 100.463 27.5 99.644C20.406 110.267 20.135 122.886 19.918 134.049H12.948C12.8141 134.055 12.6877 134.112 12.5951 134.209C12.5025 134.306 12.4508 134.435 12.4508 134.569C12.4508 134.702 12.5025 134.831 12.5951 134.928C12.6877 135.025 12.8141 135.082 12.948 135.088C27.101 135.355 22.208 135.426 38.572 135.088C38.7058 135.082 38.8322 135.025 38.9248 134.928C39.0175 134.831 39.0692 134.702 39.0692 134.569C39.0692 134.435 39.0175 134.306 38.9248 134.209C38.8322 134.112 38.7058 134.055 38.572 134.049H20.954C20.974 129.252 21.234 124.459 21.734 119.688C22.334 114.023 24.11 105.872 29.149 99.188C40.328 96.429 48.911 102.179 51.615 109.293C51.897 110.036 52.141 110.792 52.346 111.56C50.956 110.015 49.946 108.173 48.301 106.839C46.5673 105.438 44.4768 104.549 42.265 104.272C40.0532 103.995 37.808 104.341 35.7825 105.272C33.757 106.203 32.0317 107.681 30.801 109.539C29.5703 111.398 28.8831 113.563 28.817 115.791C28.747 118.382 29.443 120.291 30.749 122.891C31.9674 125.384 33.447 127.741 35.163 129.922C39.676 135.551 45.64 139.07 51.963 139.834C54.3723 142.681 55.8282 146.211 56.126 149.929C56.306 152.32 56.313 154.722 56.145 157.114C56.2436 159.189 55.8926 161.26 55.116 163.186ZM31.242 110.731C32.0616 109.297 33.1947 108.067 34.5564 107.133C35.9181 106.199 37.4734 105.584 39.106 105.335C40.7389 105.086 42.4071 105.21 43.9854 105.697C45.5638 106.184 47.0115 107.022 48.22 108.148C49.04 109.012 49.789 109.94 50.461 110.922C51.5914 112.653 53.2509 113.971 55.192 114.682C57.892 115.451 61.11 114.729 65.019 112.473C68.7585 110.272 72.1603 107.542 75.119 104.368C75.6615 103.628 76.4009 103.056 77.253 102.716C77.4706 102.65 77.6994 102.629 77.9254 102.654C78.1515 102.679 78.3701 102.75 78.568 102.862C78.771 103.03 78.9215 103.253 79.0018 103.504C79.0821 103.755 79.0888 104.023 79.021 104.278C78.3792 106.643 77.1181 108.794 75.368 110.509C73.5149 110.383 71.6739 110.889 70.146 111.945C69.6 112.323 70.13 113.218 70.687 112.83C73.268 111.03 78.776 110.766 80.243 113.678C80.575 114.336 80.6505 115.093 80.455 115.803C80.2594 116.513 79.8067 117.125 79.185 117.52C78.134 116.929 76.9446 116.628 75.739 116.649C74.5333 116.67 73.3549 117.011 72.325 117.638C71.757 117.986 72.273 118.889 72.854 118.532C75.1 117.147 78.154 117.624 79.379 118.976C79.9727 119.568 80.3761 120.325 80.5375 121.148C80.6989 121.971 80.611 122.823 80.285 123.596C79.9599 124.204 79.4559 124.698 78.841 125.011C78.226 125.323 77.53 125.439 76.847 125.343C76.3845 125.297 75.9579 125.073 75.6574 124.719C75.3569 124.364 75.2062 123.907 75.237 123.443C75.2201 123.129 75.3143 122.82 75.503 122.568C75.6917 122.317 75.9629 122.14 76.269 122.069C76.935 122.02 76.923 120.969 76.248 121.032C73.934 121.263 73.598 124.716 75.148 125.667C68.924 140.04 50.279 143.839 38.332 131.883C35.5707 129.128 33.3096 125.913 31.65 122.383C31.0609 121.258 30.5798 120.08 30.213 118.865C29.8311 117.509 29.7254 116.091 29.9021 114.694C30.0789 113.296 30.5345 111.949 31.242 110.731ZM100.26 37.067C100.477 36.478 99.66 36.202 99.322 36.645C98.6407 37.5412 97.8678 38.364 97.016 39.1C96.2546 39.7782 95.29 40.1851 94.273 40.257C91.712 40.25 90.845 37.132 90.641 36.176C90.3646 34.9511 90.3438 33.6825 90.5797 32.4492C90.8155 31.2159 91.3031 30.0445 92.012 29.008C94.851 25.078 100.506 25.196 102.444 29.415C102.489 29.487 102.551 29.547 102.624 29.5899C102.697 29.6327 102.78 29.6571 102.865 29.6609C102.95 29.6647 103.034 29.6479 103.111 29.6119C103.188 29.5758 103.255 29.5217 103.306 29.454C103.374 29.3629 103.411 29.2519 103.41 29.138C102.741 22.287 108.693 16.055 116.079 18.389C117.504 18.8173 118.817 19.5541 119.925 20.547C121.033 21.5398 121.909 22.7645 122.49 24.134C122.513 24.2041 122.55 24.2688 122.599 24.3237C122.648 24.3786 122.708 24.4227 122.775 24.453C122.842 24.4833 122.915 24.4993 122.989 24.4998C123.062 24.5003 123.135 24.4854 123.203 24.456C123.293 24.416 123.37 24.3516 123.426 24.27C125.615 21.626 129.769 21.793 132.346 23.934C133.795 25.1529 134.94 26.694 135.687 28.434C136.694 30.4012 137.215 32.5811 137.206 34.791C137.232 35.8537 136.97 36.9036 136.447 37.829C135.924 38.7545 135.16 39.521 134.236 40.047C133.636 40.357 134.143 41.218 134.741 40.953C137.868 39.574 141.689 43.469 139.934 48.285C139.78 48.9326 139.494 49.5414 139.093 50.0728C138.693 50.6043 138.186 51.047 137.606 51.373C135.657 52.3851 133.404 52.6422 131.277 52.095C129.946 51.787 129.811 51.51 129.369 51.706C127.822 52.2911 126.323 52.9977 124.887 53.819C123.599 54.4709 122.172 54.7997 120.729 54.7772C119.286 54.7548 117.87 54.3816 116.603 53.69C113.962 52.045 113.616 47.728 114.642 44.308C114.668 44.1888 114.651 44.0644 114.595 43.9561C114.539 43.8479 114.447 43.7626 114.334 43.7152C114.222 43.6677 114.097 43.661 113.98 43.6963C113.863 43.7315 113.762 43.8064 113.695 43.908C112.673 45.4745 111.109 46.6081 109.302 47.0907C107.495 47.5734 105.573 47.3711 103.906 46.5228C102.24 45.6744 100.945 44.2399 100.272 42.495C99.5991 40.7501 99.5947 38.818 100.26 37.07V37.067ZM138.241 34.391C144.635 34.1131 150.994 35.4583 156.728 38.301C164.228 42.092 170.022 49.549 172.636 58.778C171.094 58.778 148.023 58.771 147.669 58.778C145.668 57.7539 143.472 57.1656 141.227 57.0518C138.982 56.938 136.738 57.3014 134.644 58.118C133.915 58.073 133.076 58.084 132.136 58.084C132.429 57.287 132.533 56.4328 132.439 55.5889C132.345 54.745 132.057 53.9344 131.596 53.221C134.251 53.721 137.696 53.234 139.711 50.974C140.536 49.8637 141.075 48.5676 141.282 47.1998C141.488 45.832 141.355 44.4344 140.895 43.13C153.085 42.449 161.251 50.089 161.976 57.802C162.039 58.468 163.076 58.447 163.013 57.777C162.134 49.306 153.432 41.149 140.383 42.127C139.935 41.4479 139.34 40.8775 138.644 40.4574C137.947 40.0374 137.165 39.7783 136.355 39.699C137.65 38.2424 138.327 36.3383 138.241 34.391ZM152.956 89.05C153.072 88.795 153.136 88.519 153.144 88.239C153.151 87.9585 153.102 87.6794 153 87.418C152.885 87.2297 152.723 87.0744 152.531 86.9672C152.338 86.8599 152.121 86.8044 151.9 86.806C151.617 86.8319 151.347 86.936 151.12 87.1068C150.892 87.2776 150.717 87.5083 150.614 87.773C149.489 89.729 148.784 92.61 147.547 93.059C146.695 93.368 145.871 92.466 145.672 91.605C145.372 90.278 145.91 89.175 147.197 83.598C147.319 83.2586 147.354 82.894 147.299 82.5375C147.244 82.181 147.101 81.8439 146.882 81.557C145.539 80.229 143.082 80.665 141.482 81.857C140.534 82.5394 139.675 83.3368 138.924 84.231C138.292 85.006 137.463 85.5963 136.524 85.94C136.078 86.1073 135.593 86.1396 135.13 86.0329C134.666 85.9262 134.244 85.6852 133.916 85.34C133.697 85.0303 133.547 84.6766 133.478 84.3035C133.409 83.9304 133.422 83.5467 133.516 83.179C133.959 81.351 135.777 80.179 137.497 79.279C142.691 76.552 146.431 78.119 149.233 77.737C149.822 77.6045 150.375 77.3459 150.855 76.9791C151.334 76.6123 151.728 76.1458 152.01 75.612C153.091 73.3626 153.586 70.876 153.447 68.384C153.41 66.7313 153.008 65.1072 152.272 63.6271C151.535 62.1471 150.482 60.8476 149.186 59.821C152.086 59.821 171.172 59.847 172.922 59.821C173.686 62.6395 174.045 65.5524 173.988 68.472C173.905 71.4026 173.066 74.2619 171.551 76.772C169.451 80.497 167.251 83.415 161.613 88.138C159.054 90.1284 156.671 92.3345 154.489 94.732C153.969 95.366 153.323 96.157 152.477 96.215C152.311 96.2228 152.146 96.1975 151.99 96.1407C151.835 96.0838 151.692 95.9965 151.57 95.8839C151.449 95.7712 151.351 95.6355 151.282 95.4846C151.214 95.3337 151.176 95.1707 151.171 95.005C151.049 94.1261 151.201 93.2308 151.608 92.442C152.139 91.346 152.589 90.212 152.956 89.05ZM151.872 73.18C151.642 74.299 151.085 75.3246 150.272 76.127C148.611 77.554 146.733 76.083 141.596 76.827C141.596 76.827 141.626 65.785 141.589 65.254C141.518 63.7988 141.034 62.394 140.192 61.2048C139.351 60.0156 138.187 59.0914 136.838 58.541C147.01 56.115 154.737 63.246 151.872 73.18ZM124.872 54.951C125.133 54.851 125.387 54.734 125.632 54.599C125.905 54.447 126.412 54.166 129.432 52.807C129.741 52.901 130.028 53.053 130.278 53.257C130.75 53.7462 131.096 54.3422 131.287 54.9941C131.479 55.646 131.51 56.3345 131.378 57.001C131.297 57.4459 131.128 57.8702 130.881 58.249C130.634 58.6278 130.314 58.9535 129.939 59.2071C129.565 59.4607 129.144 59.637 128.7 59.7258C128.257 59.8145 127.8 59.8139 127.357 59.724C126.363 59.3161 125.547 58.5663 125.057 57.61C124.843 57.2039 124.716 56.7575 124.685 56.2996C124.654 55.8416 124.72 55.3822 124.877 54.951H124.872ZM114.617 53.251C113.679 54.4983 113.014 55.9294 112.667 57.451C112.52 58.104 113.52 58.371 113.672 57.716C113.977 56.3896 114.545 55.138 115.344 54.036C116.527 54.9134 117.904 55.4933 119.358 55.7267C120.813 55.9601 122.302 55.8402 123.7 55.377C123.522 56.3073 123.679 57.2705 124.141 58.097L103.817 58.117C105.133 54.4387 107.085 51.02 109.584 48.017C110.944 47.6511 112.197 46.9654 113.238 46.017C112.981 47.894 112.9 51.022 114.622 53.247L114.617 53.251ZM140.556 77.031C138.339 77.5639 136.265 78.5718 134.476 79.985H118.6C118.466 79.9909 118.34 80.0482 118.247 80.145C118.154 80.2418 118.103 80.3706 118.103 80.5045C118.103 80.6385 118.154 80.7673 118.247 80.8641C118.34 80.9608 118.466 81.0181 118.6 81.024H133.451C132.724 81.8964 132.356 83.0124 132.421 84.146H118.6C118.462 84.146 118.33 84.2007 118.233 84.298C118.136 84.3954 118.081 84.5274 118.081 84.665C118.081 84.8027 118.136 84.9347 118.233 85.032C118.33 85.1293 118.462 85.184 118.6 85.184H132.646C132.988 85.9733 133.626 86.5965 134.423 86.9191C135.22 87.2417 136.113 87.2377 136.907 86.908C138.707 86.26 139.407 85.171 140.527 84.023V93.233C137.281 93.233 62.77 93.209 61.749 93.22V71.035C61.749 71.035 137.6 71.047 140.555 71.035L140.556 77.031ZM139.873 108.073C139.528 107.843 139.236 107.543 139.015 107.193C138.794 106.843 138.649 106.45 138.591 106.039C138.532 105.629 138.561 105.211 138.675 104.813C138.789 104.415 138.985 104.045 139.252 103.728C140.576 104.893 142.09 105.821 143.729 106.472C143.408 107.176 142.832 107.732 142.118 108.028C141.403 108.325 140.603 108.339 139.878 108.069L139.873 108.073ZM141.699 109.253C142.346 109.096 142.951 108.799 143.471 108.383C143.991 107.967 144.414 107.442 144.709 106.845C147.331 107.726 148.58 107.312 150.731 108.291C151.412 108.603 152.048 109.004 152.623 109.484C146.802 109.507 141.417 111.432 137.777 114.796C136.629 112.709 135.97 110.388 135.851 108.008C135.732 105.629 136.156 103.254 137.09 101.062C137.371 101.834 137.854 102.516 138.49 103.037C136.323 105.461 138.058 110.079 141.7 109.249L141.699 109.253ZM112.799 146.58C112.239 146.348 109.815 145.28 109.15 145.011C109.677 144.175 110.128 143.293 110.498 142.376C111.012 143.525 111.879 144.481 112.973 145.104C113.311 145.288 113.684 145.398 114.068 145.428C114.451 145.457 114.837 145.406 115.199 145.276C115.562 145.147 115.892 144.942 116.17 144.676C116.448 144.41 116.667 144.088 116.812 143.732C116.886 143.999 116.981 144.259 117.097 144.511C117.393 145.139 117.881 145.657 118.489 145.991C119.098 146.325 119.797 146.458 120.486 146.371C121.175 146.284 121.818 145.981 122.325 145.506C122.831 145.03 123.174 144.407 123.304 143.725C126.488 146.818 130.184 149.336 134.228 151.168H113.213V147.097C113.211 146.978 113.17 146.862 113.096 146.768C113.023 146.674 112.92 146.607 112.805 146.576L112.799 146.58ZM108.468 145.847C109.52 146.261 110.627 146.764 111.568 147.172C108.841 148.767 105.735 149.599 102.576 149.581C99.4171 149.562 96.3216 148.693 93.614 147.066C96.5403 145.503 99.8044 144.679 103.122 144.666C103.293 145.193 103.599 145.666 104.009 146.038C104.42 146.41 104.92 146.668 105.461 146.787C106.002 146.906 106.565 146.881 107.093 146.716C107.622 146.55 108.098 146.249 108.474 145.843L108.468 145.847ZM112.168 148.019V151.168H93.068V147.947C95.9513 149.678 99.2486 150.598 102.612 150.61C105.975 150.622 109.278 149.726 112.174 148.015L112.168 148.019ZM122.454 142.552C122.264 143.421 122.288 144.325 121.554 144.869C121.285 145.081 120.973 145.232 120.639 145.308C120.305 145.385 119.958 145.387 119.624 145.313C119.289 145.24 118.975 145.094 118.704 144.885C118.432 144.676 118.21 144.41 118.054 144.105C117.7 143.051 117.433 141.97 117.254 140.873C117.22 140.782 117.162 140.702 117.085 140.642C117.008 140.582 116.916 140.545 116.82 140.535C116.723 140.525 116.625 140.542 116.538 140.584C116.45 140.626 116.376 140.692 116.324 140.774C116.255 140.885 116.23 141.018 116.254 141.146C116.548 142.512 115.666 144.546 114.204 144.41C113.801 144.334 113.417 144.18 113.074 143.955C112.731 143.731 112.435 143.441 112.204 143.102C111.654 142.403 111.242 141.605 110.991 140.751C110.967 140.671 110.924 140.598 110.865 140.538C110.807 140.478 110.735 140.433 110.655 140.406C110.575 140.38 110.491 140.373 110.408 140.387C110.325 140.401 110.247 140.434 110.18 140.484C110.09 140.55 110.024 140.644 109.991 140.751C109.598 142 109.051 143.195 108.363 144.308C107.573 145.53 106.728 146.041 105.848 145.827C105.306 145.682 104.823 145.371 104.464 144.94C104.106 144.508 103.891 143.975 103.848 143.416C103.856 142.285 104.142 141.173 104.681 140.178C108.065 132.035 112.012 127.478 116.799 126.27C119.455 125.638 122.225 125.664 124.869 126.345C127.036 126.886 129.165 127.569 131.242 128.389C132.994 129.075 139.27 131.563 140.381 132.07C140.834 132.284 141.326 132.404 141.827 132.423C142.327 132.442 142.827 132.359 143.295 132.18C144.498 131.558 145.5 130.606 146.183 129.436C147.991 131.12 158.504 140.918 159.63 141.969C158.212 143.921 156.619 145.74 154.87 147.403C153.145 149.231 150.995 150.605 148.612 151.403C145.522 152.202 142.287 152.267 139.167 151.594C133.849 150.521 128.667 147.487 123.331 142.317C123.266 142.253 123.186 142.207 123.098 142.183C123.01 142.16 122.917 142.16 122.829 142.184C122.741 142.208 122.661 142.254 122.596 142.317C122.532 142.381 122.485 142.461 122.46 142.548L122.454 142.552ZM61.766 94.268C66.346 94.268 136.957 94.32 140.521 94.28V96.02C139.774 96.0648 139.057 96.3297 138.46 96.7813C137.863 97.233 137.414 97.8512 137.168 98.558C135.648 101.122 134.831 104.043 134.802 107.024C134.772 110.005 135.531 112.941 137 115.535C134.028 118.612 132.578 122.623 132.57 127.79C127.605 125.868 121.992 123.739 116.237 125.343C113.708 126.101 111.452 127.571 109.737 129.578H74.191C74.9261 128.511 75.5497 127.372 76.052 126.178C76.551 126.359 77.0812 126.438 77.6113 126.411C78.1415 126.384 78.6609 126.252 79.139 126.021H101.966C102.034 126.021 102.101 126.007 102.164 125.981C102.227 125.955 102.284 125.917 102.332 125.869C102.38 125.82 102.418 125.763 102.444 125.7C102.47 125.637 102.483 125.57 102.483 125.502V98.235C102.482 98.098 102.426 97.9669 102.329 97.8702C102.232 97.7735 102.101 97.7188 101.964 97.718H65.832C65.695 97.7196 65.5641 97.7748 65.4674 97.8719C65.3708 97.9689 65.316 98.1 65.315 98.237V111.091C64.1788 111.796 62.9884 112.408 61.755 112.924C61.755 108.846 61.788 95.259 61.766 94.268ZM66.353 98.756H101.445V124.98H80.551C81.3366 123.991 81.7221 122.744 81.6311 121.484C81.5402 120.225 80.9794 119.046 80.06 118.18C83.001 115.943 81.579 110.858 76.775 110.526C78.315 108.811 79.4295 106.757 80.028 104.531C80.1093 104.238 80.1322 103.932 80.0953 103.631C80.0584 103.329 79.9624 103.038 79.8129 102.773C79.6634 102.509 79.4633 102.277 79.2239 102.089C78.9846 101.902 78.7107 101.764 78.418 101.683C76.295 101.175 74.892 103.169 73.489 104.569C71.3051 106.747 68.9152 108.708 66.353 110.425V98.756ZM73.472 130.616H108.848C106.668 133.477 104.911 136.638 103.632 140C103.03 141.11 102.754 142.367 102.838 143.627C99.464 143.627 96.3 144.51 92.292 146.562C91.924 146.751 92.027 146.754 92.029 151.162H61.755V138.98C66.4457 137.499 70.5472 134.571 73.472 130.616ZM157.9 145.76C158.921 144.614 159.877 143.412 160.765 142.16C160.824 142.061 160.848 141.945 160.833 141.831C160.818 141.716 160.765 141.61 160.682 141.53C159.03 139.93 146.958 128.723 146.448 128.265C146.39 128.214 146.321 128.177 146.247 128.155C146.173 128.133 146.095 128.127 146.018 128.138C145.941 128.149 145.868 128.175 145.802 128.216C145.737 128.257 145.68 128.311 145.637 128.375C145.112 129.296 144.427 130.116 143.614 130.796C143.242 131.101 142.793 131.297 142.317 131.363C141.841 131.43 141.355 131.364 140.914 131.173C139.729 130.673 134.992 128.739 133.601 128.193C133.436 124.817 134.251 121.466 135.948 118.543C139.187 113.343 146.161 110.205 153.729 110.531C156.413 113.538 156.969 116.331 159.309 119.311C160.192 120.366 161.331 121.178 162.617 121.668C163.902 122.158 165.292 122.311 166.654 122.111C168.273 121.811 169.721 120.917 170.714 119.604C176.001 125.951 178.979 131.704 182.572 139.091C177.876 140.36 160.02 145.151 157.9 145.76ZM172.526 114.482C171.654 116.754 169.931 119.589 167.719 120.728C166.364 121.253 164.867 121.285 163.491 120.819C158.127 119.552 158.136 112.27 152.934 108.389C150.634 106.674 148.696 106.652 147.119 106.383C144.295 105.886 141.674 104.586 139.57 102.639C138.945 102.16 138.443 101.54 138.103 100.83C137.959 100.41 137.915 99.9614 137.974 99.521C138.034 99.0806 138.194 98.66 138.444 98.2924C138.694 97.9249 139.026 97.6205 139.414 97.4033C139.801 97.1861 140.234 97.0621 140.678 97.041C141.441 97.081 142.189 97.272 142.878 97.602C145.018 98.447 145.439 98.524 149.995 100.536C155.681 103.046 157.535 103.595 163.42 103.343C165.193 103.175 166.982 103.323 168.704 103.779C172.186 104.737 174.664 108.916 172.529 114.482H172.526ZM131.515 59.111C132.515 59.1006 133.515 59.1039 134.515 59.121C135.79 59.1683 137.019 59.6097 138.033 60.3845C139.046 61.1592 139.795 62.2292 140.175 63.447C140.691 64.947 140.569 66.23 140.566 69.997C137.327 69.997 62.785 69.973 61.758 69.985V66.173C61.758 61.897 64.642 59.183 68.034 59.183L124.883 59.127C125.254 59.6641 125.75 60.103 126.328 60.4057C126.907 60.7085 127.55 60.8661 128.203 60.865C128.856 60.8634 129.499 60.7028 130.076 60.3973C130.653 60.0917 131.147 59.6502 131.515 59.111ZM61.741 161.635C62.4196 162.838 63.4033 163.842 64.5931 164.544C65.7828 165.246 67.1365 165.622 68.518 165.635H102.718C103.212 167.304 103.712 168.97 104.218 170.635C65.344 170.635 68.318 170.669 67.547 170.568C65.9772 170.335 64.5387 169.56 63.4817 168.376C62.4247 167.193 61.8162 165.676 61.762 164.09C61.7355 163.272 61.7285 162.453 61.741 161.635ZM111.729 165.635C111.558 167.312 111.691 169.006 112.122 170.635H110.094C109.639 168.899 108.985 167.221 108.146 165.635H111.729ZM107.567 164.596C106.046 161.963 103.949 159.708 101.433 158C101.366 157.964 101.292 157.943 101.216 157.938C101.14 157.933 101.064 157.945 100.993 157.972C100.922 157.999 100.858 158.042 100.805 158.096C100.752 158.15 100.711 158.215 100.685 158.287C100.652 158.384 100.647 158.488 100.672 158.587C101.189 160.526 101.781 162.48 102.407 164.587H69.932C68.6108 164.689 67.2825 164.525 66.026 164.104C64.7749 163.59 63.7028 162.719 62.9433 161.599C62.1838 160.48 61.7705 159.162 61.755 157.809C61.74 156.869 61.755 153.459 61.755 152.189H92.029V156.53C92.0348 156.664 92.0921 156.79 92.1889 156.883C92.2857 156.976 92.4145 157.027 92.5485 157.027C92.6824 157.027 92.8112 156.976 92.908 156.883C93.0048 156.79 93.0621 156.664 93.068 156.53V152.2H112.174V156.54C112.18 156.674 112.237 156.8 112.334 156.893C112.431 156.986 112.56 157.037 112.693 157.037C112.827 157.037 112.956 156.986 113.053 156.893C113.15 156.8 113.207 156.674 113.213 156.54V152.2C132.103 152.2 137.125 152.141 137.125 152.141C137.125 152.141 137.985 152.386 138.533 152.514C131.589 153.911 124.747 155.772 118.052 158.086C116.491 158.429 115.07 159.233 113.971 160.393C112.872 161.553 112.147 163.016 111.889 164.593L107.567 164.596ZM115.301 160.541C116.498 159.703 117.846 159.107 119.271 158.785C126.196 156.437 133.273 154.566 140.454 153.185C141.04 153.076 141.184 153.049 141.289 152.956C142.827 153.124 147.813 153.456 151.563 151.256C153.764 149.874 155.754 148.182 157.474 146.234C157.467 146.316 157.481 146.398 157.512 146.474C157.544 146.55 157.593 146.617 157.655 146.67C157.718 146.724 157.792 146.761 157.872 146.78C157.952 146.799 158.035 146.799 158.115 146.779C161.489 145.921 171.463 143.17 173.096 142.728C173.514 144.919 173.413 147.178 172.802 149.323C172.355 151 171.525 152.55 170.379 153.852C169.232 155.155 167.799 156.174 166.193 156.83C164.863 157.383 159.807 158.984 158.14 159.501C143.224 164.127 127.721 167.565 113.183 170.591C112.317 167.466 112.359 163 115.3 160.54L115.301 160.541ZM165.62 158.156C167.424 157.59 169.072 156.613 170.435 155.303C171.798 153.993 172.839 152.384 173.476 150.604C174.451 148.003 174.668 145.178 174.101 142.458L183.034 140.042C185.934 146.011 189.106 152.164 186.985 158.419C184.693 165.18 177.369 167.038 170.285 168.837C148.043 174.486 129.346 177.117 123.434 178.296C122.234 178.562 120.989 178.559 119.79 178.286C116.61 177.492 114.463 174.331 113.49 171.586C133.441 167.43 149.13 163.729 165.62 158.155V158.156Z" fill="black"/>
<path d="M38.247 152.034C36.485 151.993 23.739 151.864 23.126 151.875C23.0236 151.875 22.9236 151.906 22.8385 151.963C22.7535 152.02 22.6872 152.101 22.648 152.196C22.6088 152.291 22.5984 152.395 22.6182 152.495C22.6379 152.596 22.6869 152.688 22.759 152.761C22.8564 152.858 22.9884 152.913 23.126 152.913C24.826 152.953 38.226 153.073 38.246 153.073C38.3799 153.067 38.5063 153.01 38.5989 152.913C38.6915 152.816 38.7432 152.687 38.7432 152.553C38.7432 152.419 38.6915 152.291 38.5989 152.194C38.5063 152.097 38.3799 152.04 38.246 152.034H38.247Z" fill="black"/>
<path d="M5.742 144.935C5.66761 144.868 5.57559 144.825 5.47695 144.809C5.3783 144.793 5.27721 144.806 5.18576 144.846C5.09431 144.886 5.01637 144.952 4.96126 145.035C4.90615 145.119 4.8762 145.216 4.875 145.316V174.223C4.87807 174.324 4.91016 174.422 4.96743 174.505C5.0247 174.589 5.10474 174.654 5.198 174.693C5.29148 174.731 5.39399 174.742 5.49329 174.723C5.5926 174.705 5.68449 174.658 5.758 174.589L5.771 174.576C6.82832 173.238 7.70579 171.767 8.381 170.201C11.427 164.492 11.712 157.308 9.16 150.489C8.41397 148.423 7.25048 146.532 5.742 144.935ZM8.791 166.664C7.99924 168.719 7.03688 170.705 5.914 172.6V146.734C7.99649 149.625 9.2734 153.017 9.614 156.563C10.0547 159.95 9.77428 163.393 8.791 166.664Z" fill="black"/>
<path d="M48.674 87.7551C48.0138 88.625 47.6619 89.69 47.674 90.7821C47.689 92.8621 49.7 93.9441 51.774 93.9441C54.746 93.9441 56.123 91.6391 55.674 89.5841C55.5119 88.854 55.1515 88.1828 54.6325 87.6443C54.1136 87.1057 53.4562 86.7208 52.7326 86.5317C52.009 86.3427 51.2473 86.3568 50.5313 86.5727C49.8152 86.7885 49.1726 87.1976 48.674 87.7551ZM50.561 92.7281C50.0716 92.6768 49.6167 92.4523 49.2782 92.0951C48.9397 91.7379 48.74 91.2715 48.715 90.7801C48.6343 90.0365 48.8328 89.2895 49.2719 88.684C49.711 88.0786 50.3595 87.6579 51.0913 87.5036C51.8232 87.3493 52.5862 87.4725 53.2324 87.8492C53.8785 88.2259 54.3617 88.8292 54.588 89.5421C54.7975 90.17 54.7515 90.8551 54.46 91.4494C54.1684 92.0437 53.6548 92.4994 53.03 92.7181C52.2224 92.9398 51.3704 92.9432 50.561 92.7281Z" fill="black"/>
<path d="M48.171 85.44C48.9712 85.3143 49.735 85.0183 50.411 84.572C51.203 84.155 52.011 83.672 52.802 83.205C55.486 81.612 56.275 81.412 57.154 80.266C58.143 78.976 57.88 76.84 56.203 76.419C54.526 75.999 53.223 77.21 52.503 78.579C52.4432 78.2622 52.3053 77.9652 52.1017 77.7151C51.898 77.4651 51.6352 77.2698 51.337 77.147C49.515 76.377 47.381 78.085 47.807 81.258C47.5336 81.1789 47.2459 81.1623 46.9652 81.2095C46.6845 81.2568 46.4181 81.3666 46.1856 81.5308C45.9532 81.6951 45.7607 81.9096 45.6224 82.1584C45.4842 82.4072 45.4037 82.6839 45.387 82.968C45.3992 83.3159 45.4819 83.6577 45.6302 83.9726C45.7784 84.2876 45.9891 84.5691 46.2494 84.8002C46.5098 85.0313 46.8144 85.207 47.1447 85.3169C47.475 85.4267 47.8242 85.4682 48.171 85.439V85.44ZM48.993 82.163C48.7751 81.2996 48.7428 80.3999 48.898 79.523C48.9563 79.1999 49.0952 78.8967 49.3018 78.6415C49.5085 78.3863 49.7761 78.1874 50.08 78.063C50.3235 77.9795 50.5881 77.9812 50.8304 78.0681C51.0727 78.155 51.2782 78.3218 51.413 78.541C51.531 78.946 51.691 79.338 51.89 79.711C52.198 80.121 52.76 80.302 53.02 79.855C53.536 78.809 54.243 77.377 55.62 77.378C56.812 77.378 57.02 78.898 56.22 79.789C55.387 80.711 49.837 83.739 48.754 84.233C48.4918 84.3525 48.2042 84.4058 47.9166 84.3884C47.6289 84.371 47.3499 84.2833 47.104 84.133C46.339 83.658 46.104 82.523 47.031 82.255C47.212 82.1939 47.4076 82.1906 47.5905 82.2456C47.7735 82.3006 47.9348 82.4112 48.052 82.562C48.1204 82.6606 48.2206 82.7327 48.3359 82.766C48.4511 82.7994 48.5743 82.792 48.6848 82.7452C48.7952 82.6984 48.8862 82.6149 48.9423 82.5089C48.9985 82.4029 49.0164 82.2807 48.993 82.163Z" fill="black"/>
<path d="M118.1 76.5771C118.106 76.7079 118.16 76.8318 118.253 76.9244C118.345 77.0169 118.469 77.0714 118.6 77.0771H135.32C135.423 77.0776 135.524 77.0474 135.609 76.9904C135.695 76.9335 135.762 76.8523 135.801 76.7573C135.84 76.6623 135.851 76.5577 135.83 76.4568C135.81 76.356 135.76 76.2635 135.687 76.1911C135.639 76.1428 135.582 76.1046 135.519 76.0785C135.456 76.0524 135.388 76.039 135.32 76.0391H118.6C118.532 76.0413 118.465 76.0569 118.402 76.0852C118.34 76.1135 118.284 76.1538 118.238 76.2038C118.191 76.2539 118.155 76.3126 118.132 76.3767C118.108 76.4407 118.097 76.5088 118.1 76.5771Z" fill="black"/>
<path d="M108.718 76.5551C110.165 77.4211 111.635 78.2351 113.07 79.0281C113.129 79.0617 113.194 79.0829 113.262 79.0905C113.33 79.098 113.398 79.0918 113.463 79.0721C113.559 79.0437 113.645 78.9882 113.711 78.9123C113.776 78.8365 113.819 78.7434 113.833 78.6441C113.848 78.5445 113.833 78.4428 113.79 78.3517C113.747 78.2605 113.679 78.1838 113.593 78.1311C112.199 77.2961 110.693 76.4631 109.24 75.6571C109.181 75.6228 109.116 75.6006 109.048 75.5915C108.98 75.5824 108.911 75.5868 108.845 75.6044C108.779 75.6219 108.717 75.6523 108.663 75.6938C108.609 75.7353 108.563 75.787 108.529 75.8461C108.495 75.9052 108.472 75.9705 108.463 76.0382C108.454 76.1059 108.459 76.1747 108.476 76.2408C108.494 76.3068 108.524 76.3687 108.566 76.423C108.607 76.4773 108.659 76.5228 108.718 76.5571V76.5551Z" fill="black"/>
<path d="M112.718 81.8841C113.361 81.8841 113.357 80.878 112.699 80.845L107.172 80.567C106.495 80.537 106.493 81.5671 107.159 81.6051L112.718 81.885V81.8841Z" fill="black"/>
<path d="M112.984 83.1749L109.708 85.8169C109.629 85.887 109.574 85.9803 109.55 86.0835C109.527 86.1867 109.537 86.2946 109.578 86.3919C109.62 86.4892 109.692 86.5705 109.783 86.6243C109.875 86.678 109.981 86.7014 110.086 86.6909C110.361 86.6909 110.133 86.8039 113.699 83.9269C114.226 83.4999 113.5 82.7569 112.984 83.1749Z" fill="black"/>
<path d="M108.981 63.7471H96.359C96.2213 63.7471 96.0893 63.8017 95.992 63.8991C95.8947 63.9964 95.84 64.1284 95.84 64.2661C95.84 64.4037 95.8947 64.5357 95.992 64.6331C96.0893 64.7304 96.2213 64.7851 96.359 64.7851H108.985C109.123 64.7851 109.255 64.7304 109.352 64.6331C109.449 64.5357 109.504 64.4037 109.504 64.2661C109.504 64.1284 109.449 63.9964 109.352 63.8991C109.255 63.8017 109.123 63.7471 108.985 63.7471H108.981Z" fill="black"/>
<path d="M71.426 85.718C71.278 85.058 70.277 85.328 70.426 85.982L71.6 91.268C71.747 91.925 72.75 91.661 72.605 91.004L71.426 85.718Z" fill="black"/>
<path d="M90.065 85.9801L88.765 91.7941C88.619 92.4491 89.621 92.7171 89.765 92.0581L91.065 86.2441C91.216 85.5921 90.213 85.3201 90.065 85.9801Z" fill="black"/>
<path d="M104.976 104.041C105.106 104.041 104.676 104.174 111.611 101.86C112.251 101.647 111.96 100.651 111.323 100.86L104.859 103.011C104.742 103.048 104.642 103.124 104.575 103.227C104.508 103.33 104.479 103.452 104.493 103.574C104.507 103.696 104.563 103.809 104.651 103.894C104.739 103.979 104.854 104.031 104.976 104.041Z" fill="black"/>
<path d="M96.241 141.1C96.672 141.615 97.422 140.9 96.991 140.381L93.536 136.255C93.1 135.735 92.36 136.464 92.787 136.974L96.241 141.1Z" fill="black"/>
<path d="M90.027 140.717C95.044 142.517 94.773 142.429 94.901 142.429C95.0205 142.416 95.1321 142.363 95.217 142.277C95.302 142.192 95.3552 142.081 95.368 141.961C95.3813 141.842 95.3537 141.722 95.2897 141.62C95.2258 141.519 95.1293 141.442 95.016 141.402L90.316 139.721C89.685 139.493 89.4 140.491 90.027 140.717Z" fill="black"/>
<path d="M172.045 68.2771C172.046 68.4148 172.102 68.5464 172.2 68.6431C172.298 68.7397 172.43 68.7935 172.568 68.7926C172.705 68.7917 172.837 68.7361 172.933 68.6381C173.03 68.5401 173.084 68.4078 173.083 68.2701C173.055 66.7985 172.647 65.3592 171.898 64.0921C171.863 64.0344 171.817 63.9843 171.762 63.9445C171.708 63.9047 171.646 63.876 171.58 63.8601C171.507 63.8422 171.431 63.8404 171.357 63.855C171.283 63.8695 171.213 63.9001 171.152 63.9445C171.091 63.9888 171.04 64.046 171.004 64.1119C170.967 64.1778 170.945 64.2509 170.94 64.3261C170.932 64.4261 170.954 64.5261 171.002 64.6151C171.638 65.7347 171.995 66.9906 172.045 68.2771Z" fill="black"/>
<path d="M151.8 79.5701H151.778C150.79 79.5936 149.814 79.7924 148.896 80.1571C148.276 80.4041 148.572 81.3991 149.196 81.1501C150.024 80.8174 150.904 80.6332 151.796 80.6061C151.921 80.5891 152.035 80.5273 152.118 80.4322C152.201 80.3371 152.246 80.2152 152.246 80.0891C152.247 79.9631 152.203 79.8409 152.121 79.7453C152.039 79.6496 151.925 79.587 151.8 79.5691V79.5701Z" fill="black"/>
<path d="M154.439 85.259L156.745 84.178C157.36 83.89 156.845 82.989 156.245 83.271L153.939 84.352C153.322 84.637 153.836 85.543 154.439 85.259Z" fill="black"/>
<path d="M142.9 150.384C144.089 150.278 145.27 150.098 146.436 149.845C146.524 149.825 146.605 149.781 146.67 149.719C146.736 149.656 146.783 149.577 146.807 149.49C146.831 149.403 146.831 149.311 146.807 149.224C146.783 149.137 146.735 149.058 146.67 148.996C146.295 148.582 146.081 149.045 142.93 149.344C142.291 149.405 142.271 150.384 142.9 150.384Z" fill="black"/>
<path d="M110.812 134.878C110.49 135.319 110.196 135.78 109.932 136.258C109.888 136.339 109.866 136.431 109.869 136.523C109.871 136.616 109.899 136.706 109.948 136.784C109.996 136.863 110.064 136.928 110.145 136.972C110.226 137.016 110.318 137.038 110.41 137.035C110.856 137.035 110.755 136.71 111.694 135.424C112.094 134.88 111.207 134.341 110.812 134.878Z" fill="black"/>
<path d="M117.534 135.625C117.417 135.559 117.28 135.54 117.149 135.572C117.019 135.604 116.906 135.686 116.834 135.799L115.605 137.399C115.556 137.487 115.533 137.587 115.54 137.687C115.546 137.787 115.582 137.883 115.642 137.963C115.703 138.044 115.785 138.105 115.879 138.139C115.974 138.173 116.076 138.179 116.174 138.156C116.305 138.126 116.419 138.047 116.493 137.935L117.722 136.335C117.773 136.246 117.797 136.144 117.791 136.042C117.784 135.939 117.748 135.841 117.686 135.759C117.645 135.705 117.593 135.659 117.534 135.625Z" fill="black"/>
<path d="M150.443 121.527C149.284 123.113 148.074 124.661 146.816 126.17C146.385 126.684 147.134 127.403 147.565 126.887C148.87 125.323 150.124 123.717 151.326 122.072C151.724 121.524 150.835 120.989 150.443 121.527Z" fill="black"/>
<path d="M165.714 134.949C165.598 134.886 165.462 134.869 165.335 134.903C165.207 134.937 165.097 135.019 165.028 135.131C163.99 136.84 162.801 138.453 161.475 139.95C161.03 140.45 161.767 141.177 162.219 140.674C163.626 139.137 164.867 137.455 165.919 135.656C165.953 135.596 165.974 135.53 165.982 135.462C165.989 135.394 165.983 135.326 165.964 135.26C165.925 135.127 165.835 135.015 165.714 134.949Z" fill="black"/>
<path d="M136.447 158.1L140.441 155.62C141.009 155.267 140.485 154.371 139.911 154.727L135.918 157.207C135.83 157.259 135.76 157.337 135.716 157.429C135.672 157.521 135.657 157.625 135.672 157.726C135.686 157.827 135.731 157.921 135.799 157.997C135.868 158.073 135.957 158.127 136.056 158.152C136.188 158.187 136.329 158.168 136.447 158.1Z" fill="black"/>
<path d="M52.946 155.75L51.606 159.902C51.398 160.546 52.399 160.823 52.606 160.188L53.946 156.036C54.15 155.4 53.153 155.111 52.946 155.75Z" fill="black"/>
<path d="M49.943 135.468C53.343 135.968 53.682 136.018 53.75 136.018C54.361 136.018 54.538 135.096 53.912 135.005L50.189 134.461C49.53 134.365 49.275 135.371 49.943 135.468Z" fill="black"/>
<path d="M183.481 128.209L188.981 121.893C189.422 121.387 188.676 120.663 188.235 121.172L182.735 127.488C182.3 127.993 183.037 128.719 183.481 128.209Z" fill="black"/>
<path d="M194.979 128.59C194.928 128.539 194.868 128.499 194.801 128.472C194.734 128.445 194.663 128.432 194.591 128.434L185.717 129.622C185.615 129.623 185.516 129.654 185.432 129.711C185.348 129.767 185.283 129.848 185.244 129.942C185.205 130.036 185.195 130.138 185.213 130.238C185.232 130.337 185.278 130.429 185.348 130.503C185.399 130.554 185.459 130.594 185.526 130.621C185.593 130.647 185.664 130.661 185.736 130.659L194.61 129.471C194.711 129.47 194.81 129.438 194.894 129.382C194.978 129.325 195.043 129.245 195.082 129.151C195.121 129.057 195.131 128.955 195.113 128.855C195.095 128.756 195.048 128.664 194.979 128.59Z" fill="black"/>
<path d="M192.754 133.834L186.844 132.834C186.187 132.726 185.924 133.728 186.593 133.841C193.245 134.965 192.522 134.841 192.599 134.841C193.2 134.849 193.374 133.939 192.754 133.834Z" fill="black"/>
<path d="M178.317 69.244C178.205 69.901 179.21 70.162 179.323 69.495C180.248 64.3832 179.318 59.109 176.7 54.622C176.631 54.5027 176.517 54.4157 176.383 54.3804C176.25 54.345 176.108 54.3641 175.989 54.4335C175.869 54.5029 175.782 54.6168 175.747 54.7502C175.712 54.8836 175.731 55.0257 175.8 55.145C178.227 59.4183 179.116 64.3948 178.317 69.244Z" fill="black"/>
<path d="M180.518 71.8471C180.385 72.5051 181.391 72.7681 181.524 72.1071C182.856 65.4528 181.711 58.5411 178.306 52.6711C178.272 52.6117 178.226 52.5597 178.172 52.5181C178.118 52.4765 178.055 52.446 177.989 52.4285C177.923 52.4111 177.854 52.4069 177.786 52.4162C177.718 52.4256 177.653 52.4483 177.594 52.4831C177.535 52.5174 177.483 52.5631 177.442 52.6175C177.4 52.6719 177.37 52.7339 177.352 52.8001C177.335 52.8662 177.331 52.9352 177.34 53.0029C177.349 53.0707 177.372 53.136 177.406 53.1951C180.672 58.8289 181.778 65.4581 180.518 71.8471Z" fill="black"/>
<path d="M12.214 103.647C12.739 104.06 13.458 103.309 12.926 102.893C11.6479 101.89 10.4673 100.769 9.4 99.544C8.956 99.035 8.214 99.76 8.653 100.265C9.73085 101.502 10.9231 102.634 12.214 103.647Z" fill="black"/>
<path d="M14.043 101.87C14.358 102.462 15.261 101.949 14.943 101.355L11.082 94.086C10.766 93.491 9.86597 94.009 10.182 94.601L14.043 101.87Z" fill="black"/>
</svg>
